<?xml version="1.0" encoding="UTF-8"?><svg id="Layer_2" xmlns="http://www.w3.org/2000/svg" viewBox="0 0 277.58 338.21"><defs><style>.cls-1{stroke:red;stroke-width:2px;}.cls-1,.cls-2,.cls-3{fill:none;stroke-miterlimit:10;}.cls-2,.cls-3{stroke:#000;}.cls-3{stroke-linecap:round;stroke-width:5px;}</style></defs><g id="Layer_1-2"><rect class="cls-2" x="99.6" y="39.52" width="72.13" height="72.13"/><rect class="cls-2" x="171.73" y="39.52" width="72.13" height="72.13"/><rect class="cls-2" x="99.6" y="111.65" width="72.13" height="72.13"/><rect class="cls-2" x="171.73" y="111.65" width="72.13" height="72.13"/><rect class="cls-2" x="99.6" y="183.78" width="72.13" height="72.13"/><rect class="cls-2" x="171.73" y="183.78" width="72.13" height="72.13"/><line class="cls-1" x1="243.86" y1="39.52" x2="99.6" y2="183.78"/><line class="cls-1" x1="243.86" y1="111.65" x2="99.6" y2="255.91"/><line class="cls-1" x1="243.86" y1="183.78" x2="171.73" y2="255.91"/><line class="cls-1" x1="171.73" y1="39.52" x2="99.6" y2="111.65"/><path d="M143.23,7.06c0,1.28-.34,2.42-1.01,3.42-.68,1-1.59,1.78-2.74,2.35,1.34,.58,2.4,1.42,3.18,2.52,.78,1.11,1.17,2.36,1.17,3.76,0,2.22-.75,3.99-2.25,5.31-1.5,1.32-3.47,1.98-5.92,1.98s-4.45-.66-5.94-1.98c-1.49-1.32-2.23-3.09-2.23-5.3,0-1.39,.38-2.64,1.14-3.76,.76-1.12,1.81-1.96,3.15-2.54-1.14-.56-2.04-1.35-2.7-2.35-.66-1-.99-2.13-.99-3.4,0-2.16,.69-3.88,2.08-5.15s3.22-1.91,5.49-1.91,4.08,.64,5.48,1.91,2.09,2.99,2.09,5.15Zm-2.66,11.98c0-1.43-.46-2.6-1.37-3.51-.91-.91-2.1-1.36-3.57-1.36s-2.65,.45-3.54,1.34c-.89,.89-1.33,2.07-1.33,3.53s.43,2.61,1.3,3.44c.86,.84,2.07,1.25,3.61,1.25s2.73-.42,3.6-1.26c.87-.84,1.31-1.98,1.31-3.43Zm-4.9-16.35c-1.28,0-2.32,.4-3.11,1.19-.79,.79-1.19,1.87-1.19,3.24s.39,2.36,1.17,3.17c.78,.81,1.83,1.21,3.13,1.21s2.35-.4,3.13-1.21c.78-.81,1.17-1.86,1.17-3.17s-.41-2.37-1.22-3.19c-.81-.82-1.84-1.23-3.09-1.23Z"/><path d="M124.16,66.67h3.56v2.66h-3.56v5.96h-3.28v-5.96h-11.7v-1.92l11.5-17.8h3.47v17.06Zm-11.27,0h7.99v-12.6l-.39,.71-7.6,11.89Z"/><path d="M159.89,93.14c0,3.82-.65,6.66-1.96,8.52-1.31,1.86-3.35,2.79-6.12,2.79s-4.77-.91-6.09-2.73c-1.32-1.82-2-4.53-2.05-8.14v-4.36c0-3.78,.65-6.58,1.96-8.41,1.3-1.83,3.35-2.75,6.14-2.75s4.8,.89,6.1,2.66c1.3,1.77,1.98,4.5,2.01,8.19v4.23Zm-3.26-4.46c0-2.76-.39-4.78-1.16-6.04-.78-1.26-2.01-1.9-3.69-1.9s-2.89,.63-3.65,1.89c-.76,1.26-1.16,3.19-1.18,5.8v5.22c0,2.78,.4,4.82,1.21,6.15s2.03,1.98,3.66,1.98,2.81-.62,3.59-1.87c.78-1.25,1.19-3.21,1.23-5.89v-5.35Z"/><path d="M193.81,75.3h-3.28v-21.75l-6.58,2.42v-2.96l9.35-3.51h.51v25.81Z"/><path d="M232.6,93.14c0,3.82-.65,6.66-1.96,8.52-1.31,1.86-3.35,2.79-6.12,2.79s-4.77-.91-6.09-2.73c-1.32-1.82-2-4.53-2.05-8.14v-4.36c0-3.78,.65-6.58,1.96-8.41,1.3-1.83,3.35-2.75,6.14-2.75s4.8,.89,6.1,2.66c1.3,1.77,1.98,4.5,2.01,8.19v4.23Zm-3.26-4.46c0-2.76-.39-4.78-1.16-6.04-.78-1.26-2.01-1.9-3.69-1.9s-2.89,.63-3.65,1.89c-.76,1.26-1.16,3.19-1.18,5.8v5.22c0,2.78,.4,4.82,1.21,6.15s2.03,1.98,3.66,1.98,2.81-.62,3.59-1.87c.78-1.25,1.19-3.21,1.23-5.89v-5.35Z"/><path d="M126.49,133.75c0,3.82-.65,6.66-1.96,8.52-1.31,1.86-3.35,2.79-6.12,2.79s-4.77-.91-6.09-2.73c-1.32-1.82-2-4.53-2.05-8.14v-4.36c0-3.78,.65-6.58,1.96-8.41,1.3-1.83,3.35-2.75,6.14-2.75s4.8,.89,6.1,2.66c1.3,1.77,1.98,4.5,2.01,8.19v4.23Zm-3.26-4.46c0-2.76-.39-4.78-1.16-6.04-.78-1.26-2.01-1.9-3.69-1.9s-2.89,.63-3.65,1.89c-.76,1.26-1.16,3.19-1.18,5.8v5.22c0,2.78,.4,4.82,1.21,6.15s2.03,1.98,3.66,1.98,2.81-.62,3.59-1.87c.78-1.25,1.19-3.21,1.23-5.89v-5.35Z"/><path d="M159.36,154.52c0,1.28-.34,2.42-1.01,3.42-.68,1-1.59,1.78-2.74,2.35,1.34,.58,2.4,1.42,3.18,2.52,.78,1.11,1.17,2.36,1.17,3.76,0,2.22-.75,3.99-2.25,5.31-1.5,1.32-3.47,1.98-5.92,1.98s-4.45-.66-5.94-1.98c-1.49-1.32-2.23-3.09-2.23-5.3,0-1.39,.38-2.64,1.14-3.76,.76-1.12,1.81-1.96,3.15-2.54-1.14-.56-2.04-1.35-2.7-2.35-.66-1-.99-2.13-.99-3.4,0-2.16,.69-3.88,2.08-5.15s3.22-1.91,5.49-1.91,4.08,.64,5.48,1.91,2.09,2.99,2.09,5.15Zm-2.66,11.98c0-1.43-.46-2.6-1.37-3.51-.91-.91-2.1-1.36-3.57-1.36s-2.65,.45-3.54,1.34c-.89,.89-1.33,2.07-1.33,3.53s.43,2.61,1.3,3.44c.86,.84,2.07,1.25,3.61,1.25s2.73-.42,3.6-1.26c.87-.84,1.31-1.98,1.31-3.43Zm-4.9-16.35c-1.28,0-2.32,.4-3.11,1.19-.79,.79-1.19,1.87-1.19,3.24s.39,2.36,1.17,3.17c.78,.81,1.83,1.21,3.13,1.21s2.35-.4,3.13-1.21c.78-.81,1.17-1.86,1.17-3.17s-.41-2.37-1.22-3.19c-.81-.82-1.84-1.23-3.09-1.23Z"/><path d="M193.81,144.71h-3.28v-21.75l-6.58,2.42v-2.96l9.35-3.51h.51v25.81Z"/><path d="M233.32,173.5h-16.83v-2.35l8.89-9.88c1.32-1.49,2.23-2.71,2.73-3.64,.5-.94,.75-1.9,.75-2.9,0-1.34-.41-2.44-1.22-3.3-.81-.86-1.89-1.29-3.25-1.29-1.62,0-2.88,.46-3.78,1.38-.9,.92-1.35,2.21-1.35,3.85h-3.26c0-2.36,.76-4.28,2.28-5.73,1.52-1.46,3.56-2.19,6.11-2.19,2.39,0,4.27,.63,5.66,1.88,1.39,1.25,2.08,2.92,2.08,5,0,2.53-1.61,5.54-4.83,9.03l-6.88,7.46h12.9v2.66Z"/><path d="M127.21,217.35h-16.83v-2.35l8.89-9.88c1.32-1.49,2.23-2.71,2.73-3.64,.5-.94,.75-1.9,.75-2.9,0-1.34-.41-2.44-1.22-3.3-.81-.86-1.89-1.29-3.25-1.29-1.62,0-2.88,.46-3.78,1.38-.9,.92-1.35,2.21-1.35,3.85h-3.26c0-2.36,.76-4.28,2.28-5.73,1.52-1.46,3.56-2.19,6.11-2.19,2.39,0,4.27,.63,5.66,1.88,1.39,1.25,2.08,2.92,2.08,5,0,2.53-1.61,5.54-4.83,9.03l-6.88,7.46h12.9v2.66Z"/><path d="M157.56,237.52h3.56v2.66h-3.56v5.96h-3.28v-5.96h-11.7v-1.92l11.5-17.8h3.47v17.06Zm-11.27,0h7.99v-12.6l-.39,.71-7.6,11.89Z"/><path d="M199.19,206.39c0,3.82-.65,6.66-1.96,8.52-1.31,1.86-3.35,2.79-6.12,2.79s-4.77-.91-6.09-2.73c-1.32-1.82-2-4.53-2.05-8.14v-4.36c0-3.78,.65-6.58,1.96-8.41,1.3-1.83,3.35-2.75,6.14-2.75s4.8,.89,6.1,2.66c1.3,1.77,1.98,4.5,2.01,8.19v4.23Zm-3.26-4.46c0-2.76-.39-4.78-1.16-6.04-.78-1.26-2.01-1.9-3.69-1.9s-2.89,.63-3.65,1.89c-.76,1.26-1.16,3.19-1.18,5.8v5.22c0,2.78,.4,4.82,1.21,6.15s2.03,1.98,3.66,1.98,2.81-.62,3.59-1.87c.78-1.25,1.19-3.21,1.23-5.89v-5.35Z"/><path d="M229.3,220.44v2.77h-.6c-2.54,.05-4.56,.8-6.07,2.26-1.5,1.46-2.38,3.51-2.61,6.16,1.35-1.55,3.2-2.33,5.54-2.33s4.02,.79,5.35,2.36c1.33,1.58,2,3.61,2,6.1,0,2.65-.72,4.76-2.16,6.35-1.44,1.59-3.37,2.38-5.79,2.38s-4.45-.94-5.98-2.83c-1.53-1.89-2.29-4.32-2.29-7.29v-1.25c0-4.73,1.01-8.34,3.03-10.84,2.02-2.5,5.02-3.78,9.01-3.84h.58Zm-4.29,11.57c-1.12,0-2.15,.34-3.09,1.01-.94,.67-1.59,1.51-1.96,2.52v1.2c0,2.12,.48,3.82,1.43,5.12,.95,1.29,2.14,1.94,3.56,1.94s2.62-.54,3.47-1.62c.84-1.08,1.26-2.5,1.26-4.25s-.43-3.19-1.28-4.28c-.85-1.09-1.99-1.63-3.4-1.63Z"/><path d="M216.62,26.04h-16.83v-2.35l8.89-9.88c1.32-1.49,2.23-2.71,2.73-3.64,.5-.94,.75-1.9,.75-2.9,0-1.34-.41-2.44-1.22-3.3-.81-.86-1.89-1.29-3.25-1.29-1.62,0-2.88,.46-3.78,1.38-.9,.92-1.35,2.21-1.35,3.85h-3.26c0-2.36,.76-4.28,2.28-5.73,1.52-1.46,3.56-2.19,6.11-2.19,2.39,0,4.27,.63,5.66,1.88,1.39,1.25,2.08,2.92,2.08,5,0,2.53-1.61,5.54-4.83,9.03l-6.88,7.46h12.9v2.66Z"/><path d="M140.46,274.57v2.77h-.6c-2.54,.05-4.56,.8-6.07,2.26-1.5,1.46-2.38,3.51-2.61,6.16,1.35-1.55,3.2-2.33,5.54-2.33s4.02,.79,5.35,2.36c1.33,1.58,2,3.61,2,6.1,0,2.65-.72,4.76-2.16,6.35-1.44,1.59-3.37,2.38-5.79,2.38s-4.45-.94-5.98-2.83c-1.53-1.89-2.29-4.32-2.29-7.29v-1.25c0-4.73,1.01-8.34,3.03-10.84,2.02-2.5,5.02-3.78,9.01-3.84h.58Zm-4.29,11.57c-1.12,0-2.15,.34-3.09,1.01-.94,.67-1.59,1.51-1.96,2.52v1.2c0,2.12,.48,3.82,1.43,5.12,.95,1.29,2.14,1.94,3.56,1.94s2.62-.54,3.47-1.62c.84-1.08,1.26-2.5,1.26-4.25s-.43-3.19-1.28-4.28c-.85-1.09-1.99-1.63-3.4-1.63Z"/><path d="M212.6,274.57v2.77h-.6c-2.54,.05-4.56,.8-6.07,2.26-1.5,1.46-2.38,3.51-2.61,6.16,1.35-1.55,3.2-2.33,5.54-2.33s4.02,.79,5.35,2.36c1.33,1.58,2,3.61,2,6.1,0,2.65-.72,4.76-2.16,6.35-1.44,1.59-3.37,2.38-5.79,2.38s-4.45-.94-5.98-2.83c-1.53-1.89-2.29-4.32-2.29-7.29v-1.25c0-4.73,1.01-8.34,3.03-10.84,2.02-2.5,5.02-3.78,9.01-3.84h.58Zm-4.29,11.57c-1.12,0-2.15,.34-3.09,1.01-.94,.67-1.59,1.51-1.96,2.52v1.2c0,2.12,.48,3.82,1.43,5.12,.95,1.29,2.14,1.94,3.56,1.94s2.62-.54,3.47-1.62c.84-1.08,1.26-2.5,1.26-4.25s-.43-3.19-1.28-4.28c-.85-1.09-1.99-1.63-3.4-1.63Z"/><path d="M262.36,74.23l1.31-12.81h13.16v3.02h-10.39l-.78,7c1.26-.74,2.69-1.11,4.29-1.11,2.34,0,4.2,.77,5.58,2.32,1.38,1.55,2.06,3.64,2.06,6.27s-.71,4.73-2.14,6.25c-1.43,1.52-3.42,2.28-5.99,2.28-2.27,0-4.12-.63-5.56-1.89-1.43-1.26-2.25-3-2.45-5.22h3.09c.2,1.47,.72,2.58,1.57,3.33,.85,.75,1.96,1.12,3.35,1.12,1.52,0,2.71-.52,3.57-1.55,.86-1.03,1.3-2.46,1.3-4.29,0-1.72-.47-3.1-1.4-4.14-.93-1.04-2.18-1.56-3.73-1.56-1.42,0-2.54,.31-3.35,.94l-.86,.71-2.61-.67Z"/><path d="M271.58,159.11h-3.28v-21.75l-6.58,2.42v-2.96l9.35-3.51h.51v25.81Z"/><path d="M265.6,217.32h2.45c1.54-.02,2.75-.43,3.63-1.22,.88-.79,1.32-1.85,1.32-3.19,0-3.01-1.5-4.52-4.5-4.52-1.41,0-2.54,.4-3.38,1.21-.84,.81-1.26,1.87-1.26,3.2h-3.26c0-2.03,.74-3.73,2.23-5.07,1.49-1.35,3.38-2.02,5.67-2.02,2.42,0,4.32,.64,5.7,1.92,1.38,1.28,2.06,3.06,2.06,5.35,0,1.12-.36,2.2-1.08,3.25-.72,1.05-1.71,1.83-2.95,2.35,1.41,.45,2.5,1.19,3.27,2.22,.77,1.04,1.16,2.3,1.16,3.79,0,2.31-.75,4.13-2.26,5.49-1.51,1.35-3.46,2.03-5.88,2.03s-4.37-.65-5.88-1.96c-1.51-1.31-2.27-3.03-2.27-5.17h3.28c0,1.35,.44,2.43,1.32,3.25s2.06,1.22,3.55,1.22c1.58,0,2.78-.41,3.62-1.23,.83-.82,1.25-2.01,1.25-3.55s-.46-2.64-1.38-3.44c-.92-.8-2.24-1.21-3.97-1.23h-2.45v-2.66Z"/><path d="M75.37,78.48h3.56v2.66h-3.56v5.96h-3.28v-5.96h-11.7v-1.92l11.5-17.8h3.47v17.06Zm-11.27,0h7.99v-12.6l-.39,.71-7.6,11.89Z"/><path d="M78.43,159.11h-16.83v-2.35l8.89-9.88c1.32-1.49,2.23-2.71,2.73-3.64,.5-.94,.75-1.9,.75-2.9,0-1.34-.41-2.44-1.22-3.3-.81-.86-1.89-1.29-3.25-1.29-1.62,0-2.88,.46-3.78,1.38-.9,.92-1.35,2.21-1.35,3.85h-3.26c0-2.36,.76-4.28,2.28-5.73,1.52-1.46,3.56-2.19,6.11-2.19,2.39,0,4.27,.63,5.66,1.88,1.39,1.25,2.08,2.92,2.08,5,0,2.53-1.61,5.54-4.83,9.03l-6.88,7.46h12.9v2.66Z"/><path d="M77.7,220.79c0,3.82-.65,6.66-1.96,8.52-1.31,1.86-3.35,2.79-6.12,2.79s-4.77-.91-6.09-2.73c-1.32-1.82-2-4.53-2.05-8.14v-4.36c0-3.78,.65-6.58,1.96-8.41,1.3-1.83,3.35-2.75,6.14-2.75s4.8,.89,6.1,2.66c1.3,1.77,1.98,4.5,2.01,8.19v4.23Zm-3.26-4.46c0-2.76-.39-4.78-1.16-6.04-.78-1.26-2.01-1.9-3.69-1.9s-2.89,.63-3.65,1.89c-.76,1.26-1.16,3.19-1.18,5.8v5.22c0,2.78,.4,4.82,1.21,6.15s2.03,1.98,3.66,1.98,2.81-.62,3.59-1.87c.78-1.25,1.19-3.21,1.23-5.89v-5.35Z"/><g><line class="cls-3" x1="10.16" y1="75.3" x2="10.16" y2="216.86"/><polygon points="10.16 234.51 0 209.64 10.16 215.54 20.32 209.64 10.16 234.51"/></g><g><line class="cls-3" x1="93.96" y1="328.04" x2="235.52" y2="328.04"/><polygon points="253.18 328.04 228.3 338.21 234.2 328.04 228.3 317.88 253.18 328.04"/></g></g></svg>