<?xml version="1.0" encoding="utf-8"?>
<!-- Generator: Adobe Illustrator 26.3.1, SVG Export Plug-In . SVG Version: 6.00 Build 0)  -->
<svg version="1.1" id="Layer_2_00000013169391548625218600000016315632409614158753_"
	 xmlns="http://www.w3.org/2000/svg" xmlns:xlink="http://www.w3.org/1999/xlink" x="0px" y="0px" viewBox="0 0 190.8 273.9"
	 style="enable-background:new 0 0 190.8 273.9;" xml:space="preserve">
<style type="text/css">
	.st0{fill:none;stroke:#000000;stroke-miterlimit:10;}
	.st1{fill:none;stroke:#FF0000;stroke-width:2;stroke-linecap:round;stroke-miterlimit:10;}
</style>
<g id="Layer_1-2">
	<rect x="1" y="42.1" class="st0" width="76.9" height="76.9"/>
	<rect x="77.9" y="42.1" class="st0" width="76.9" height="76.9"/>
	<rect x="1" y="119.1" class="st0" width="76.9" height="76.9"/>
	<rect x="77.9" y="119.1" class="st0" width="76.9" height="76.9"/>
	<rect x="1" y="196" class="st0" width="76.9" height="76.9"/>
	<rect x="77.9" y="196" class="st0" width="76.9" height="76.9"/>
	<line class="st1" x1="154.9" y1="42.1" x2="1" y2="196"/>
	<line class="st1" x1="154.9" y1="119.1" x2="1" y2="272.9"/>
	<line class="st1" x1="154.9" y1="196" x2="77.9" y2="272.9"/>
	<line class="st1" x1="77.9" y1="42.1" x2="1" y2="119.1"/>
	<path d="M47.5,7.5c0,1.4-0.4,2.6-1.1,3.7s-1.7,1.9-2.9,2.5c1.4,0.6,2.6,1.5,3.4,2.7c0.8,1.2,1.2,2.5,1.2,4c0,2.4-0.8,4.3-2.4,5.7
		c-1.6,1.4-3.7,2.1-6.3,2.1s-4.7-0.7-6.3-2.1c-1.6-1.4-2.4-3.3-2.4-5.6c0-1.5,0.4-2.8,1.2-4c0.8-1.2,1.9-2.1,3.4-2.7
		c-1.2-0.6-2.2-1.4-2.9-2.5c-0.7-1.1-1-2.3-1-3.6c0-2.3,0.7-4.1,2.2-5.5s3.4-2,5.8-2s4.4,0.7,5.8,2C46.8,3.4,47.5,5.2,47.5,7.5z
		 M44.7,20.3c0-1.5-0.5-2.8-1.5-3.7c-1-1-2.2-1.4-3.8-1.4s-2.8,0.5-3.8,1.4c-1,1-1.4,2.2-1.4,3.8s0.5,2.8,1.4,3.7
		c0.9,0.9,2.2,1.3,3.8,1.3s2.9-0.5,3.8-1.4S44.7,21.8,44.7,20.3z M39.5,2.9c-1.4,0-2.5,0.4-3.3,1.3s-1.3,2-1.3,3.4s0.4,2.5,1.2,3.4
		s2,1.3,3.3,1.3s2.5-0.4,3.3-1.3S44,9,44,7.6s-0.4-2.5-1.3-3.4S40.8,2.8,39.5,2.9L39.5,2.9z"/>
	<path d="M27.2,71.1H31v2.8h-3.8v6.4h-3.5v-6.4H11.2v-2.1l12.3-19h3.7L27.2,71.1L27.2,71.1z M15.2,71.1h8.5V57.7l-0.4,0.8
		C23.3,58.4,15.2,71.1,15.2,71.1z"/>
	<path d="M65.3,99.3c0,4.1-0.7,7.1-2.1,9.1c-1.4,2-3.6,3-6.5,3s-5.1-1-6.5-2.9s-2.1-4.8-2.2-8.7v-4.7c0-4,0.7-7,2.1-9
		c1.4-2,3.6-2.9,6.5-2.9s5.1,0.9,6.5,2.8c1.4,1.9,2.1,4.8,2.1,8.7V99.3L65.3,99.3z M61.8,94.6c0-2.9-0.4-5.1-1.2-6.4
		c-0.8-1.3-2.1-2-3.9-2s-3.1,0.7-3.9,2c-0.8,1.3-1.2,3.4-1.3,6.2v5.6c0,3,0.4,5.2,1.3,6.6c0.9,1.4,2.2,2.1,3.9,2.1s3-0.7,3.8-2
		c0.8-1.3,1.3-3.4,1.3-6.3L61.8,94.6L61.8,94.6z"/>
	<path d="M101.5,80.3H98V57.1l-7,2.6v-3.2l10-3.7h0.6C101.5,52.8,101.5,80.3,101.5,80.3z"/>
	<path d="M142.8,99.3c0,4.1-0.7,7.1-2.1,9.1s-3.6,3-6.5,3s-5.1-1-6.5-2.9s-2.1-4.8-2.2-8.7v-4.7c0-4,0.7-7,2.1-9
		c1.4-2,3.6-2.9,6.6-2.9s5.1,0.9,6.5,2.8s2.1,4.8,2.1,8.7V99.3L142.8,99.3z M139.4,94.6c0-2.9-0.4-5.1-1.2-6.4c-0.8-1.3-2.1-2-3.9-2
		s-3.1,0.7-3.9,2c-0.8,1.3-1.2,3.4-1.3,6.2v5.6c0,3,0.4,5.2,1.3,6.6c0.9,1.4,2.2,2.1,3.9,2.1s3-0.7,3.8-2c0.8-1.3,1.3-3.4,1.3-6.3
		L139.4,94.6L139.4,94.6z"/>
	<path d="M29.7,142.6c0,4.1-0.7,7.1-2.1,9.1s-3.6,3-6.5,3s-5.1-1-6.5-2.9s-2.1-4.8-2.2-8.7v-4.6c0-4,0.7-7,2.1-9
		c1.4-2,3.6-2.9,6.6-2.9s5.1,0.9,6.5,2.8c1.4,1.9,2.1,4.8,2.1,8.7V142.6L29.7,142.6z M26.2,137.9c0-2.9-0.4-5.1-1.2-6.4
		c-0.8-1.4-2.1-2-3.9-2s-3.1,0.7-3.9,2c-0.8,1.3-1.2,3.4-1.3,6.2v5.6c0,3,0.4,5.1,1.3,6.6c0.9,1.4,2.2,2.1,3.9,2.1s3-0.7,3.8-2
		c0.8-1.3,1.3-3.4,1.3-6.3L26.2,137.9L26.2,137.9z"/>
	<path d="M107.2,142.6c0,4.1-0.7,7.1-2.1,9.1s-3.6,3-6.5,3s-5.1-1-6.5-2.9s-2.1-4.8-2.2-8.7v-4.6c0-4,0.7-7,2.1-9
		c1.4-2,3.6-2.9,6.5-2.9c3,0,5.1,0.9,6.5,2.8c1.4,1.9,2.1,4.8,2.1,8.7V142.6L107.2,142.6z M103.7,137.9c0-2.9-0.4-5.1-1.2-6.4
		c-0.8-1.4-2.1-2-3.9-2s-3.1,0.7-3.9,2c-0.8,1.3-1.2,3.4-1.3,6.2v5.6c0,3,0.4,5.1,1.3,6.6c0.9,1.4,2.2,2.1,3.9,2.1s3-0.7,3.8-2
		c0.8-1.3,1.3-3.4,1.3-6.3L103.7,137.9L103.7,137.9z"/>
	<path d="M64.7,164.8c0,1.4-0.4,2.6-1.1,3.6c-0.7,1.1-1.7,1.9-2.9,2.5c1.4,0.6,2.6,1.5,3.4,2.7c0.8,1.2,1.2,2.5,1.2,4
		c0,2.4-0.8,4.3-2.4,5.7c-1.6,1.4-3.7,2.1-6.3,2.1s-4.7-0.7-6.3-2.1c-1.6-1.4-2.4-3.3-2.4-5.6c0-1.5,0.4-2.8,1.2-4
		c0.8-1.2,1.9-2.1,3.4-2.7c-1.2-0.6-2.2-1.4-2.9-2.5c-0.7-1.1-1-2.3-1-3.6c0-2.3,0.7-4.1,2.2-5.5s3.4-2,5.8-2s4.4,0.7,5.8,2
		C64,160.6,64.7,162.5,64.7,164.8z M61.9,177.6c0-1.5-0.5-2.8-1.5-3.7c-1-1-2.2-1.4-3.8-1.4s-2.8,0.5-3.8,1.4
		c-1,0.9-1.4,2.2-1.4,3.8s0.5,2.8,1.4,3.7c0.9,0.9,2.2,1.3,3.8,1.3s2.9-0.4,3.8-1.4C61.4,180.3,61.9,179.1,61.9,177.6L61.9,177.6z
		 M56.7,160.1c-1.4,0-2.5,0.4-3.3,1.3s-1.3,2-1.3,3.4s0.4,2.5,1.2,3.4s2,1.3,3.3,1.3s2.5-0.4,3.3-1.3s1.2-2,1.2-3.4
		s-0.4-2.5-1.3-3.4S58,160.1,56.7,160.1L56.7,160.1z"/>
	<path d="M143.6,185h-17.9v-2.5l9.5-10.5c1.4-1.6,2.4-2.9,2.9-3.9c0.5-1,0.8-2,0.8-3.1c0-1.4-0.4-2.6-1.3-3.5
		c-0.9-0.9-2-1.4-3.5-1.4c-1.7,0-3.1,0.5-4,1.5c-1,1-1.4,2.4-1.4,4.1h-3.5c0-2.5,0.8-4.6,2.4-6.1c1.6-1.6,3.8-2.3,6.5-2.3
		c2.6,0,4.6,0.7,6,2c1.5,1.3,2.2,3.1,2.2,5.3c0,2.7-1.7,5.9-5.2,9.6l-7.3,8h13.8L143.6,185L143.6,185z"/>
	<path d="M30.5,231.8h-18v-2.5l9.5-10.5c1.4-1.6,2.4-2.9,2.9-3.9c0.5-1,0.8-2,0.8-3.1c0-1.4-0.4-2.6-1.3-3.5c-0.9-0.9-2-1.4-3.5-1.4
		c-1.7,0-3.1,0.5-4,1.5c-1,1-1.4,2.4-1.4,4.1H12c0-2.5,0.8-4.6,2.4-6.1c1.6-1.6,3.8-2.3,6.5-2.3c2.5,0,4.6,0.7,6,2
		c1.5,1.3,2.2,3.1,2.2,5.3c0,2.7-1.7,5.9-5.2,9.6l-7.3,8h13.8L30.5,231.8L30.5,231.8z"/>
	<path d="M62.8,253.3h3.8v2.8h-3.8v6.4h-3.5v-6.4H46.8v-2.1l12.3-19h3.7L62.8,253.3L62.8,253.3z M50.8,253.3h8.5v-13.4l-0.4,0.8
		L50.8,253.3L50.8,253.3z"/>
	<path d="M107.2,220.1c0,4.1-0.7,7.1-2.1,9.1s-3.6,3-6.5,3s-5.1-1-6.5-2.9c-1.4-1.9-2.1-4.8-2.2-8.7v-4.6c0-4,0.7-7,2.1-9
		c1.4-2,3.6-2.9,6.6-2.9s5.1,0.9,6.5,2.8s2.1,4.8,2.1,8.7L107.2,220.1L107.2,220.1z M103.7,215.4c0-2.9-0.4-5.1-1.2-6.4
		c-0.8-1.4-2.1-2-3.9-2s-3.1,0.7-3.9,2c-0.8,1.3-1.2,3.4-1.3,6.2v5.6c0,3,0.4,5.1,1.3,6.6s2.2,2.1,3.9,2.1s3-0.7,3.8-2
		c0.8-1.3,1.3-3.4,1.3-6.3L103.7,215.4L103.7,215.4z"/>
	<path d="M139.3,235.1v2.9h-0.6c-2.7,0.1-4.9,0.9-6.5,2.4c-1.6,1.6-2.5,3.7-2.8,6.6c1.4-1.7,3.4-2.5,5.9-2.5s4.3,0.8,5.7,2.5
		c1.4,1.7,2.1,3.9,2.1,6.5c0,2.8-0.8,5.1-2.3,6.8c-1.5,1.7-3.6,2.5-6.2,2.5s-4.8-1-6.4-3c-1.6-2-2.4-4.6-2.4-7.8v-1.3
		c0-5,1.1-8.9,3.2-11.6c2.1-2.7,5.4-4,9.6-4.1L139.3,235.1L139.3,235.1z M134.7,247.4c-1.2,0-2.3,0.4-3.3,1.1s-1.7,1.6-2.1,2.7v1.3
		c0,2.3,0.5,4.1,1.5,5.5c1,1.4,2.3,2.1,3.8,2.1s2.8-0.6,3.7-1.7c0.9-1.1,1.3-2.7,1.3-4.5s-0.4-3.4-1.4-4.6S136.2,247.4,134.7,247.4
		L134.7,247.4z"/>
	<path d="M125.8,27.8h-18v-2.5l9.5-10.5c1.4-1.6,2.4-2.9,2.9-3.9c0.5-1,0.8-2,0.8-3.1c0-1.4-0.4-2.6-1.3-3.5s-2-1.4-3.5-1.4
		c-1.7,0-3.1,0.5-4,1.5c-1,1-1.4,2.3-1.4,4.1h-3.5c0-2.5,0.8-4.6,2.4-6.1c1.6-1.5,3.8-2.3,6.5-2.3c2.6,0,4.6,0.7,6,2
		c1.5,1.3,2.2,3.1,2.2,5.3c0,2.7-1.7,5.9-5.2,9.6l-7.3,8h13.8L125.8,27.8L125.8,27.8z"/>
	<path d="M174.6,79.2l1.4-13.7h14v3.2h-11.1l-0.8,7.5c1.3-0.8,2.9-1.2,4.6-1.2c2.5,0,4.5,0.8,5.9,2.5s2.2,3.9,2.2,6.7
		s-0.8,5.1-2.3,6.7c-1.5,1.6-3.6,2.4-6.4,2.4c-2.4,0-4.4-0.7-5.9-2c-1.5-1.3-2.4-3.2-2.6-5.6h3.3c0.2,1.6,0.8,2.8,1.7,3.6
		s2.1,1.2,3.6,1.2c1.6,0,2.9-0.6,3.8-1.7c0.9-1.1,1.4-2.6,1.4-4.6c0-1.8-0.5-3.3-1.5-4.4c-1-1.1-2.3-1.7-4-1.7c-1.5,0-2.7,0.3-3.6,1
		l-0.9,0.8L174.6,79.2L174.6,79.2z"/>
	<path d="M184.4,169.7h-3.5v-23.2l-7,2.6v-3.2l10-3.7h0.6V169.7z"/>
	<path d="M178,231.8h2.6c1.6,0,2.9-0.5,3.9-1.3c0.9-0.8,1.4-2,1.4-3.4c0-3.2-1.6-4.8-4.8-4.8c-1.5,0-2.7,0.4-3.6,1.3s-1.3,2-1.3,3.4
		h-3.5c0-2.2,0.8-4,2.4-5.4c1.6-1.4,3.6-2.1,6.1-2.1c2.6,0,4.6,0.7,6.1,2.1c1.5,1.4,2.2,3.3,2.2,5.7c0,1.2-0.4,2.4-1.2,3.5
		c-0.8,1.1-1.8,1.9-3.1,2.5c1.5,0.5,2.7,1.3,3.5,2.4c0.8,1.1,1.2,2.4,1.2,4c0,2.5-0.8,4.4-2.4,5.9s-3.7,2.2-6.3,2.2
		s-4.7-0.7-6.3-2.1s-2.4-3.2-2.4-5.5h3.5c0,1.4,0.5,2.6,1.4,3.5s2.2,1.3,3.8,1.3c1.7,0,3-0.4,3.9-1.3s1.3-2.1,1.3-3.8
		s-0.5-2.8-1.5-3.7c-1-0.9-2.4-1.3-4.2-1.3h-2.6L178,231.8L178,231.8z"/>
</g>
</svg>
