<?xml version="1.0" encoding="UTF-8"?><svg id="Layer_2" xmlns="http://www.w3.org/2000/svg" viewBox="0 0 190.81 273.92"><defs><style>.cls-1{stroke:red;stroke-linecap:round;stroke-width:2px;}.cls-1,.cls-2{fill:none;stroke-miterlimit:10;}.cls-2{stroke:#000;}</style></defs><g id="Layer_1-2"><rect class="cls-2" x="1" y="42.14" width="76.92" height="76.92"/><rect class="cls-2" x="77.92" y="42.14" width="76.92" height="76.92"/><rect class="cls-2" x="1" y="119.07" width="76.92" height="76.92"/><rect class="cls-2" x="77.92" y="119.07" width="76.92" height="76.92"/><rect class="cls-2" x="1" y="195.99" width="76.92" height="76.92"/><rect class="cls-2" x="77.92" y="195.99" width="76.92" height="76.92"/><line class="cls-1" x1="154.85" y1="42.14" x2="1" y2="195.99"/><line class="cls-1" x1="154.85" y1="119.07" x2="1" y2="272.92"/><line class="cls-1" x1="154.85" y1="195.99" x2="77.92" y2="272.92"/><line class="cls-1" x1="77.92" y1="42.14" x2="1" y2="119.07"/><path d="M47.53,7.53c0,1.37-.36,2.58-1.08,3.65-.72,1.07-1.7,1.9-2.93,2.5,1.43,.61,2.56,1.51,3.4,2.69,.83,1.18,1.25,2.51,1.25,4.01,0,2.37-.8,4.26-2.4,5.66-1.6,1.41-3.7,2.11-6.31,2.11s-4.74-.71-6.33-2.12c-1.59-1.41-2.38-3.3-2.38-5.65,0-1.48,.4-2.82,1.21-4.01,.81-1.19,1.93-2.09,3.36-2.71-1.22-.6-2.18-1.44-2.88-2.5-.7-1.07-1.05-2.28-1.05-3.63,0-2.31,.74-4.14,2.22-5.49,1.48-1.35,3.43-2.03,5.85-2.03s4.36,.68,5.84,2.03c1.49,1.35,2.23,3.19,2.23,5.49Zm-2.84,12.77c0-1.53-.49-2.78-1.46-3.74-.97-.97-2.24-1.45-3.81-1.45s-2.83,.48-3.77,1.43c-.95,.95-1.42,2.21-1.42,3.76s.46,2.78,1.38,3.67c.92,.89,2.2,1.34,3.85,1.34s2.91-.45,3.84-1.35c.93-.9,1.39-2.12,1.39-3.66ZM39.46,2.86c-1.37,0-2.47,.42-3.32,1.27-.85,.85-1.27,2-1.27,3.45s.42,2.52,1.25,3.38c.83,.86,1.95,1.29,3.34,1.29s2.51-.43,3.34-1.29c.83-.86,1.25-1.98,1.25-3.38s-.43-2.53-1.3-3.41c-.87-.88-1.96-1.32-3.29-1.32Z"/><path d="M27.19,71.1h3.8v2.84h-3.8v6.36h-3.5v-6.36H11.22v-2.05l12.27-18.98h3.71v18.19Zm-12.02,0h8.52v-13.43l-.41,.75-8.11,12.68Z"/><path d="M65.29,99.32c0,4.08-.7,7.11-2.09,9.09-1.39,1.98-3.57,2.97-6.53,2.97s-5.09-.97-6.49-2.91c-1.4-1.94-2.13-4.83-2.18-8.68v-4.65c0-4.03,.7-7.02,2.09-8.97,1.39-1.96,3.57-2.93,6.55-2.93s5.12,.94,6.51,2.83c1.39,1.89,2.11,4.8,2.14,8.74v4.52Zm-3.48-4.76c0-2.95-.41-5.1-1.24-6.44-.83-1.35-2.14-2.02-3.93-2.02s-3.08,.67-3.89,2.01c-.82,1.34-1.24,3.41-1.26,6.19v5.57c0,2.96,.43,5.15,1.29,6.56,.86,1.41,2.16,2.12,3.9,2.12s2.99-.66,3.83-1.99c.83-1.33,1.27-3.42,1.31-6.28v-5.7Z"/><path d="M101.48,80.3h-3.5v-23.2l-7.02,2.58v-3.16l9.97-3.74h.55v27.52Z"/><path d="M142.83,99.32c0,4.08-.7,7.11-2.09,9.09-1.39,1.98-3.57,2.97-6.53,2.97s-5.09-.97-6.49-2.91c-1.4-1.94-2.13-4.83-2.18-8.68v-4.65c0-4.03,.7-7.02,2.09-8.97,1.39-1.96,3.57-2.93,6.55-2.93s5.12,.94,6.51,2.83c1.39,1.89,2.11,4.8,2.14,8.74v4.52Zm-3.48-4.76c0-2.95-.41-5.1-1.24-6.44-.83-1.35-2.14-2.02-3.93-2.02s-3.08,.67-3.89,2.01c-.82,1.34-1.24,3.41-1.26,6.19v5.57c0,2.96,.43,5.15,1.29,6.56,.86,1.41,2.16,2.12,3.9,2.12s2.99-.66,3.83-1.99c.83-1.33,1.27-3.42,1.31-6.28v-5.7Z"/><path d="M29.67,142.64c0,4.08-.7,7.11-2.09,9.09-1.39,1.98-3.57,2.97-6.53,2.97s-5.09-.97-6.49-2.91c-1.4-1.94-2.13-4.83-2.18-8.68v-4.65c0-4.03,.7-7.02,2.09-8.97,1.39-1.96,3.57-2.93,6.55-2.93s5.12,.94,6.51,2.83c1.39,1.89,2.11,4.8,2.14,8.74v4.52Zm-3.48-4.76c0-2.95-.41-5.1-1.24-6.44-.83-1.35-2.14-2.02-3.93-2.02s-3.08,.67-3.89,2.01c-.82,1.34-1.24,3.41-1.26,6.19v5.57c0,2.96,.43,5.15,1.29,6.56,.86,1.41,2.16,2.12,3.9,2.12s2.99-.66,3.83-1.99c.83-1.33,1.27-3.42,1.31-6.28v-5.7Z"/><path d="M64.73,164.79c0,1.37-.36,2.58-1.08,3.65-.72,1.07-1.7,1.9-2.93,2.5,1.43,.61,2.56,1.51,3.4,2.69,.83,1.18,1.25,2.51,1.25,4.01,0,2.37-.8,4.26-2.4,5.66-1.6,1.41-3.7,2.11-6.31,2.11s-4.74-.71-6.33-2.12c-1.59-1.41-2.38-3.3-2.38-5.65,0-1.48,.4-2.82,1.21-4.01,.81-1.19,1.93-2.09,3.36-2.71-1.22-.6-2.18-1.44-2.88-2.5-.7-1.07-1.05-2.28-1.05-3.63,0-2.31,.74-4.14,2.22-5.49,1.48-1.35,3.43-2.03,5.85-2.03s4.36,.68,5.84,2.03c1.49,1.35,2.23,3.19,2.23,5.49Zm-2.84,12.77c0-1.53-.49-2.78-1.46-3.74-.97-.97-2.24-1.45-3.81-1.45s-2.83,.48-3.77,1.43c-.95,.95-1.42,2.21-1.42,3.76s.46,2.78,1.38,3.67c.92,.89,2.2,1.34,3.85,1.34s2.91-.45,3.84-1.35c.93-.9,1.39-2.12,1.39-3.66Zm-5.23-17.44c-1.37,0-2.47,.42-3.32,1.27-.85,.85-1.27,2-1.27,3.45s.42,2.52,1.25,3.38c.83,.86,1.95,1.29,3.34,1.29s2.51-.43,3.34-1.29c.83-.86,1.25-1.98,1.25-3.38s-.43-2.53-1.3-3.41c-.87-.88-1.96-1.32-3.29-1.32Z"/><path d="M101.48,154.32h-3.5v-23.2l-7.02,2.58v-3.16l9.97-3.74h.55v27.52Z"/><path d="M143.6,185.03h-17.95v-2.5l9.48-10.54c1.4-1.59,2.37-2.89,2.91-3.89,.53-1,.8-2.03,.8-3.09,0-1.43-.43-2.6-1.3-3.52-.87-.92-2.02-1.37-3.46-1.37-1.73,0-3.08,.49-4.04,1.48-.96,.98-1.44,2.35-1.44,4.11h-3.48c0-2.52,.81-4.56,2.44-6.11,1.62-1.55,3.8-2.33,6.52-2.33,2.55,0,4.56,.67,6.04,2,1.48,1.34,2.22,3.11,2.22,5.33,0,2.7-1.72,5.91-5.16,9.63l-7.34,7.96h13.75v2.84Z"/><path d="M30.45,231.79H12.5v-2.5l9.48-10.54c1.4-1.59,2.37-2.89,2.91-3.89,.53-1,.8-2.03,.8-3.09,0-1.43-.43-2.6-1.3-3.52-.87-.92-2.02-1.37-3.46-1.37-1.73,0-3.08,.49-4.04,1.48-.96,.98-1.44,2.35-1.44,4.11h-3.48c0-2.52,.81-4.56,2.44-6.11,1.62-1.55,3.8-2.33,6.52-2.33,2.55,0,4.56,.67,6.04,2,1.48,1.34,2.22,3.11,2.22,5.33,0,2.7-1.72,5.91-5.16,9.63l-7.34,7.96h13.75v2.84Z"/><path d="M62.81,253.3h3.8v2.84h-3.8v6.36h-3.5v-6.36h-12.47v-2.05l12.27-18.98h3.71v18.19Zm-12.02,0h8.52v-13.43l-.41,.75-8.11,12.68Z"/><path d="M107.21,220.11c0,4.08-.7,7.11-2.09,9.09-1.39,1.98-3.57,2.97-6.53,2.97s-5.09-.97-6.49-2.91c-1.4-1.94-2.13-4.83-2.18-8.68v-4.65c0-4.03,.7-7.02,2.09-8.97,1.39-1.96,3.57-2.93,6.55-2.93s5.12,.94,6.51,2.83c1.39,1.89,2.11,4.8,2.14,8.74v4.52Zm-3.48-4.76c0-2.95-.41-5.1-1.24-6.44-.83-1.35-2.14-2.02-3.93-2.02s-3.08,.67-3.89,2.01c-.82,1.34-1.24,3.41-1.26,6.19v5.57c0,2.96,.43,5.15,1.29,6.56,.86,1.41,2.16,2.12,3.9,2.12s2.99-.66,3.83-1.99c.83-1.33,1.27-3.42,1.31-6.28v-5.7Z"/><path d="M139.31,235.09v2.95h-.64c-2.71,.05-4.87,.85-6.47,2.41-1.61,1.56-2.53,3.74-2.78,6.57,1.44-1.66,3.41-2.48,5.91-2.48s4.29,.84,5.71,2.52c1.42,1.68,2.14,3.85,2.14,6.51,0,2.82-.77,5.08-2.3,6.77-1.54,1.69-3.6,2.54-6.18,2.54s-4.75-1.01-6.38-3.02c-1.63-2.01-2.45-4.61-2.45-7.78v-1.34c0-5.04,1.08-8.9,3.23-11.56,2.15-2.67,5.35-4.03,9.6-4.09h.62Zm-4.57,12.34c-1.19,0-2.29,.36-3.29,1.07-1,.71-1.7,1.61-2.09,2.69v1.28c0,2.26,.51,4.08,1.52,5.46,1.02,1.38,2.28,2.07,3.8,2.07s2.8-.58,3.7-1.73c.9-1.15,1.34-2.67,1.34-4.53s-.45-3.4-1.36-4.56c-.91-1.16-2.12-1.74-3.62-1.74Z"/><path d="M125.79,27.77h-17.95v-2.5l9.48-10.54c1.4-1.59,2.37-2.89,2.91-3.89,.53-1,.8-2.03,.8-3.09,0-1.43-.43-2.6-1.3-3.52-.87-.92-2.02-1.37-3.46-1.37-1.73,0-3.08,.49-4.04,1.48-.96,.98-1.44,2.35-1.44,4.11h-3.48c0-2.52,.81-4.56,2.44-6.11,1.62-1.55,3.8-2.33,6.52-2.33,2.55,0,4.56,.67,6.04,2,1.48,1.34,2.22,3.11,2.22,5.33,0,2.7-1.72,5.91-5.16,9.63l-7.34,7.96h13.75v2.84Z"/><path d="M174.57,79.16l1.39-13.66h14.03v3.22h-11.08l-.83,7.47c1.34-.79,2.87-1.19,4.57-1.19,2.5,0,4.48,.82,5.95,2.47,1.47,1.65,2.2,3.88,2.2,6.69s-.76,5.05-2.29,6.67c-1.52,1.62-3.65,2.44-6.39,2.44-2.42,0-4.4-.67-5.93-2.01-1.53-1.34-2.4-3.2-2.62-5.57h3.29c.21,1.57,.77,2.75,1.67,3.55,.9,.8,2.09,1.19,3.57,1.19,1.62,0,2.89-.55,3.81-1.66,.92-1.1,1.38-2.63,1.38-4.57,0-1.83-.5-3.3-1.5-4.41-1-1.11-2.32-1.66-3.98-1.66-1.52,0-2.71,.33-3.57,1l-.92,.75-2.78-.71Z"/><path d="M184.41,169.68h-3.5v-23.2l-7.02,2.58v-3.16l9.97-3.74h.55v27.52Z"/><path d="M178.03,231.75h2.61c1.64-.03,2.93-.46,3.88-1.3,.94-.84,1.41-1.98,1.41-3.41,0-3.21-1.6-4.82-4.8-4.82-1.5,0-2.71,.43-3.6,1.29s-1.34,2-1.34,3.41h-3.48c0-2.17,.79-3.97,2.38-5.41,1.59-1.44,3.6-2.15,6.05-2.15,2.58,0,4.61,.68,6.08,2.05,1.47,1.37,2.2,3.27,2.2,5.7,0,1.19-.39,2.35-1.16,3.46-.77,1.12-1.82,1.95-3.15,2.5,1.51,.48,2.67,1.27,3.49,2.37,.82,1.1,1.23,2.45,1.23,4.04,0,2.46-.8,4.41-2.41,5.85-1.61,1.44-3.69,2.16-6.26,2.16s-4.66-.7-6.27-2.09c-1.61-1.39-2.42-3.23-2.42-5.51h3.5c0,1.44,.47,2.6,1.41,3.46s2.2,1.3,3.78,1.3c1.68,0,2.97-.44,3.86-1.32,.89-.88,1.34-2.14,1.34-3.78s-.49-2.82-1.47-3.67c-.98-.85-2.39-1.29-4.23-1.32h-2.61v-2.84Z"/></g></svg>