<?xml version="1.0" encoding="utf-8"?>
<!-- Generator: Adobe Illustrator 26.3.1, SVG Export Plug-In . SVG Version: 6.00 Build 0)  -->
<svg version="1.1" id="Layer_2_00000002355349510569378070000015246682962366376610_"
	 xmlns="http://www.w3.org/2000/svg" xmlns:xlink="http://www.w3.org/1999/xlink" x="0px" y="0px" viewBox="0 0 277.6 338.2"
	 style="enable-background:new 0 0 277.6 338.2;" xml:space="preserve">
<style type="text/css">
	.st0{fill:none;stroke:#000000;stroke-miterlimit:10;}
	.st1{fill:none;stroke:#FF0000;stroke-width:2;stroke-miterlimit:10;}
	.st2{fill:none;stroke:#000000;stroke-width:5;stroke-linecap:round;stroke-miterlimit:10;}
</style>
<g id="Layer_1-2">
	<rect x="99.6" y="39.5" class="st0" width="72.1" height="72.1"/>
	<rect x="171.7" y="39.5" class="st0" width="72.1" height="72.1"/>
	<rect x="99.6" y="111.7" class="st0" width="72.1" height="72.1"/>
	<rect x="171.7" y="111.7" class="st0" width="72.1" height="72.1"/>
	<rect x="99.6" y="183.8" class="st0" width="72.1" height="72.1"/>
	<rect x="171.7" y="183.8" class="st0" width="72.1" height="72.1"/>
	<line class="st1" x1="243.9" y1="39.5" x2="99.6" y2="183.8"/>
	<line class="st1" x1="243.9" y1="111.7" x2="99.6" y2="255.9"/>
	<line class="st1" x1="243.9" y1="183.8" x2="171.7" y2="255.9"/>
	<line class="st1" x1="171.7" y1="39.5" x2="99.6" y2="111.7"/>
	<path d="M143.2,7.1c0,1.3-0.3,2.4-1,3.4c-0.7,1-1.6,1.8-2.7,2.4c1.3,0.6,2.4,1.4,3.2,2.5c0.8,1.1,1.2,2.4,1.2,3.8
		c0,2.2-0.8,4-2.2,5.3s-3.5,2-5.9,2s-4.4-0.7-5.9-2s-2.2-3.1-2.2-5.3c0-1.4,0.4-2.6,1.1-3.8c0.8-1.1,1.8-2,3.1-2.5
		c-1.1-0.6-2-1.4-2.7-2.3s-1-2.1-1-3.4c0-2.2,0.7-3.9,2.1-5.2s3.2-1.9,5.5-1.9s4.1,0.6,5.5,1.9S143.2,4.9,143.2,7.1L143.2,7.1z
		 M140.6,19c0-1.4-0.5-2.6-1.4-3.5c-0.9-0.9-2.1-1.4-3.6-1.4s-2.6,0.4-3.5,1.3s-1.3,2.1-1.3,3.5s0.4,2.6,1.3,3.4
		c0.9,0.8,2.1,1.2,3.6,1.2s2.7-0.4,3.6-1.3C140.1,21.6,140.6,20.5,140.6,19L140.6,19z M135.7,2.7c-1.3,0-2.3,0.4-3.1,1.2
		s-1.2,1.9-1.2,3.2s0.4,2.4,1.2,3.2s1.8,1.2,3.1,1.2s2.4-0.4,3.1-1.2s1.2-1.9,1.2-3.2s-0.4-2.4-1.2-3.2S136.9,2.7,135.7,2.7
		L135.7,2.7z"/>
	<path d="M124.2,66.7h3.6v2.7h-3.6v6h-3.3v-6h-11.7v-1.9l11.5-17.8h3.5L124.2,66.7L124.2,66.7z M112.9,66.7h8V54.1l-0.4,0.7
		L112.9,66.7z"/>
	<path d="M159.9,93.1c0,3.8-0.6,6.7-2,8.5c-1.3,1.9-3.4,2.8-6.1,2.8s-4.8-0.9-6.1-2.7c-1.3-1.8-2-4.5-2.1-8.1v-4.4
		c0-3.8,0.6-6.6,2-8.4c1.3-1.8,3.4-2.8,6.1-2.8s4.8,0.9,6.1,2.7c1.3,1.8,2,4.5,2,8.2L159.9,93.1L159.9,93.1z M156.6,88.7
		c0-2.8-0.4-4.8-1.2-6c-0.8-1.3-2-1.9-3.7-1.9s-2.9,0.6-3.6,1.9s-1.2,3.2-1.2,5.8v5.2c0,2.8,0.4,4.8,1.2,6.2s2,2,3.7,2
		s2.8-0.6,3.6-1.9s1.2-3.2,1.2-5.9L156.6,88.7L156.6,88.7z"/>
	<path d="M193.8,75.3h-3.3V53.6l-6.6,2.4v-3l9.4-3.5h0.5V75.3L193.8,75.3z"/>
	<path d="M232.6,93.1c0,3.8-0.6,6.7-2,8.5c-1.3,1.9-3.4,2.8-6.1,2.8s-4.8-0.9-6.1-2.7c-1.3-1.8-2-4.5-2.1-8.1v-4.4
		c0-3.8,0.6-6.6,2-8.4c1.3-1.8,3.4-2.8,6.1-2.8s4.8,0.9,6.1,2.7c1.3,1.8,2,4.5,2,8.2L232.6,93.1L232.6,93.1z M229.3,88.7
		c0-2.8-0.4-4.8-1.2-6c-0.8-1.3-2-1.9-3.7-1.9s-2.9,0.6-3.6,1.9s-1.2,3.2-1.2,5.8v5.2c0,2.8,0.4,4.8,1.2,6.2s2,2,3.7,2
		s2.8-0.6,3.6-1.9s1.2-3.2,1.2-5.9L229.3,88.7L229.3,88.7z"/>
	<path d="M126.5,133.8c0,3.8-0.7,6.7-2,8.5s-3.3,2.8-6.1,2.8s-4.8-0.9-6.1-2.7c-1.3-1.8-2-4.5-2.1-8.1v-4.4c0-3.8,0.7-6.6,2-8.4
		c1.3-1.8,3.3-2.8,6.1-2.8s4.8,0.9,6.1,2.7c1.3,1.8,2,4.5,2,8.2L126.5,133.8L126.5,133.8z M123.2,129.3c0-2.8-0.4-4.8-1.2-6
		c-0.8-1.3-2-1.9-3.7-1.9s-2.9,0.6-3.7,1.9s-1.2,3.2-1.2,5.8v5.2c0,2.8,0.4,4.8,1.2,6.1s2,2,3.7,2s2.8-0.6,3.6-1.9s1.2-3.2,1.2-5.9
		L123.2,129.3L123.2,129.3z"/>
	<path d="M199.2,133.8c0,3.8-0.6,6.7-2,8.5s-3.4,2.8-6.1,2.8s-4.8-0.9-6.1-2.7c-1.3-1.8-2-4.5-2.1-8.1v-4.4c0-3.8,0.6-6.6,2-8.4
		c1.3-1.8,3.4-2.8,6.1-2.8c2.8,0,4.8,0.9,6.1,2.7c1.3,1.8,2,4.5,2,8.2L199.2,133.8L199.2,133.8z M195.9,129.3c0-2.8-0.4-4.8-1.2-6
		c-0.8-1.3-2-1.9-3.7-1.9c-1.7,0-2.9,0.6-3.7,1.9c-0.8,1.3-1.2,3.2-1.2,5.8v5.2c0,2.8,0.4,4.8,1.2,6.1s2,2,3.7,2s2.8-0.6,3.6-1.9
		s1.2-3.2,1.2-5.9L195.9,129.3L195.9,129.3z"/>
	<path d="M159.4,154.5c0,1.3-0.3,2.4-1,3.4c-0.7,1-1.6,1.8-2.7,2.4c1.3,0.6,2.4,1.4,3.2,2.5c0.8,1.1,1.2,2.4,1.2,3.8
		c0,2.2-0.8,4-2.2,5.3c-1.5,1.3-3.5,2-5.9,2s-4.4-0.7-5.9-2c-1.5-1.3-2.2-3.1-2.2-5.3c0-1.4,0.4-2.6,1.1-3.8s1.8-2,3.1-2.5
		c-1.1-0.6-2-1.4-2.7-2.4s-1-2.1-1-3.4c0-2.2,0.7-3.9,2.1-5.1s3.2-1.9,5.5-1.9s4.1,0.6,5.5,1.9S159.4,152.4,159.4,154.5L159.4,154.5
		z M156.7,166.5c0-1.4-0.5-2.6-1.4-3.5c-0.9-0.9-2.1-1.4-3.6-1.4s-2.6,0.4-3.5,1.3s-1.3,2.1-1.3,3.5s0.4,2.6,1.3,3.4
		c0.9,0.8,2.1,1.2,3.6,1.2s2.7-0.4,3.6-1.3C156.3,169.1,156.7,168,156.7,166.5L156.7,166.5z M151.8,150.1c-1.3,0-2.3,0.4-3.1,1.2
		c-0.8,0.8-1.2,1.9-1.2,3.2s0.4,2.4,1.2,3.2s1.8,1.2,3.1,1.2s2.4-0.4,3.1-1.2c0.8-0.8,1.2-1.9,1.2-3.2s-0.4-2.4-1.2-3.2
		S153,150.2,151.8,150.1L151.8,150.1z"/>
	<path d="M233.3,173.5h-16.8v-2.4l8.9-9.9c1.3-1.5,2.2-2.7,2.7-3.6c0.5-0.9,0.8-1.9,0.8-2.9c0-1.3-0.4-2.4-1.2-3.3s-1.9-1.3-3.2-1.3
		c-1.6,0-2.9,0.5-3.8,1.4s-1.4,2.2-1.4,3.9H216c0-2.4,0.8-4.3,2.3-5.7c1.5-1.5,3.6-2.2,6.1-2.2c2.4,0,4.3,0.6,5.7,1.9s2.1,2.9,2.1,5
		c0,2.5-1.6,5.5-4.8,9l-6.9,7.5h12.9L233.3,173.5L233.3,173.5z"/>
	<path d="M127.2,217.4h-16.8V215l8.9-9.9c1.3-1.5,2.2-2.7,2.7-3.6c0.5-0.9,0.8-1.9,0.8-2.9c0-1.3-0.4-2.4-1.2-3.3s-1.9-1.3-3.2-1.3
		c-1.6,0-2.9,0.5-3.8,1.4s-1.3,2.2-1.3,3.9h-3.3c0-2.4,0.8-4.3,2.3-5.7c1.5-1.5,3.6-2.2,6.1-2.2c2.4,0,4.3,0.6,5.7,1.9
		c1.4,1.2,2.1,2.9,2.1,5c0,2.5-1.6,5.5-4.8,9l-6.9,7.5h12.9L127.2,217.4L127.2,217.4z"/>
	<path d="M157.6,237.5h3.6v2.7h-3.6v6h-3.3v-6h-11.7v-1.9l11.5-17.8h3.5L157.6,237.5L157.6,237.5z M146.3,237.5h8v-12.6l-0.4,0.7
		L146.3,237.5z"/>
	<path d="M199.2,206.4c0,3.8-0.6,6.7-2,8.5c-1.3,1.9-3.4,2.8-6.1,2.8s-4.8-0.9-6.1-2.7c-1.3-1.8-2-4.5-2.1-8.1v-4.4
		c0-3.8,0.6-6.6,2-8.4c1.3-1.8,3.4-2.8,6.1-2.8s4.8,0.9,6.1,2.7s2,4.5,2,8.2L199.2,206.4L199.2,206.4z M195.9,201.9
		c0-2.8-0.4-4.8-1.2-6c-0.8-1.3-2-1.9-3.7-1.9s-2.9,0.6-3.6,1.9s-1.2,3.2-1.2,5.8v5.2c0,2.8,0.4,4.8,1.2,6.1s2,2,3.7,2
		s2.8-0.6,3.6-1.9s1.2-3.2,1.2-5.9L195.9,201.9L195.9,201.9z"/>
	<path d="M229.3,220.4v2.8h-0.6c-2.5,0.1-4.6,0.8-6.1,2.3c-1.5,1.5-2.4,3.5-2.6,6.2c1.4-1.6,3.2-2.3,5.5-2.3s4,0.8,5.4,2.4
		c1.3,1.6,2,3.6,2,6.1c0,2.6-0.7,4.8-2.2,6.4c-1.4,1.6-3.4,2.4-5.8,2.4s-4.4-0.9-6-2.8s-2.3-4.3-2.3-7.3v-1.2c0-4.7,1-8.3,3-10.8
		s5-3.8,9-3.8L229.3,220.4L229.3,220.4z M225,232c-1.1,0-2.1,0.3-3.1,1s-1.6,1.5-2,2.5v1.2c0,2.1,0.5,3.8,1.4,5.1
		c0.9,1.3,2.1,1.9,3.6,1.9s2.6-0.5,3.5-1.6c0.8-1.1,1.3-2.5,1.3-4.2s-0.4-3.2-1.3-4.3S226.4,232,225,232L225,232z"/>
	<path d="M216.6,26h-16.8v-2.4l8.9-9.9c1.3-1.5,2.2-2.7,2.7-3.6c0.5-0.9,0.8-1.9,0.8-2.9c0-1.3-0.4-2.4-1.2-3.3s-1.9-1.3-3.2-1.3
		c-1.6,0-2.9,0.5-3.8,1.4s-1.4,2.2-1.4,3.8h-3.3c0-2.4,0.8-4.3,2.3-5.7c1.5-1.5,3.6-2.2,6.1-2.2c2.4,0,4.3,0.6,5.7,1.9
		s2.1,2.9,2.1,5c0,2.5-1.6,5.5-4.8,9l-6.9,7.5h12.9L216.6,26L216.6,26z"/>
	<path d="M140.5,274.6v2.8h-0.6c-2.5,0-4.6,0.8-6.1,2.3c-1.5,1.5-2.4,3.5-2.6,6.2c1.4-1.5,3.2-2.3,5.5-2.3s4,0.8,5.4,2.4
		c1.3,1.6,2,3.6,2,6.1c0,2.6-0.7,4.8-2.2,6.4s-3.4,2.4-5.8,2.4s-4.4-0.9-6-2.8c-1.5-1.9-2.3-4.3-2.3-7.3v-1.2c0-4.7,1-8.3,3-10.8
		s5-3.8,9-3.8L140.5,274.6L140.5,274.6z M136.2,286.1c-1.1,0-2.1,0.3-3.1,1s-1.6,1.5-2,2.5v1.2c0,2.1,0.5,3.8,1.4,5.1
		c0.9,1.3,2.1,1.9,3.6,1.9s2.6-0.5,3.5-1.6c0.8-1.1,1.3-2.5,1.3-4.2s-0.4-3.2-1.3-4.3S137.6,286.2,136.2,286.1L136.2,286.1z"/>
	<path d="M212.6,274.6v2.8H212c-2.5,0-4.6,0.8-6.1,2.3c-1.5,1.5-2.4,3.5-2.6,6.2c1.4-1.5,3.2-2.3,5.5-2.3s4,0.8,5.4,2.4
		c1.3,1.6,2,3.6,2,6.1c0,2.6-0.7,4.8-2.2,6.4s-3.4,2.4-5.8,2.4s-4.4-0.9-6-2.8c-1.5-1.9-2.3-4.3-2.3-7.3v-1.2c0-4.7,1-8.3,3-10.8
		s5-3.8,9-3.8L212.6,274.6L212.6,274.6z M208.3,286.1c-1.1,0-2.1,0.3-3.1,1s-1.6,1.5-2,2.5v1.2c0,2.1,0.5,3.8,1.4,5.1
		c0.9,1.3,2.1,1.9,3.6,1.9s2.6-0.5,3.5-1.6c0.8-1.1,1.3-2.5,1.3-4.2s-0.4-3.2-1.3-4.3S209.7,286.2,208.3,286.1L208.3,286.1z"/>
	<path d="M262.4,74.2l1.3-12.8h13.2v3h-10.4l-0.8,7c1.3-0.7,2.7-1.1,4.3-1.1c2.3,0,4.2,0.8,5.6,2.3c1.4,1.6,2.1,3.6,2.1,6.3
		s-0.7,4.7-2.1,6.2c-1.4,1.5-3.4,2.3-6,2.3c-2.3,0-4.1-0.6-5.6-1.9c-1.4-1.3-2.2-3-2.5-5.2h3.1c0.2,1.5,0.7,2.6,1.6,3.3
		s2,1.1,3.4,1.1c1.5,0,2.7-0.5,3.6-1.6c0.9-1,1.3-2.5,1.3-4.3c0-1.7-0.5-3.1-1.4-4.1s-2.2-1.6-3.7-1.6c-1.4,0-2.5,0.3-3.4,0.9
		l-0.9,0.7L262.4,74.2L262.4,74.2z"/>
	<path d="M271.6,159.1h-3.3v-21.8l-6.6,2.4v-3l9.4-3.5h0.5L271.6,159.1L271.6,159.1z"/>
	<path d="M265.6,217.3h2.5c1.5,0,2.8-0.4,3.6-1.2c0.9-0.8,1.3-1.9,1.3-3.2c0-3-1.5-4.5-4.5-4.5c-1.4,0-2.5,0.4-3.4,1.2
		c-0.8,0.8-1.3,1.9-1.3,3.2h-3.3c0-2,0.7-3.7,2.2-5.1c1.5-1.4,3.4-2,5.7-2c2.4,0,4.3,0.6,5.7,1.9s2.1,3.1,2.1,5.4
		c0,1.1-0.4,2.2-1.1,3.2s-1.7,1.8-3,2.4c1.4,0.4,2.5,1.2,3.3,2.2c0.8,1,1.2,2.3,1.2,3.8c0,2.3-0.8,4.1-2.3,5.5c-1.5,1.4-3.5,2-5.9,2
		s-4.4-0.6-5.9-2c-1.5-1.3-2.3-3-2.3-5.2h3.3c0,1.4,0.4,2.4,1.3,3.2s2.1,1.2,3.5,1.2c1.6,0,2.8-0.4,3.6-1.2c0.8-0.8,1.2-2,1.2-3.6
		s-0.5-2.6-1.4-3.4s-2.2-1.2-4-1.2h-2.5L265.6,217.3L265.6,217.3z"/>
	<path d="M75.4,78.5h3.6v2.7h-3.6v6h-3.3v-6H60.4v-1.9l11.5-17.8h3.5L75.4,78.5L75.4,78.5z M64.1,78.5h8V65.9l-0.4,0.7L64.1,78.5z"
		/>
	<path d="M78.4,159.1H61.6v-2.4l8.9-9.9c1.3-1.5,2.2-2.7,2.7-3.6c0.5-0.9,0.8-1.9,0.8-2.9c0-1.3-0.4-2.4-1.2-3.3s-1.9-1.3-3.2-1.3
		c-1.6,0-2.9,0.5-3.8,1.4s-1.3,2.2-1.3,3.9h-3.3c0-2.4,0.8-4.3,2.3-5.7c1.5-1.5,3.6-2.2,6.1-2.2c2.4,0,4.3,0.6,5.7,1.9
		c1.4,1.2,2.1,2.9,2.1,5c0,2.5-1.6,5.5-4.8,9l-6.9,7.5h12.9L78.4,159.1L78.4,159.1z"/>
	<path d="M77.7,220.8c0,3.8-0.7,6.7-2,8.5s-3.3,2.8-6.1,2.8s-4.8-0.9-6.1-2.7c-1.3-1.8-2-4.5-2-8.1v-4.4c0-3.8,0.7-6.6,2-8.4
		c1.3-1.8,3.3-2.8,6.1-2.8s4.8,0.9,6.1,2.7c1.3,1.8,2,4.5,2,8.2L77.7,220.8L77.7,220.8z M74.4,216.3c0-2.8-0.4-4.8-1.2-6
		c-0.8-1.3-2-1.9-3.7-1.9s-2.9,0.6-3.7,1.9s-1.2,3.2-1.2,5.8v5.2c0,2.8,0.4,4.8,1.2,6.1s2,2,3.7,2s2.8-0.6,3.6-1.9s1.2-3.2,1.2-5.9
		L74.4,216.3L74.4,216.3z"/>
	<g>
		<line class="st2" x1="10.2" y1="75.3" x2="10.2" y2="216.9"/>
		<polygon points="10.2,234.5 0,209.6 10.2,215.5 20.3,209.6 		"/>
	</g>
	<g>
		<line class="st2" x1="94" y1="328" x2="235.5" y2="328"/>
		<polygon points="253.2,328 228.3,338.2 234.2,328 228.3,317.9 		"/>
	</g>
</g>
</svg>
