<?xml version="1.0" encoding="utf-8"?>
<!-- Generator: Adobe Illustrator 26.3.1, SVG Export Plug-In . SVG Version: 6.00 Build 0)  -->
<svg version="1.1" id="Layer_2_00000003809125303975239370000011795901479194082195_"
	 xmlns="http://www.w3.org/2000/svg" xmlns:xlink="http://www.w3.org/1999/xlink" x="0px" y="0px" viewBox="0 0 188.5 261"
	 style="enable-background:new 0 0 188.5 261;" xml:space="preserve">
<style type="text/css">
	.st0{fill:none;stroke:#000000;stroke-miterlimit:10;}
	.st1{fill:none;stroke:#FF0000;stroke-width:2;stroke-linecap:round;stroke-miterlimit:10;}
</style>
<g id="Layer_1-2">
	<rect x="34" y="34.3" class="st0" width="62.6" height="62.6"/>
	<rect x="96.6" y="34.3" class="st0" width="62.6" height="62.6"/>
	<rect x="34" y="96.9" class="st0" width="62.6" height="62.6"/>
	<rect x="96.6" y="96.9" class="st0" width="62.6" height="62.6"/>
	<rect x="34" y="159.5" class="st0" width="62.6" height="62.6"/>
	<rect x="96.6" y="159.5" class="st0" width="62.6" height="62.6"/>
	<line class="st1" x1="159.3" y1="34.3" x2="34" y2="159.5"/>
	<line class="st1" x1="159.3" y1="96.9" x2="34" y2="222.1"/>
	<line class="st1" x1="159.3" y1="159.5" x2="96.6" y2="222.1"/>
	<line class="st1" x1="96.6" y1="34.3" x2="34" y2="96.9"/>
	<path d="M71.9,6.1c0,1.1-0.3,2.1-0.9,3c-0.6,0.9-1.4,1.6-2.4,2c1.2,0.5,2.1,1.2,2.8,2.2c0.7,1,1,2.1,1,3.3c0,1.9-0.7,3.5-1.9,4.6
		c-1.3,1.1-3,1.7-5.1,1.7s-3.9-0.6-5.2-1.7s-1.9-2.7-1.9-4.6c0-1.2,0.3-2.3,1-3.3s1.6-1.7,2.7-2.2c-1-0.5-1.8-1.2-2.3-2
		s-0.9-1.8-0.9-3c0-1.9,0.6-3.4,1.8-4.5C61.8,0.6,63.4,0,65.3,0c2,0,3.6,0.6,4.8,1.6C71.3,2.8,71.9,4.2,71.9,6.1L71.9,6.1z
		 M69.6,16.5c0-1.2-0.4-2.3-1.2-3.1s-1.8-1.2-3.1-1.2s-2.3,0.4-3.1,1.2c-0.8,0.8-1.2,1.8-1.2,3.1s0.4,2.3,1.1,3s1.8,1.1,3.1,1.1
		s2.4-0.4,3.1-1.1C69.2,18.8,69.6,17.8,69.6,16.5L69.6,16.5z M65.3,2.3c-1.1,0-2,0.3-2.7,1c-0.7,0.7-1,1.6-1,2.8s0.3,2.1,1,2.8
		s1.6,1.1,2.7,1.1s2-0.4,2.7-1.1s1-1.6,1-2.8S68.7,4.1,68,3.4C67.3,2.7,66.4,2.3,65.3,2.3L65.3,2.3z"/>
	<path d="M55.3,57.9h3.1v2.3h-3.1v5.2h-2.8v-5.2H42.3v-1.7l10-15.5h3C55.3,43.1,55.3,57.9,55.3,57.9z M45.6,57.9h6.9V46.9l-0.3,0.6
		L45.6,57.9z"/>
	<path d="M86.4,80.8c0,3.3-0.6,5.8-1.7,7.4c-1.1,1.6-2.9,2.4-5.3,2.4s-4.1-0.8-5.3-2.4s-1.7-3.9-1.8-7.1v-3.8c0-3.3,0.6-5.7,1.7-7.3
		c1.1-1.6,2.9-2.4,5.3-2.4s4.2,0.8,5.3,2.3c1.1,1.5,1.7,3.9,1.8,7.1L86.4,80.8L86.4,80.8z M83.5,77c0-2.4-0.3-4.2-1-5.2
		c-0.7-1.1-1.7-1.7-3.2-1.7s-2.5,0.6-3.2,1.6c-0.7,1.1-1,2.8-1,5v4.5c0,2.4,0.3,4.2,1.1,5.3c0.7,1.2,1.8,1.7,3.2,1.7
		s2.4-0.5,3.1-1.6s1-2.8,1.1-5.1L83.5,77L83.5,77z"/>
	<path d="M115.8,65.4H113V46.5l-5.7,2.1V46l8.1-3h0.4C115.8,43,115.8,65.4,115.8,65.4z"/>
	<path d="M149.5,80.8c0,3.3-0.6,5.8-1.7,7.4c-1.1,1.6-2.9,2.4-5.3,2.4s-4.1-0.8-5.3-2.4s-1.7-3.9-1.8-7.1v-3.8
		c0-3.3,0.6-5.7,1.7-7.3c1.1-1.6,2.9-2.4,5.3-2.4s4.2,0.8,5.3,2.3c1.1,1.5,1.7,3.9,1.8,7.1L149.5,80.8L149.5,80.8z M146.6,77
		c0-2.4-0.3-4.2-1-5.2c-0.7-1.1-1.7-1.7-3.2-1.7s-2.5,0.6-3.2,1.6s-1,2.8-1,5v4.5c0,2.4,0.4,4.2,1.1,5.3s1.8,1.7,3.2,1.7
		s2.4-0.5,3.1-1.6s1-2.8,1.1-5.1V77L146.6,77z"/>
	<path d="M57.4,116.1c0,3.3-0.6,5.8-1.7,7.4c-1.1,1.6-2.9,2.4-5.3,2.4s-4.1-0.8-5.3-2.4s-1.7-3.9-1.8-7.1v-3.8
		c0-3.3,0.6-5.7,1.7-7.3c1.1-1.6,2.9-2.4,5.3-2.4s4.2,0.8,5.3,2.3c1.1,1.5,1.7,3.9,1.8,7.1L57.4,116.1L57.4,116.1z M54.5,112.2
		c0-2.4-0.3-4.2-1-5.2c-0.7-1.1-1.7-1.7-3.2-1.7s-2.5,0.6-3.2,1.6s-1,2.8-1,5v4.5c0,2.4,0.3,4.2,1,5.3s1.8,1.7,3.2,1.7
		s2.4-0.5,3.1-1.6s1-2.8,1.1-5.1L54.5,112.2L54.5,112.2z"/>
	<path d="M120.5,116.1c0,3.3-0.6,5.8-1.7,7.4c-1.1,1.6-2.9,2.4-5.3,2.4s-4.1-0.8-5.3-2.4s-1.7-3.9-1.8-7.1v-3.8
		c0-3.3,0.6-5.7,1.7-7.3c1.1-1.6,2.9-2.4,5.3-2.4c2.4,0,4.2,0.8,5.3,2.3c1.1,1.5,1.7,3.9,1.8,7.1L120.5,116.1L120.5,116.1z
		 M117.7,112.2c0-2.4-0.3-4.2-1-5.2c-0.7-1.1-1.7-1.7-3.2-1.7c-1.5,0-2.5,0.6-3.2,1.6c-0.7,1.1-1,2.8-1,5v4.5c0,2.4,0.3,4.2,1,5.3
		s1.8,1.7,3.2,1.7s2.4-0.5,3.1-1.6c0.7-1.1,1-2.8,1.1-5.1L117.7,112.2L117.7,112.2z"/>
	<path d="M85.9,134.1c0,1.1-0.3,2.1-0.9,3s-1.4,1.6-2.4,2c1.2,0.5,2.1,1.2,2.8,2.2c0.7,1,1,2.1,1,3.3c0,1.9-0.7,3.5-1.9,4.6
		c-1.3,1.1-3,1.7-5.1,1.7s-3.9-0.6-5.2-1.7s-1.9-2.7-1.9-4.6c0-1.2,0.3-2.3,1-3.3c0.7-1,1.6-1.7,2.7-2.2c-1-0.5-1.8-1.2-2.3-2
		s-0.9-1.9-0.9-3c0-1.9,0.6-3.4,1.8-4.5c1.2-1.1,2.8-1.6,4.8-1.6s3.6,0.6,4.8,1.6C85.3,130.8,85.9,132.2,85.9,134.1L85.9,134.1z
		 M83.6,144.5c0-1.2-0.4-2.3-1.2-3.1c-0.8-0.8-1.8-1.2-3.1-1.2s-2.3,0.4-3.1,1.2c-0.8,0.8-1.2,1.8-1.2,3.1s0.4,2.3,1.1,3
		c0.8,0.7,1.8,1.1,3.1,1.1s2.4-0.4,3.1-1.1C83.2,146.8,83.6,145.8,83.6,144.5L83.6,144.5z M79.3,130.3c-1.1,0-2,0.3-2.7,1
		c-0.7,0.7-1,1.6-1,2.8s0.3,2.1,1,2.8s1.6,1.1,2.7,1.1s2-0.4,2.7-1.1s1-1.6,1-2.8s-0.3-2.1-1.1-2.8
		C81.3,130.7,80.4,130.3,79.3,130.3L79.3,130.3z"/>
	<path d="M150.1,150.6h-14.6v-2l7.7-8.6c1.1-1.3,1.9-2.4,2.4-3.2c0.4-0.8,0.6-1.6,0.6-2.5c0-1.2-0.4-2.1-1.1-2.9
		c-0.7-0.8-1.6-1.1-2.8-1.1c-1.4,0-2.5,0.4-3.3,1.2s-1.2,1.9-1.2,3.4h-2.8c0-2.1,0.7-3.7,2-5c1.3-1.3,3.1-1.9,5.3-1.9
		c2.1,0,3.7,0.5,4.9,1.6c1.2,1.1,1.8,2.5,1.8,4.3c0,2.2-1.4,4.8-4.2,7.8l-6,6.5h11.2L150.1,150.6L150.1,150.6z"/>
	<path d="M58,188.7H43.4v-2l7.7-8.6c1.1-1.3,1.9-2.4,2.4-3.2c0.4-0.8,0.7-1.6,0.7-2.5c0-1.2-0.3-2.1-1.1-2.9
		c-0.7-0.8-1.6-1.1-2.8-1.1c-1.4,0-2.5,0.4-3.3,1.2s-1.2,1.9-1.2,3.4H43c0-2.1,0.7-3.7,2-5c1.3-1.3,3.1-1.9,5.3-1.9
		c2.1,0,3.7,0.5,4.9,1.6c1.2,1.1,1.8,2.5,1.8,4.3c0,2.2-1.4,4.8-4.2,7.8l-6,6.5H58L58,188.7L58,188.7z"/>
	<path d="M84.3,206.2h3.1v2.3h-3.1v5.2h-2.8v-5.2H71.3v-1.7l10-15.4h3C84.3,191.4,84.3,206.2,84.3,206.2z M74.5,206.2h6.9v-10.9
		l-0.3,0.6L74.5,206.2L74.5,206.2z"/>
	<path d="M120.5,179.2c0,3.3-0.6,5.8-1.7,7.4c-1.1,1.6-2.9,2.4-5.3,2.4s-4.1-0.8-5.3-2.4s-1.7-3.9-1.8-7.1v-3.8
		c0-3.3,0.6-5.7,1.7-7.3s2.9-2.4,5.3-2.4s4.2,0.8,5.3,2.3c1.1,1.5,1.7,3.9,1.8,7.1L120.5,179.2L120.5,179.2z M117.7,175.3
		c0-2.4-0.3-4.1-1-5.2c-0.7-1.1-1.7-1.6-3.2-1.6s-2.5,0.6-3.2,1.6c-0.7,1.1-1,2.8-1,5v4.5c0,2.4,0.3,4.2,1.1,5.3
		c0.7,1.1,1.8,1.7,3.2,1.7s2.4-0.5,3.1-1.6s1-2.8,1.1-5.1L117.7,175.3L117.7,175.3z"/>
	<path d="M146.6,191.4v2.4h-0.5c-2.2,0-4,0.7-5.3,2s-2.1,3.1-2.3,5.3c1.2-1.4,2.8-2,4.8-2s3.5,0.7,4.6,2.1c1.2,1.4,1.7,3.1,1.7,5.3
		c0,2.3-0.6,4.1-1.9,5.5c-1.2,1.4-2.9,2.1-5,2.1s-3.9-0.8-5.2-2.5s-2-3.8-2-6.3v-1.1c0-4.1,0.9-7.2,2.6-9.4s4.4-3.3,7.8-3.3
		L146.6,191.4L146.6,191.4z M142.9,201.4c-1,0-1.9,0.3-2.7,0.9s-1.4,1.3-1.7,2.2v1c0,1.8,0.4,3.3,1.2,4.4s1.9,1.7,3.1,1.7
		s2.3-0.5,3-1.4s1.1-2.2,1.1-3.7s-0.4-2.8-1.1-3.7S144.1,201.4,142.9,201.4L142.9,201.4z"/>
	<path d="M135.6,22.6H121v-2l7.7-8.6c1.1-1.3,1.9-2.4,2.4-3.2c0.4-0.8,0.6-1.7,0.6-2.5c0-1.2-0.4-2.1-1.1-2.9
		c-0.7-0.8-1.6-1.1-2.8-1.1c-1.4,0-2.5,0.4-3.3,1.2s-1.2,1.9-1.2,3.4h-2.8c0-2.1,0.7-3.7,2-5s3.1-1.9,5.3-1.9c2.1,0,3.7,0.5,4.9,1.6
		c1.2,1.1,1.8,2.5,1.8,4.3c0,2.2-1.4,4.8-4.2,7.8l-6,6.5h11.2L135.6,22.6L135.6,22.6z"/>
	<path d="M69.5,238.3v2.4H69c-2.2,0-4,0.7-5.3,2s-2.1,3.1-2.3,5.3c1.2-1.4,2.8-2,4.8-2s3.5,0.7,4.7,2.1c1.2,1.4,1.7,3.1,1.7,5.3
		c0,2.3-0.6,4.1-1.9,5.5s-2.9,2.1-5,2.1s-3.9-0.8-5.2-2.5c-1.3-1.6-2-3.8-2-6.3v-1.1c0-4.1,0.9-7.2,2.6-9.4s4.4-3.3,7.8-3.3
		L69.5,238.3L69.5,238.3z M65.8,248.4c-1,0-1.9,0.3-2.7,0.9s-1.4,1.3-1.7,2.2v1c0,1.8,0.4,3.3,1.2,4.4s1.9,1.7,3.1,1.7
		s2.3-0.5,3-1.4s1.1-2.2,1.1-3.7s-0.4-2.8-1.1-3.7S67,248.4,65.8,248.4L65.8,248.4z"/>
	<path d="M132.1,238.3v2.4h-0.5c-2.2,0-4,0.7-5.3,2s-2.1,3.1-2.3,5.3c1.2-1.4,2.8-2,4.8-2s3.5,0.7,4.6,2.1c1.2,1.4,1.7,3.1,1.7,5.3
		c0,2.3-0.6,4.1-1.9,5.5s-2.9,2.1-5,2.1s-3.9-0.8-5.2-2.5c-1.3-1.6-2-3.8-2-6.3v-1.1c0-4.1,0.9-7.2,2.6-9.4s4.4-3.3,7.8-3.3
		L132.1,238.3L132.1,238.3z M128.4,248.4c-1,0-1.9,0.3-2.7,0.9s-1.4,1.3-1.7,2.2v1c0,1.8,0.4,3.3,1.2,4.4c0.8,1.1,1.9,1.7,3.1,1.7
		s2.3-0.5,3-1.4s1.1-2.2,1.1-3.7s-0.4-2.8-1.1-3.7S129.6,248.4,128.4,248.4L128.4,248.4z"/>
	<path d="M175.3,64.4l1.1-11.1h11.4v2.6h-9l-0.7,6.1c1.1-0.6,2.3-1,3.7-1c2,0,3.6,0.7,4.8,2c1.2,1.3,1.8,3.2,1.8,5.4
		s-0.6,4.1-1.9,5.4s-3,2-5.2,2c-2,0-3.6-0.6-4.8-1.6c-1.2-1.1-2-2.6-2.1-4.5h2.7c0.2,1.3,0.6,2.2,1.4,2.9c0.7,0.7,1.7,1,2.9,1
		c1.3,0,2.4-0.4,3.1-1.3s1.1-2.1,1.1-3.7c0-1.5-0.4-2.7-1.2-3.6c-0.8-0.9-1.9-1.4-3.2-1.4c-1.2,0-2.2,0.3-2.9,0.8l-0.8,0.6
		L175.3,64.4L175.3,64.4z"/>
	<path d="M183.3,138.1h-2.9v-18.9l-5.7,2.1v-2.6l8.1-3.1h0.4L183.3,138.1L183.3,138.1z"/>
	<path d="M178.1,188.6h2.1c1.3,0,2.4-0.4,3.1-1.1c0.8-0.7,1.1-1.6,1.1-2.8c0-2.6-1.3-3.9-3.9-3.9c-1.2,0-2.2,0.4-2.9,1.1
		s-1.1,1.6-1.1,2.8h-2.8c0-1.8,0.6-3.2,1.9-4.4c1.3-1.2,2.9-1.8,4.9-1.8c2.1,0,3.8,0.6,4.9,1.7c1.2,1.1,1.8,2.7,1.8,4.6
		c0,1-0.3,1.9-0.9,2.8s-1.5,1.6-2.6,2c1.2,0.4,2.2,1,2.8,1.9s1,2,1,3.3c0,2-0.6,3.6-2,4.8c-1.3,1.2-3,1.8-5.1,1.8s-3.8-0.6-5.1-1.7
		c-1.3-1.1-2-2.6-2-4.5h2.9c0,1.2,0.4,2.1,1.1,2.8c0.8,0.7,1.8,1.1,3.1,1.1c1.4,0,2.4-0.4,3.1-1.1c0.7-0.7,1.1-1.7,1.1-3.1
		s-0.4-2.3-1.2-3c-0.8-0.7-1.9-1.1-3.4-1.1h-2.1L178.1,188.6L178.1,188.6z"/>
	<path d="M13,68.1h3.1v2.3H13v5.2h-2.9v-5.2H0v-1.7l10-15.5h3V68.1z M3.2,68.1h6.9V57.2l-0.3,0.6C9.8,57.8,3.2,68.1,3.2,68.1z"/>
	<path d="M15.6,138.1H1v-2l7.7-8.6c1.1-1.3,1.9-2.3,2.4-3.2c0.4-0.8,0.6-1.7,0.6-2.5c0-1.2-0.4-2.1-1.1-2.9
		c-0.7-0.8-1.6-1.1-2.8-1.1c-1.4,0-2.5,0.4-3.3,1.2c-0.8,0.8-1.2,1.9-1.2,3.3H0.6c0-2.1,0.7-3.7,2-5c1.3-1.3,3.1-1.9,5.3-1.9
		c2.1,0,3.7,0.5,4.9,1.6c1.2,1.1,1.8,2.5,1.8,4.3c0,2.2-1.4,4.8-4.2,7.8l-6,6.5h11.2V138.1L15.6,138.1z"/>
	<path d="M15,191.7c0,3.3-0.6,5.8-1.7,7.4c-1.1,1.6-2.9,2.4-5.3,2.4s-4.1-0.8-5.3-2.4S1,195.2,1,192v-3.8c0-3.3,0.6-5.7,1.7-7.3
		s2.9-2.4,5.3-2.4s4.2,0.8,5.3,2.3c1.1,1.5,1.7,3.9,1.8,7.1L15,191.7L15,191.7z M12.2,187.8c0-2.4-0.3-4.1-1-5.2
		c-0.7-1.1-1.7-1.6-3.2-1.6s-2.5,0.6-3.2,1.6s-1,2.8-1,5v4.5c0,2.4,0.4,4.2,1,5.3s1.8,1.7,3.2,1.7s2.4-0.5,3.1-1.6
		c0.7-1.1,1-2.8,1.1-5.1V187.8L12.2,187.8z"/>
</g>
</svg>
