<?xml version="1.0" encoding="UTF-8"?><svg id="Layer_2" xmlns="http://www.w3.org/2000/svg" viewBox="0 0 327.08 446.46"><defs><style>.cls-1{fill:#008ee5;}.cls-2{fill:#ff9600;}.cls-3{stroke:#008ee5;stroke-linecap:round;stroke-width:4px;}.cls-3,.cls-4{fill:none;stroke-miterlimit:10;}.cls-4{stroke:#ff9600;}</style></defs><g id="Layer_1-2"><g><path class="cls-2" d="M300.11,202.75c0,1.95,.02,3.89,.12,5.84,.05,1.06-.05,2.68,.67,3.56,.57,.7,1.56-.3,.99-.99-.49-.6-.27-2.72-.3-3.47-.07-1.64-.08-3.29-.08-4.94,0-.91-1.41-.91-1.41,0h0Z"/><path class="cls-2" d="M301.52,212.47c2.73,.02,5.46,.22,8.2,.23,.91,0,.91-1.4,0-1.41-2.73-.02-5.46-.22-8.2-.23-.91,0-.91,1.4,0,1.41h0Z"/><path class="cls-2" d="M309.13,212.23c.05,12.29-.22,24.59-.23,36.89,0,.91,1.4,.91,1.41,0,.02-12.3,.29-24.59,.23-36.89,0-.91-1.41-.91-1.41,0h0Z"/><path class="cls-2" d="M309.48,250.06c3.32,0,6.64-.11,9.95-.12,.91,0,.91-1.41,0-1.41-3.32,0-6.64,.11-9.95,.12-.91,0-.91,1.41,0,1.41h0Z"/><path class="cls-2" d="M318.85,203.1c.01,15.3,.36,30.61-.12,45.9-.03,.91,1.38,.9,1.41,0,.48-15.29,.13-30.61,.12-45.9,0-.91-1.41-.91-1.41,0h0Z"/><path class="cls-2" d="M301.05,203.35c.69-.44,2.26-.23,3.04-.25,1.33-.03,2.65-.01,3.98,0,3.75,0,7.49,.22,11.24,.23,.91,0,.91-1.4,0-1.41-3.87-.02-7.74-.23-11.61-.24-1.57,0-3.13-.01-4.7,.04-.8,.03-1.95-.05-2.67,.41-.76,.49-.06,1.7,.71,1.21h0Z"/><path class="cls-2" d="M301.11,201.89c-1.5,.09-2.51,1.81-3.07,3.02-.38,.82,.83,1.53,1.21,.71,.27-.57,.57-1.13,.98-1.62,.19-.23,.56-.68,.87-.7,.9-.05,.91-1.46,0-1.41h0Z"/><path class="cls-2" d="M297.94,205.56c-.03,2.51-.87,5.97,.59,8.22,.66,1.02,1.71,1.2,2.82,1.21,2.07,.01,4.13,.12,6.19,0,.9-.06,.91-1.46,0-1.41-1.37,.09-2.73,.08-4.1,.05-1.32-.03-3.41,.46-3.99-1.15-.76-2.07-.13-4.77-.11-6.92,.01-.91-1.39-.91-1.41,0h0Z"/><path class="cls-2" d="M306.75,214.27c-.24,1.3-.02,2.65-.02,3.97,0,1.95-.1,3.91-.13,5.86-.07,4.04-.11,8.07-.2,12.11-.07,3.19-.13,6.38-.13,9.57,0,1.91-.32,4.93,.82,6.62,.5,.75,1.72,.04,1.21-.71-1.13-1.67-.63-5.11-.62-7.03,.02-2.82,.08-5.64,.13-8.45,.07-3.53,.14-7.06,.18-10.59,.02-1.73,.06-3.45,.12-5.17,.06-1.86-.33-3.99,0-5.81,.16-.89-1.19-1.26-1.35-.37h0Z"/><path class="cls-2" d="M308.86,211.85c-.63,.69-1.15,1.45-1.87,2.05-.3,.24-.25,.74,0,.99,.29,.29,.7,.24,.99,0,.73-.6,1.24-1.36,1.87-2.05,.61-.67-.38-1.66-.99-.99h0Z"/><path class="cls-2" d="M318.7,249.23c-.2,.75-.74,1.36-1.16,2-.49,.76,.72,1.47,1.21,.71,.49-.75,1.07-1.45,1.3-2.33,.23-.88-1.12-1.25-1.35-.37h0Z"/><path class="cls-2" d="M308.13,252.75c3.28,0,6.57,.04,9.84-.29,.89-.09,.9-1.5,0-1.41-3.27,.34-6.55,.3-9.84,.29-.91,0-.91,1.4,0,1.41h0Z"/><path class="cls-2" d="M309.04,248.8c-.59,.72-1.1,1.5-1.76,2.17-.63,.65,.36,1.64,.99,.99,.65-.67,1.17-1.45,1.76-2.17,.57-.69-.42-1.69-.99-.99h0Z"/></g><g><path class="cls-2" d="M4.07,213.65c-.01-3.17-.17-6.46,1.54-9.27,1.56-2.56,5.78-2.23,8.38-2.56,2.41-.3,5.14-.26,7.56-.06,2.64,.21,5.82,.31,6.51,3.43,.19,.89,1.55,.51,1.35-.37-.6-2.75-2.61-3.74-5.2-4.13-3.35-.51-6.86-.58-10.23-.27-3.04,.28-6.83,.24-9.09,2.58-2.57,2.66-2.25,7.27-2.24,10.65,0,.91,1.41,.91,1.41,0h0Z"/><path class="cls-2" d="M28.06,205.13c1.26,6.22,2,13.3,.31,19.5-.24,.88,1.12,1.25,1.35,.37,1.77-6.46,1-13.76-.31-20.24-.18-.89-1.53-.51-1.35,.37h0Z"/><path class="cls-2" d="M12.81,215.13c.05-.9,.19-1.77,.1-2.67-.11-1.11-.27-1.71,.99-1.87,1.52-.19,3.33-.2,4.85,.03,1.43,.22,.68,7.18,.4,8.23-.23,.88,1.12,1.25,1.35,.37,.49-1.88,.44-3.97,.35-5.89-.07-1.45-.11-3.54-1.73-4.07-.95-.31-2.18-.15-3.18-.16-1.1,0-2.22,.02-3.29,.3-.66,.17-1.14,.64-1.21,1.33-.14,1.44,.03,2.94-.06,4.39-.05,.91,1.35,.9,1.41,0h0Z"/><path class="cls-2" d="M19.16,218.85c-.81,3.62-6.13,5.34-9.06,6.82-2.69,1.36-5.37,3.42-6.55,6.31-1.06,2.6-.8,5.55-.82,8.3-.02,2.78-.07,5.56-.07,8.34,0,.91,1.4,.91,1.41,0,0-2.65,.05-5.3,.07-7.95,.03-2.94-.37-6.24,1.1-8.91,1.94-3.51,5.78-4.95,9.17-6.65,2.48-1.25,5.47-2.98,6.11-5.89,.2-.88-1.16-1.26-1.35-.37h0Z"/><path class="cls-2" d="M3.6,249.41c8.59,.01,17.18,.34,25.76-.08,.9-.04,.91-1.45,0-1.41-8.58,.42-17.18,.09-25.76,.08-.91,0-.91,1.4,0,1.41h0Z"/><path class="cls-2" d="M28.66,240.19c.34,2.68-.05,5.36-.08,8.04-.01,.91,1.39,.91,1.41,0,.03-2.69,.42-5.36,.08-8.04-.11-.89-1.52-.9-1.41,0h0Z"/><path class="cls-2" d="M13.75,240.51c5.13,.03,10.25,.03,15.38-.08,.9-.02,.91-1.42,0-1.41-5.13,.11-10.25,.11-15.38,.08-.91,0-.91,1.4,0,1.41h0Z"/><path class="cls-2" d="M28.37,224.63c-.62,2.26-2.61,3.29-4.51,4.33-1.96,1.07-3.84,2.3-5.8,3.36-2.82,1.52-4.88,3.86-5.01,7.17-.04,.91,1.37,.9,1.41,0,.18-4.61,5.3-6.62,8.79-8.59,2.62-1.48,5.62-2.74,6.49-5.9,.24-.88-1.12-1.25-1.35-.37h0Z"/><path class="cls-2" d="M2.68,213.2c-.02,1.34,.11,2.75,1.78,2.84,2.41,.13,4.89-.01,7.3-.21,.9-.07,.9-1.48,0-1.41-1.57,.13-3.13,.23-4.71,.2-.59,0-1.15-.01-1.74,.02-1.1,.06-1.23-.58-1.22-1.45,.02-.91-1.39-.91-1.41,0h0Z"/><path class="cls-2" d="M11.27,215.25c-.4,.64-1,1.12-1.41,1.76-.48,.77,.73,1.47,1.21,.71,.4-.64,1-1.12,1.41-1.76,.48-.77-.73-1.47-1.21-.71h0Z"/><path class="cls-2" d="M10.28,216.68c-2.1,.62-4.76,.89-6.94,.5-2.97-.53-1.62-6.7-1.27-8.42,.65-3.18,2.13-4.96,5.25-5.83,.87-.24,.5-1.6-.37-1.35-4.65,1.3-5.96,4.56-6.64,9.16-.28,1.9-.61,6.21,1.57,7.35,2.43,1.28,6.25,.7,8.78-.05,.87-.25,.5-1.61-.37-1.35h0Z"/><path class="cls-2" d="M8.4,226.71c-4.33,2.96-8.21,5.51-8.36,11.19-.07,2.78-.05,5.57,.11,8.35,.09,1.42,0,3.98,1.16,5.05,.66,.61,1.66-.38,.99-.99-.99-.91-.74-3.86-.8-5.07-.11-2.18-.11-4.36-.07-6.55,.04-2.39,.28-4.35,1.88-6.28,1.58-1.9,3.79-3.12,5.8-4.49,.74-.51,.04-1.73-.71-1.21h0Z"/><path class="cls-2" d="M12.81,212.95c.42,0,4.36-.3,4.36,.1,0,1.44-.06,2.85-.29,4.28-.55,3.5-2.15,5.82-5.28,7.59-.79,.44-.08,1.66,.71,1.21,3.67-2.07,5.47-4.92,6.02-9.04,.17-1.29,.79-3.81,.08-5.03-.78-1.34-4.38-.53-5.59-.51-.91,.01-.91,1.42,0,1.41h0Z"/><path class="cls-2" d="M28.55,248.6c-.49,.57-.84,1.23-1.33,1.8-.59,.68,.4,1.68,.99,.99,.49-.57,.84-1.23,1.33-1.8,.59-.68-.4-1.68-.99-.99h0Z"/><path class="cls-2" d="M1.62,251.49c4.05,.6,8.02,.29,12.1,.35,4.54,.06,9.08-.08,13.61-.09,.91,0,.91-1.41,0-1.41-4.26,0-8.52,.11-12.77,.1-4.21-.02-8.38,.31-12.57-.31-.89-.13-1.27,1.22-.37,1.35h0Z"/><path class="cls-2" d="M3.33,248.17c-.79,.46-1.46,1.11-2.17,1.67-.3,.24-.25,.75,0,.99,.29,.29,.69,.24,.99,0,.62-.49,1.2-1.05,1.89-1.45,.78-.45,.08-1.67-.71-1.21h0Z"/></g><g><path class="cls-2" d="M205.48,13.41c-.01-3.17-.17-6.46,1.54-9.27,1.56-2.56,5.78-2.23,8.38-2.56,2.41-.3,5.14-.26,7.56-.06,2.64,.21,5.82,.31,6.51,3.43,.19,.89,1.55,.51,1.35-.37-.6-2.75-2.61-3.74-5.2-4.13-3.35-.51-6.86-.58-10.23-.27-3.04,.28-6.83,.24-9.09,2.58-2.57,2.66-2.25,7.27-2.24,10.65,0,.91,1.41,.91,1.41,0h0Z"/><path class="cls-2" d="M229.47,4.9c1.26,6.22,2,13.3,.31,19.5-.24,.88,1.12,1.25,1.35,.37,1.77-6.46,1-13.76-.31-20.24-.18-.89-1.53-.51-1.35,.37h0Z"/><path class="cls-2" d="M214.22,14.9c.05-.9,.19-1.77,.1-2.67-.11-1.11-.27-1.71,.99-1.87,1.52-.19,3.33-.2,4.85,.03,1.43,.22,.68,7.18,.4,8.23-.23,.88,1.12,1.25,1.35,.37,.49-1.88,.44-3.97,.35-5.89-.07-1.45-.11-3.54-1.73-4.07-.95-.31-2.18-.15-3.18-.16-1.1,0-2.22,.02-3.29,.3-.66,.17-1.14,.64-1.21,1.33-.14,1.44,.03,2.94-.06,4.39-.05,.91,1.35,.9,1.41,0h0Z"/><path class="cls-2" d="M220.57,18.61c-.81,3.62-6.13,5.34-9.06,6.82-2.69,1.36-5.37,3.42-6.55,6.31-1.06,2.6-.8,5.55-.82,8.3-.02,2.78-.07,5.56-.07,8.34,0,.91,1.4,.91,1.41,0,0-2.65,.05-5.3,.07-7.95,.03-2.94-.37-6.24,1.1-8.91,1.94-3.51,5.78-4.95,9.17-6.65,2.48-1.25,5.47-2.98,6.11-5.89,.2-.88-1.16-1.26-1.35-.37h0Z"/><path class="cls-2" d="M205.01,49.17c8.59,.01,17.18,.34,25.76-.08,.9-.04,.91-1.45,0-1.41-8.58,.42-17.18,.09-25.76,.08-.91,0-.91,1.4,0,1.41h0Z"/><path class="cls-2" d="M230.07,39.96c.34,2.68-.05,5.36-.08,8.04-.01,.91,1.39,.91,1.41,0,.03-2.69,.42-5.36,.08-8.04-.11-.89-1.52-.9-1.41,0h0Z"/><path class="cls-2" d="M215.16,40.27c5.13,.03,10.25,.03,15.38-.08,.9-.02,.91-1.42,0-1.41-5.13,.11-10.25,.11-15.38,.08-.91,0-.91,1.4,0,1.41h0Z"/><path class="cls-2" d="M229.78,24.39c-.62,2.26-2.61,3.29-4.51,4.33-1.96,1.07-3.84,2.3-5.8,3.36-2.82,1.52-4.88,3.86-5.01,7.17-.04,.91,1.37,.9,1.41,0,.18-4.61,5.3-6.62,8.79-8.59,2.62-1.48,5.62-2.74,6.49-5.9,.24-.88-1.12-1.25-1.35-.37h0Z"/><path class="cls-2" d="M204.09,12.97c-.02,1.34,.11,2.75,1.78,2.84,2.41,.13,4.89-.01,7.3-.21,.9-.07,.9-1.48,0-1.41-1.57,.13-3.13,.23-4.71,.2-.59,0-1.15-.01-1.74,.02-1.1,.06-1.23-.58-1.22-1.45,.02-.91-1.39-.91-1.41,0h0Z"/><path class="cls-2" d="M212.68,15.01c-.4,.64-1,1.12-1.41,1.76-.48,.77,.73,1.47,1.21,.71,.4-.64,1-1.12,1.41-1.76,.48-.77-.73-1.47-1.21-.71h0Z"/><path class="cls-2" d="M211.69,16.45c-2.1,.62-4.76,.89-6.94,.5-2.97-.53-1.62-6.7-1.27-8.42,.65-3.18,2.13-4.96,5.25-5.83,.87-.24,.5-1.6-.37-1.35-4.65,1.3-5.96,4.56-6.64,9.16-.28,1.9-.61,6.21,1.57,7.35,2.43,1.28,6.25,.7,8.78-.05,.87-.25,.5-1.61-.37-1.35h0Z"/><path class="cls-2" d="M209.81,26.47c-4.33,2.96-8.21,5.51-8.36,11.19-.07,2.78-.05,5.57,.11,8.35,.09,1.42,0,3.98,1.16,5.05,.66,.61,1.66-.38,.99-.99-.99-.91-.74-3.86-.8-5.07-.11-2.18-.11-4.36-.07-6.55,.04-2.39,.28-4.35,1.88-6.28,1.58-1.9,3.79-3.12,5.8-4.49,.74-.51,.04-1.73-.71-1.21h0Z"/><path class="cls-2" d="M214.22,12.71c.42,0,4.36-.3,4.36,.1,0,1.44-.06,2.85-.29,4.28-.55,3.5-2.15,5.82-5.28,7.59-.79,.44-.08,1.66,.71,1.21,3.67-2.07,5.47-4.92,6.02-9.04,.17-1.29,.79-3.81,.08-5.03-.78-1.34-4.38-.53-5.59-.51-.91,.01-.91,1.42,0,1.41h0Z"/><path class="cls-2" d="M229.96,48.36c-.49,.57-.84,1.23-1.33,1.8-.59,.68,.4,1.68,.99,.99,.49-.57,.84-1.23,1.33-1.8,.59-.68-.4-1.68-.99-.99h0Z"/><path class="cls-2" d="M203.03,51.25c4.05,.6,8.02,.29,12.1,.35,4.54,.06,9.08-.08,13.61-.09,.91,0,.91-1.41,0-1.41-4.26,0-8.52,.11-12.77,.1-4.21-.02-8.38,.31-12.57-.31-.89-.13-1.27,1.22-.37,1.35h0Z"/><path class="cls-2" d="M204.73,47.94c-.79,.46-1.46,1.11-2.17,1.67-.3,.24-.25,.75,0,.99,.29,.29,.69,.24,.99,0,.62-.49,1.2-1.05,1.89-1.45,.78-.45,.08-1.67-.71-1.21h0Z"/></g><g><path class="cls-2" d="M300.95,321.61c-.32-2.59-.18-5.31,0-7.91,.22-3.4,2.18-4.88,5.28-5.7,2.62-.7,5.28-.59,7.96-.51,2.39,.07,4.69,.1,7.04,.7,.88,.23,1.25-1.13,.37-1.35-2.73-.7-5.45-.69-8.24-.77-3.22-.09-6.28,.05-9.34,1.16-2.15,.78-3.48,2.14-4.14,4.3-.9,2.99-.71,7.05-.33,10.09,.11,.89,1.52,.9,1.41,0h0Z"/><path class="cls-2" d="M321.05,308.12c3.1,1.59,3.53,7.25,3.67,10.28,.09,1.85-.13,3.71-.2,5.56-.08,2.37-.15,4.18-1.9,5.87-.3,.29-.28,.92,.14,1.1,2.96,1.3,2.8,5.71,2.82,8.44,.03,4.07,1.13,10.64-3.05,13.05-.78,.45-.08,1.67,.71,1.21,4.66-2.68,3.79-9.35,3.75-13.9-.03-3.3,.09-8.43-3.52-10.01,.05,.37,.09,.74,.14,1.1,1.59-1.54,2.06-2.54,2.25-4.87,.2-2.48,.28-5.06,.26-7.55-.04-3.55-.77-9.64-4.37-11.49-.8-.41-1.52,.8-.71,1.21h0Z"/><path class="cls-2" d="M299.23,340.15c.04,3.26,.06,6.69,.43,9.92,.32,2.78,2.23,3.77,4.72,4.42,3.47,.91,7.07,.81,10.62,.69,2.88-.1,5.65-.12,8.24-1.56,.79-.44,.08-1.65-.71-1.21-2.36,1.31-4.92,1.28-7.53,1.37-2.94,.1-5.84,.17-8.75-.32-1.43-.24-3.19-.54-4.32-1.5-1.11-.94-.97-2.91-.98-4.21-.01-2.54-.28-5.07-.31-7.6-.01-.91-1.42-.91-1.41,0h0Z"/><path class="cls-2" d="M309.38,345.37c.1-1.56-.14-3.12-.23-4.67-.05-.8-.64-1.18-1.34-1.42-.92-.32-2.04-.21-3-.19-1.53,.04-3.03-.07-4.56,.12-.89,.11-.9,1.51,0,1.41,1.9-.23,3.81-.14,5.73-.14,1.25,0,1.75,.13,1.88,1.45,.11,1.14,.2,2.31,.13,3.45-.06,.91,1.34,.9,1.41,0h0Z"/><path class="cls-2" d="M300.63,322.39c2.71,.36,5.36,.67,8.07,.13,.89-.17,.51-1.53-.37-1.35-2.58,.51-5.13,.16-7.7-.18-.9-.12-.88,1.29,0,1.41h0Z"/><path class="cls-2" d="M309.22,321.85c-.02-1.9-.22-3.81,0-5.7,.1-.9-1.3-.89-1.41,0-.22,1.9-.02,3.8,0,5.7,0,.91,1.41,.91,1.41,0h0Z"/><path class="cls-2" d="M309.25,316.56c.61-.52,5.57-.92,6.15-.15,.75,1,.41,3.26,.41,4.44,0,1.54,.06,3.09-.02,4.63-.03,.64-.16,1.28-.25,1.91-.11,.72-1.86,.52-2.45,.6-2.04,.26-1.41,2.62-1.43,4.15-.02,1.21,.82,2.05,2.05,2.15,.65,.05,1.32-.07,1.97,.03,1.29,.2,1.13,2.63,1.12,3.5-.02,2.03-.17,4.06-.31,6.08-.15,2.09-1.62,1.97-3.23,1.99-.42,0-3.82,.21-3.87-.54-.06-.9-1.47-.91-1.41,0,.18,2.75,4.4,1.94,6.35,1.94,2.7,0,3.42-1.33,3.6-3.81,.19-2.75,.63-5.8,0-8.52-.48-2.09-2.22-2.04-3.95-2.07-.87-.01-.91-.67-.9-1.4,.02-.95-.37-2.1,.83-2.2,.86-.07,2.01,0,2.68-.66,1.24-1.24,.66-5.64,.64-7.04-.02-1.56,.68-6.84-2.1-6.91-1.86-.05-5.35-.43-6.86,.86-.69,.59,.31,1.58,.99,.99h0Z"/><path class="cls-2" d="M309.14,318.91c.82-.01,1.62-.06,2.43-.16,.39-.05,1.82-.63,1.81,0,0,.87-.11,1.75-.13,2.62-.03,2.2-.12,4.43,.04,6.63,.06,.9,1.47,.9,1.41,0-.19-2.68-.09-5.42,0-8.1,.03-.87,.35-1.86-.42-2.5-.45-.38-1.09-.32-1.63-.26-1.18,.12-2.31,.35-3.51,.37-.91,.02-.91,1.42,0,1.41h0Z"/><path class="cls-2" d="M312.35,328.28c-1.49,.62-3.04,.76-3.03,2.61,.01,1.51-.08,3.5,.75,4.83,.26,.42,.84,.58,1.3,.62,.81,.07,2.47-.09,2.63,1.18,.09,.71-.1,1.48-.12,2.19-.03,2.08,.27,4.31-.21,6.35-.21,.88,1.15,1.26,1.35,.37,.36-1.53,.28-3.18,.29-4.74,.01-1.67,.42-3.81-.19-5.35-.66-1.68-3.65-.7-4.04-1.7-.35-.91-.31-2.01-.35-2.97-.06-1.46,.69-1.5,1.98-2.04,.82-.34,.46-1.7-.37-1.35h0Z"/><path class="cls-2" d="M308.22,321.49c-.5,.96-1.36,1.67-2.15,2.39-.67,.61,.33,1.6,.99,.99,.88-.8,1.82-1.61,2.37-2.68,.42-.8-.79-1.51-1.21-.71h0Z"/><path class="cls-2" d="M301.39,308.76c-1.81,1.76-3.04,3.8-3.97,6.13-.86,2.16-.64,4.73-.4,7.01,.12,1.14,.59,2.84,1.98,2.95,2.51,.2,4.8,.48,7.34,.4,.9-.03,.91-1.44,0-1.41-1.67,.06-3.36,.18-5.01-.07-2.08-.31-2.91-.65-2.98-3-.05-1.91-.23-3.64,.43-5.51,.75-2.11,2.01-3.96,3.61-5.51,.65-.63-.34-1.62-.99-.99h0Z"/><path class="cls-2" d="M299.04,339.97c-.8,.83-1.46,1.78-2.26,2.61-.63,.65,.36,1.65,.99,.99,.8-.83,1.46-1.78,2.26-2.61,.63-.65-.36-1.65-.99-.99h0Z"/><path class="cls-2" d="M296.5,343.31c-.26,3.26-.43,6.53,.51,9.7,.88,3,5.13,3.56,7.68,3.9,4.33,.58,9.02,.91,13.35,.12,1.77-.32,3.22-.75,4.63-1.88,1.33-1.06,1.85-2.07,2.69-3.53,.45-.79-.76-1.49-1.21-.71-.59,1.02-.98,2.03-1.91,2.79-1.81,1.5-3.78,1.92-6.08,2.13-3.49,.33-7.11,.26-10.58-.22-3.21-.45-6.86-.73-7.57-4.5-.49-2.59-.32-5.2-.11-7.81,.07-.9-1.33-.9-1.41,0h0Z"/></g><g><path class="cls-2" d="M2.88,101.67c0,4.74-.13,9.48-.12,14.23,.01,4.62,.36,9.26-.04,13.88-.08,.9,1.33,.9,1.41,0,.38-4.4,.08-8.83,.04-13.24-.05-4.95,.11-9.91,.12-14.86,0-.91-1.4-.91-1.41,0h0Z"/><path class="cls-2" d="M3.74,130.48c5.25,.19,10.52,.15,15.77,.16,.91,0,.91-1.4,0-1.41-5.25,0-10.52,.03-15.77-.16-.91-.03-.9,1.37,0,1.41h0Z"/><path class="cls-2" d="M18.81,129.94c.01,5.83,.3,11.66,.31,17.49,0,.91,1.41,.91,1.41,0-.01-5.83-.3-11.66-.31-17.49,0-.91-1.41-.91-1.41,0h0Z"/><path class="cls-2" d="M19.82,148.28c3.23-.12,6.46,.26,9.68-.16,.89-.11,.9-1.52,0-1.41-3.22,.41-6.45,.04-9.68,.16-.9,.03-.91,1.44,0,1.41h0Z"/><path class="cls-2" d="M28.8,101.21c.04,15.41,.33,30.82,.16,46.22-.01,.91,1.39,.91,1.41,0,.18-15.4-.11-30.81-.16-46.22,0-.91-1.41-.91-1.41,0h0Z"/><path class="cls-2" d="M11.78,101.52c.11,3.62-.34,7.24-.28,10.88,.04,2.72,.11,5.45,.12,8.17,0,.91,1.41,.91,1.41,0-.01-2.56-.07-5.13-.12-7.69-.06-3.79,.38-7.58,.27-11.35-.03-.9-1.43-.91-1.41,0h0Z"/><path class="cls-2" d="M12.33,121.27c2.39,.12,4.79-.06,7.18,.16,.9,.08,.9-1.33,0-1.41-2.39-.21-4.79-.03-7.18-.16-.91-.05-.9,1.36,0,1.41h0Z"/><path class="cls-2" d="M18.96,101.21c-.24,6.48,.3,13.04-.16,19.52-.06,.9,1.34,.9,1.41,0,.45-6.48-.08-13.03,.16-19.52,.03-.91-1.37-.9-1.41,0h0Z"/><path class="cls-2" d="M19.67,101.91c3.23,0,6.45-.1,9.68,0,.91,.03,.9-1.38,0-1.41-3.23-.1-6.45,0-9.68,0-.91,0-.91,1.41,0,1.41h0Z"/><path class="cls-2" d="M3.43,101.91c3.02,.01,6.04,.15,9.06,.16,.91,0,.91-1.4,0-1.41-3.02,0-6.04-.14-9.06-.16-.91,0-.91,1.4,0,1.41h0Z"/><path class="cls-2" d="M19.31,100.6c-1.12,.57-2.21,1.54-2.83,2.63-.45,.79,.77,1.5,1.21,.71,.51-.9,1.41-1.66,2.32-2.13,.81-.41,.1-1.63-.71-1.21h0Z"/><path class="cls-2" d="M16.39,103.43c-.07,2.91-.06,5.8-.12,8.71-.06,2.7-.19,5.5-.12,8.2,.02,.9,1.43,.91,1.41,0-.07-2.47,.23-4.9,.12-7.38-.14-3.19,.03-6.34,.12-9.53,.02-.91-1.38-.9-1.41,0h0Z"/><path class="cls-2" d="M3.01,100.71c-.78,.81-1.33,1.78-2.03,2.65-.56,.7,.43,1.7,.99,.99,.7-.87,1.25-1.85,2.03-2.65,.63-.65-.36-1.64-.99-.99h0Z"/><path class="cls-2" d="M.38,104.48s-.08,18.56,0,27.87c0,.91,1.41,.95,1.41,.04-.08-9.31,0-18.54,0-27.91,0-.94-1.4-.94-1.41,0,0,0,0-.94,0,0Z"/><path class="cls-2" d="M1.08,133.14c5.15-.08,10.31,0,15.46-.08,.91-.02,.91-1.42,0-1.41-5.15,.09-10.31,0-15.46,.08-.91,.01-.91,1.42,0,1.41h0Z"/><path class="cls-2" d="M16.23,132.43c.13,5.85,.02,11.86,.7,17.68,.1,.89,1.51,.9,1.41,0-.68-5.82-.57-11.83-.7-17.68-.02-.9-1.43-.91-1.41,0h0Z"/><path class="cls-2" d="M18.53,130.03c-.81,.61-1.49,1.31-2.17,2.06-.61,.67,.38,1.67,.99,.99,.6-.66,1.18-1.3,1.89-1.84,.3-.23,.46-.6,.25-.96-.18-.3-.66-.48-.96-.25h0Z"/><path class="cls-2" d="M28.97,147.3c-.44,.78-.9,1.53-1.24,2.35-.15,.35,.16,.77,.49,.86,.4,.11,.72-.14,.86-.49,.29-.71,.73-1.35,1.1-2.02,.44-.79-.77-1.5-1.21-.71h0Z"/><path class="cls-2" d="M18.98,147.54c-.43,.65-.9,1.27-1.37,1.89-.23,.3-.3,.7,0,.99,.25,.25,.76,.3,.99,0,.55-.71,1.09-1.43,1.59-2.17,.51-.75-.71-1.46-1.21-.71h0Z"/><path class="cls-2" d="M17.95,150.78c3.41,.11,6.83,.2,10.23-.16,.89-.09,.9-1.5,0-1.41-3.4,.36-6.82,.26-10.23,.16-.91-.03-.9,1.38,0,1.41h0Z"/><path class="cls-2" d="M3.23,128.86c-.97,.75-1.43,1.82-2.17,2.76-.56,.7,.43,1.7,.99,.99,.63-.8,1.07-1.91,1.89-2.54,.3-.23,.46-.6,.25-.96-.17-.3-.66-.49-.96-.25h0Z"/></g><g><path class="cls-2" d="M299.26,98.97s15.77-.08,23.65-.16c.91,0,.91-1.41,0-1.41-7.88,.08-15.69,.15-23.65,.16-.94,0-.94,1.41,0,1.41,0,0-.94,0,0,0Z"/><path class="cls-2" d="M298.87,123.33c0-4.22-.12-8.44-.19-12.66-.04-2.2-.08-4.41-.11-6.61-.02-1.46-.75-5.15,1.16-5.09,.91,.03,.9-1.37,0-1.41-1.54-.05-2.38,.5-2.51,2.12-.18,2.36-.05,4.77-.02,7.14,.09,5.5,.25,11,.26,16.5,0,.91,1.41,.91,1.41,0h0Z"/><path class="cls-2" d="M298.17,124.11c2.82-.01,5.74,.01,8.51-.63,1.39-.32,2.4-.49,3.88-.45,.83,.02,1.65,.12,2.45,.31,1.55,.36,1.44,1.71,1.53,3.01,.15,2.08,.04,4.17-.08,6.25-.06,1.06-.04,2.82-1.32,3.3-.76,.28-1.78,.13-2.57,.08-.88-.06-2.1,.06-2.83-.53-.88-.7-.55-3.15-.44-4.16,.1-.9-1.31-.89-1.41,0-.17,1.62-.51,4.65,1.36,5.56,1.52,.74,4.12,.84,5.75,.51,1.91-.39,2.54-1.65,2.74-3.5,.32-2.97,.37-6,.07-8.98-.35-3.51-5.01-3.65-7.79-3.21-.76,.12-1.48,.41-2.24,.57-2.48,.52-5.12,.46-7.63,.47-.91,0-.91,1.41,0,1.41h0Z"/><path class="cls-2" d="M322.37,98.19c.01,2.99,.14,5.99,0,8.98l.7-.7c-5.23-.02-10.46,.01-15.69,.16-.9,.03-.91,1.43,0,1.41,5.23-.14,10.46-.17,15.69-.16,.4,0,.69-.32,.7-.7,.14-2.99,.01-5.98,0-8.98,0-.91-1.41-.91-1.41,0h0Z"/><path class="cls-2" d="M306.29,107.25c.14,2.29,.2,4.58,.23,6.87,.01,.91,1.42,.91,1.41,0-.04-2.29-.1-4.58-.23-6.87-.05-.9-1.46-.91-1.41,0h0Z"/><path class="cls-2" d="M307.3,114.82c2.86-.07,5.92-.96,8.75-.41,2.95,.57,5.36,2.99,6.42,5.69,1.78,4.54,1.28,10.14,1.1,14.92-.09,2.37-.4,5.92-1.92,7.81-1.76,2.2-6.47,1.6-8.95,1.64-2.43,.04-4.87,.06-7.3-.14-1.22-.1-2.84,.08-3.79-.73-.64-.54-1.62-1.38-1.9-2.19-.29-.85-1.65-.49-1.35,.37,1.7,4.9,7.92,4.11,11.98,4.11,3.37,0,7.31,.39,10.5-.84,2.95-1.14,3.4-4.55,3.87-7.29,.46-2.68,.35-5.48,.36-8.19,0-3.51-.17-7.13-1.47-10.43-1.04-2.65-3.25-4.49-5.81-5.62-3.25-1.45-7.09-.18-10.49-.1-.9,.02-.91,1.43,0,1.41h0Z"/><path class="cls-2" d="M306.52,129.96c-2.96,.06-5.93,.02-8.9,.08-.37,0-.72,.31-.7,.7,.1,2.37,.31,4.79,.56,7.16,.17,1.59,.38,3.37,1.26,4.75,.48,.76,1.7,.06,1.21-.71-.92-1.45-1.03-3.49-1.17-5.15-.17-2-.37-4.05-.45-6.05l-.7,.7c2.97-.06,5.94-.02,8.9-.08,.9-.02,.91-1.42,0-1.41h0Z"/><path class="cls-2" d="M297.58,98.25c-1.01,.7-1.87,1.57-2.44,2.67-.41,.8,.8,1.52,1.21,.71,.46-.89,1.12-1.6,1.93-2.17,.74-.51,.04-1.73-.71-1.21h0Z"/><path class="cls-2" d="M295.29,100.61c-.6,1.07-.39,2.73-.4,3.89-.02,2.25,.1,4.5,.1,6.75,0,4.37,.14,8.69,.28,13.06,.03,.9,1.43,.91,1.41,0-.12-3.88-.37-7.71-.3-11.59,.04-2.15-.04-4.3-.07-6.45-.02-1.27-.46-3.79,.19-4.94,.44-.79-.77-1.5-1.21-.71h0Z"/><path class="cls-2" d="M295.28,124.3c.15,1.18,.67,2.05,1.97,2.15,2.65,.2,5.51-.15,8.16-.37,1.5-.13,2.99-.35,4.49-.48,2.04-.19,2.35,.48,2.25,2.49-.06,1.19,.13,2.4,.16,3.6,.03,1.42-.51,2.89-.72,4.3-.13,.89,1.22,1.27,1.35,.37,.38-2.53,.81-4.62,.64-7.19-.09-1.31,.52-4.02-1.1-4.68-2.11-.86-4.92-.01-7.07,.19-1.06,.1-8.51,1.24-8.72-.37-.12-.89-1.52-.9-1.41,0h0Z"/><path class="cls-2" d="M297.9,122.99c-.56,.48-1.08,1-1.64,1.48-.29,.25-.26,.74,0,.99,.28,.29,.7,.25,.99,0,.56-.48,1.08-1,1.64-1.48,.29-.25,.26-.74,0-.99-.29-.29-.7-.25-.99,0h0Z"/><path class="cls-2" d="M322.37,106.87c-.5,.83-1.27,1.46-2,2.08-.69,.59,.31,1.58,.99,.99,.83-.7,1.66-1.43,2.22-2.37,.47-.78-.75-1.49-1.21-.71h0Z"/><path class="cls-2" d="M307.46,110.39c4.43-.01,8.86-.16,13.29-.23,.91-.02,.91-1.42,0-1.41-4.43,.07-8.86,.22-13.29,.23-.91,0-.91,1.41,0,1.41h0Z"/><path class="cls-2" d="M297.19,130.29c-.86,.63-1.36,1.54-2.09,2.3-.63,.65,.36,1.64,.99,.99,.63-.65,1.07-1.53,1.81-2.08,.31-.23,.46-.6,.25-.96-.18-.3-.65-.48-.96-.25h0Z"/><path class="cls-2" d="M294.81,133.63c-.2,2.07,.11,4.11,.44,6.15,.27,1.63,.44,3.42,1.49,4.76,2.79,3.55,6.51,3.83,10.76,3.86,3.7,.02,7.29-.32,10.9-1.16,2.23-.52,4.17-1.9,4.88-4.22,.27-.87-1.09-1.24-1.35-.37-.73,2.36-2.82,3.01-4.94,3.47-2.91,.62-5.77,.81-8.73,.87-3.86,.07-7.43,.01-10.19-3.03-1.1-1.21-1.2-3.03-1.46-4.56-.32-1.91-.58-3.83-.39-5.77,.09-.9-1.32-.89-1.41,0h0Z"/></g><g><path class="cls-2" d="M121.51,395.84c-4.04-.46-8.57-.69-12.6,.03-1.94,.35-3.52,1.29-4.89,2.69-1.54,1.57-1.77,3.5-1.99,5.57-.61,5.75-.76,11.42-.77,17.2,0,2.94-.04,5.88,.02,8.82,.05,2.59-.12,5.46,.32,8.01,.73,4.31,3.6,5.48,7.6,5.73,4.25,.27,8.56,.2,12.73-.73,4.38-.97,6.42-4.92,6.98-8.95,.59-4.25,.49-9.5-.86-13.62-.28-.86-1.64-.49-1.35,.37,1.16,3.54,1.18,7.76,.98,11.45-.12,2.31-.45,4.84-1.96,6.69-1.48,1.81-3.64,2.77-5.92,2.92-1.57,.1-3.1,.52-4.66,.65-1.75,.14-3.58-.07-5.34-.15-2.3-.11-4.53-.08-5.98-2.15-1.22-1.74-.91-4.18-.97-6.17-.29-8.94-.8-18.28,.24-27.19,.25-2.14,.2-4.62,1.25-6.54,1.15-2.11,3.52-3.11,5.78-3.33,3.77-.36,7.65-.32,11.41,.1,.9,.1,.89-1.3,0-1.41h0Z"/><path class="cls-2" d="M128.05,420.6c-1.05-3.16-3.79-5.23-7.02-5.64-3.37-.43-7.11-.42-10.47,.12-.89,.14-.51,1.5,.37,1.35,2.39-.39,4.91-.32,7.32-.25,3.59,.09,7.16,.94,8.44,4.8,.28,.86,1.64,.49,1.35-.37h0Z"/><path class="cls-2" d="M121.05,410.4c.04-1.96,.26-4.12-1.22-5.64-1.37-1.4-4.28-1.04-6.01-.89-1.75,.15-2.72,1.1-3.19,2.75-.8,2.75-.55,5.85-.58,8.66-.01,.91,1.39,.91,1.41,0,.02-1.74,0-3.39,.15-5.14,.12-1.5-.08-4.22,1.73-4.77,1.38-.42,3.49-.3,4.86,.06,1.97,.52,1.49,3.46,1.46,4.98-.02,.91,1.39,.9,1.41,0h0Z"/><path class="cls-2" d="M121.51,397.25c5.02,.42,5.43,5.28,5.72,9.19,.06,.86,0,1.73-.01,2.6-.03,1.43-.49,1.21-1.69,1.14-1.76-.1-3.54-.25-5.3-.05-.89,.1-.9,1.51,0,1.41,2.38-.27,4.76,.13,7.14,.12,.24,0,.5-.13,.61-.35,.78-1.54,.73-3.16,.66-4.86-.07-1.64-.08-3.42-.5-5.01-.82-3.1-3.48-5.33-6.62-5.59-.9-.08-.9,1.33,0,1.41h0Z"/><path class="cls-2" d="M109.57,424.88c-.16,2.23-.07,4.54,.05,6.77,.09,1.59,.32,3.46,1.99,4.09,2.16,.82,4.46,.82,6.55-.25,1.37-.7,1.61-2.29,1.82-3.64,.37-2.44,1-7.78-1.86-9.11-1.93-.89-7.69-1.08-8.41,1.59-.24,.88,1.12,1.25,1.35,.37,.43-1.59,6.18-1.36,7-.23,1.32,1.83,.81,5.34,.5,7.41-.22,1.43-.5,2.26-2.09,2.8-1.65,.55-4.7,.48-5.25-1.57-.66-2.44-.42-5.75-.25-8.24,.06-.9-1.34-.9-1.41,0h0Z"/><path class="cls-2" d="M126.76,410.51c-.67,.67-1.34,1.35-2.14,1.88-.75,.5-.05,1.71,.71,1.21,.9-.59,1.67-1.34,2.43-2.1,.64-.64-.35-1.63-.99-.99h0Z"/><path class="cls-2" d="M118.41,413.46c2.18,.2,4.37,.23,6.56,.23,.91,0,.91-1.4,0-1.41-2.19,0-4.38-.04-6.56-.23-.9-.08-.89,1.32,0,1.41h0Z"/><path class="cls-2" d="M119.5,410.04c-.59,.69-.92,1.6-1.58,2.22-.66,.63,.34,1.62,.99,.99,.67-.64,.98-1.53,1.58-2.22,.59-.68-.4-1.68-.99-.99h0Z"/><path class="cls-2" d="M118.78,412.35c-.77-1.65,.74-4.69-1.08-5.87-.79-.51-2.06-.46-2.95-.46-1.2,0-2.51,.13-3.64,.56-.84,.32-.48,1.68,.37,1.35,1.47-.55,4.03-.93,5.51-.24,.42,.2,.22,2.6,.22,3.02,.01,.79,0,1.62,.35,2.35,.38,.82,1.59,.11,1.21-.71h0Z"/><path class="cls-2" d="M116.73,435.22c.85-2.48,1.55-6.12,.75-8.67-.82-2.62-5.6-1.7-7.4-.94-.83,.35-.12,1.56,.71,1.21,1.01-.42,2.16-.51,3.24-.52,1.54-.02,2.22,.4,2.3,1.92,.11,2.16-.25,4.58-.95,6.63-.29,.86,1.06,1.23,1.35,.37h0Z"/><path class="cls-2" d="M107.67,396.1c-7.19,1.08-8.29,7.56-8.88,13.77-.39,4.05-.06,8.07-.14,12.12-.1,4.47-.32,9.01-.02,13.48,.21,3.13,.62,7.12,3.32,9.2,2.28,1.76,5.92,1.52,8.67,1.71,3.17,.22,6.78,.02,9.89-.59,2.99-.58,4.72-3.34,6.22-5.72,.48-.77-.73-1.47-1.21-.71-1.78,2.82-3.4,5.03-6.96,5.27-2.63,.18-5.3,.49-7.94,.34-2.59-.15-6.31,.07-8.26-1.83-2.7-2.63-2.47-7.93-2.44-11.38,.05-6.56-.23-13.23,.13-19.78,.17-3.03,.5-6.06,1.34-8.98,.97-3.36,3.27-5.04,6.67-5.55,.89-.13,.51-1.49-.37-1.35h0Z"/></g><g><path class="cls-2" d="M224.06,395.84c-4.04-.46-8.57-.69-12.6,.03-1.94,.35-3.52,1.29-4.89,2.69-1.54,1.57-1.77,3.5-1.99,5.57-.61,5.75-.76,11.42-.77,17.2,0,2.94-.04,5.88,.02,8.82,.05,2.59-.12,5.46,.32,8.01,.73,4.31,3.6,5.48,7.6,5.73,4.25,.27,8.56,.2,12.73-.73,4.38-.97,6.42-4.92,6.98-8.95,.59-4.25,.49-9.5-.86-13.62-.28-.86-1.64-.49-1.35,.37,1.16,3.54,1.18,7.76,.98,11.45-.12,2.31-.45,4.84-1.96,6.69-1.48,1.81-3.64,2.77-5.92,2.92-1.57,.1-3.1,.52-4.66,.65-1.75,.14-3.58-.07-5.34-.15-2.3-.11-4.53-.08-5.98-2.15-1.22-1.74-.91-4.18-.97-6.17-.29-8.94-.8-18.28,.24-27.19,.25-2.14,.2-4.62,1.25-6.54,1.15-2.11,3.52-3.11,5.78-3.33,3.77-.36,7.65-.32,11.41,.1,.9,.1,.89-1.3,0-1.41h0Z"/><path class="cls-2" d="M230.59,420.6c-1.05-3.16-3.79-5.23-7.02-5.64-3.37-.43-7.11-.42-10.47,.12-.89,.14-.51,1.5,.37,1.35,2.39-.39,4.91-.32,7.32-.25,3.59,.09,7.16,.94,8.44,4.8,.28,.86,1.64,.49,1.35-.37h0Z"/><path class="cls-2" d="M223.59,410.4c.04-1.96,.26-4.12-1.22-5.64-1.37-1.4-4.28-1.04-6.01-.89-1.75,.15-2.72,1.1-3.19,2.75-.8,2.75-.55,5.85-.58,8.66-.01,.91,1.39,.91,1.41,0,.02-1.74,0-3.39,.15-5.14,.12-1.5-.08-4.22,1.73-4.77,1.38-.42,3.49-.3,4.86,.06,1.97,.52,1.49,3.46,1.46,4.98-.02,.91,1.39,.9,1.41,0h0Z"/><path class="cls-2" d="M224.06,397.25c5.02,.42,5.43,5.28,5.72,9.19,.06,.86,0,1.73-.01,2.6-.03,1.43-.49,1.21-1.69,1.14-1.76-.1-3.54-.25-5.3-.05-.89,.1-.9,1.51,0,1.41,2.38-.27,4.76,.13,7.14,.12,.24,0,.5-.13,.61-.35,.78-1.54,.73-3.16,.66-4.86-.07-1.64-.08-3.42-.5-5.01-.82-3.1-3.48-5.33-6.62-5.59-.9-.08-.9,1.33,0,1.41h0Z"/><path class="cls-2" d="M212.12,424.88c-.16,2.23-.07,4.54,.05,6.77,.09,1.59,.32,3.46,1.99,4.09,2.16,.82,4.46,.82,6.55-.25,1.37-.7,1.61-2.29,1.82-3.64,.37-2.44,1-7.78-1.86-9.11-1.93-.89-7.69-1.08-8.41,1.59-.24,.88,1.12,1.25,1.35,.37,.43-1.59,6.18-1.36,7-.23,1.32,1.83,.81,5.34,.5,7.41-.22,1.43-.5,2.26-2.09,2.8-1.65,.55-4.7,.48-5.25-1.57-.66-2.44-.42-5.75-.25-8.24,.06-.9-1.34-.9-1.41,0h0Z"/><path class="cls-2" d="M229.3,410.51c-.67,.67-1.34,1.35-2.14,1.88-.75,.5-.05,1.71,.71,1.21,.9-.59,1.67-1.34,2.43-2.1,.64-.64-.35-1.63-.99-.99h0Z"/><path class="cls-2" d="M220.96,413.46c2.18,.2,4.37,.23,6.56,.23,.91,0,.91-1.4,0-1.41-2.19,0-4.38-.04-6.56-.23-.9-.08-.89,1.32,0,1.41h0Z"/><path class="cls-2" d="M222.04,410.04c-.59,.69-.92,1.6-1.58,2.22-.66,.63,.34,1.62,.99,.99,.67-.64,.98-1.53,1.58-2.22,.59-.68-.4-1.68-.99-.99h0Z"/><path class="cls-2" d="M221.33,412.35c-.77-1.65,.74-4.69-1.08-5.87-.79-.51-2.06-.46-2.95-.46-1.2,0-2.51,.13-3.64,.56-.84,.32-.48,1.68,.37,1.35,1.47-.55,4.03-.93,5.51-.24,.42,.2,.22,2.6,.22,3.02,.01,.79,0,1.62,.35,2.35,.38,.82,1.59,.11,1.21-.71h0Z"/><path class="cls-2" d="M219.27,435.22c.85-2.48,1.55-6.12,.75-8.67-.82-2.62-5.6-1.7-7.4-.94-.83,.35-.12,1.56,.71,1.21,1.01-.42,2.16-.51,3.24-.52,1.54-.02,2.22,.4,2.3,1.92,.11,2.16-.25,4.58-.95,6.63-.29,.86,1.06,1.23,1.35,.37h0Z"/><path class="cls-2" d="M210.21,396.1c-7.19,1.08-8.29,7.56-8.88,13.77-.39,4.05-.06,8.07-.14,12.12-.1,4.47-.32,9.01-.02,13.48,.21,3.13,.62,7.12,3.32,9.2,2.28,1.76,5.92,1.52,8.67,1.71,3.17,.22,6.78,.02,9.89-.59,2.99-.58,4.72-3.34,6.22-5.72,.48-.77-.73-1.47-1.21-.71-1.78,2.82-3.4,5.03-6.96,5.27-2.63,.18-5.3,.49-7.94,.34-2.59-.15-6.31,.07-8.26-1.83-2.7-2.63-2.47-7.93-2.44-11.38,.05-6.56-.23-13.23,.13-19.78,.17-3.03,.5-6.06,1.34-8.98,.97-3.36,3.27-5.04,6.67-5.55,.89-.13,.51-1.49-.37-1.35h0Z"/></g><g><path class="cls-2" d="M103.83,25.37c-3.34-.46-2.23-9.95-2.16-12.35,.09-2.84,.16-6.87,2.91-8.52,2.59-1.56,7.04-.95,9.95-1.05,.9-.03,.91-1.44,0-1.41-3.5,.12-7.96-.38-11.09,1.5-2.77,1.67-2.98,5.92-3.14,8.75-.18,3.16-.25,6.4,.16,9.54,.24,1.81,.8,4.59,3,4.89,.89,.12,1.27-1.23,.37-1.35h0Z"/><path class="cls-2" d="M123.98,26.38c2.19-.63,2.37-2.68,2.52-4.68,.31-4.18,.31-8.38,.05-12.56-.13-2.03-.64-4.45-2.5-5.63-2.75-1.74-6.39-1.47-9.51-1.46-.91,0-.91,1.41,0,1.41,2.46,0,4.91-.04,7.31,.56,2.46,.62,3.11,2.91,3.29,5.12,.21,2.47,.19,4.99,.19,7.47,0,1.75,.56,7.76-1.72,8.41-.87,.25-.5,1.61,.37,1.35h0Z"/><path class="cls-2" d="M123.37,26.73c2.33,.62,2.3,4.84,2.4,6.7,.15,2.82-.03,5.64-.09,8.46-.08,3.62-1.02,6.52-4.99,6.8-2.86,.2-5.74-.01-8.6,.09-.9,.03-.91,1.44,0,1.41,3.51-.12,7.09,.27,10.57-.31,3.45-.57,4.4-4.68,4.42-7.57,.02-3.68,.32-7.35-.07-11.02-.23-2.18-.79-5.24-3.26-5.9-.88-.23-1.25,1.12-.37,1.35h0Z"/><path class="cls-2" d="M103.18,25.68c-2.44,1.32-2.57,4.11-2.65,6.6-.12,3.86-.3,7.72,.08,11.57,.22,2.24,.59,4.58,2.72,5.76,1.14,.63,2.63,.57,3.88,.61,1.8,.05,3.62,.05,5.42-.04,.9-.05,.91-1.45,0-1.41-2.25,.11-4.51,.09-6.75,0-3.34-.13-3.66-2.89-3.93-5.61-.27-2.76-.18-5.56-.1-8.32,.07-2.46-.49-6.58,2.04-7.94,.8-.43,.09-1.64-.71-1.21h0Z"/><path class="cls-2" d="M108.58,30.94c-1.04,.72-.97,2.16-.97,3.3,0,1.11,.1,2.22,.14,3.33,.04,1.04-.23,2.24,.02,3.25,.46,1.93,2.01,2.05,3.75,2.16,1.74,.11,5.04,.46,6.63-.47,1.53-.89,1.49-2.57,1.49-4.17,0-1.87,.39-4.62-.45-6.34-.88-1.82-2.83-1.46-4.59-1.41-1.85,.05-3.68-.21-5.51,.2-.88,.2-.51,1.55,.37,1.35,2.14-.48,4.54-.17,6.73-.18,2.51-.01,1.92,2.61,1.93,4.23,0,1.4,.2,2.76,0,4.16-.24,1.63-3.33,1.17-4.46,1.23-1.89,.1-4.69,.17-4.51-2.45,.09-1.26-.05-2.55-.11-3.82-.03-.62-.35-2.75,.24-3.16,.74-.51,.04-1.73-.71-1.21h0Z"/><path class="cls-2" d="M118.67,21.03c1.04-.72,.97-2.16,.97-3.3,0-1.11-.1-2.22-.14-3.33-.04-1.04,.23-2.24-.02-3.25-.46-1.93-2.01-2.05-3.75-2.16-1.74-.11-5.04-.46-6.63,.47-1.53,.89-1.49,2.57-1.49,4.17,0,1.88-.39,4.62,.45,6.34,.88,1.82,2.83,1.46,4.59,1.41,1.85-.05,3.68,.21,5.51-.2,.88-.2,.51-1.55-.37-1.35-2.14,.48-4.54,.17-6.73,.18-2.51,.02-1.92-2.61-1.93-4.23,0-1.4-.2-2.76,0-4.16,.24-1.63,3.33-1.17,4.46-1.23,1.89-.1,4.69-.17,4.51,2.45-.09,1.26,.05,2.55,.11,3.82,.03,.62,.35,2.75-.24,3.16-.74,.51-.04,1.73,.71,1.21h0Z"/><path class="cls-2" d="M108.88,13.09c1.46-.02,2.91-.11,4.36-.17,.56-.02,1.89-.12,2.17,.56,.4,.99,.25,2.33,.23,3.36-.02,1.2-.11,2.39-.13,3.58,0,.91,1.4,.91,1.41,0,.01-1.45,.12-2.9,.14-4.35,0-1.03,.14-2.78-.63-3.61-.57-.62-1.37-.86-2.19-.94-1.75-.18-3.61,.14-5.36,.16-.91,.01-.91,1.42,0,1.41h0Z"/><path class="cls-2" d="M108.74,34.6c2.09-.14,4.47-.36,6.53,.11,.83,.19,.19,5.95,.26,6.86,.07,.9,1.47,.9,1.41,0-.11-1.43,.06-2.9,.06-4.33,0-1.14,.07-2.6-.68-3.54-.58-.74-2.51-.56-3.3-.59-1.42-.04-2.86,0-4.28,.09-.9,.06-.91,1.46,0,1.41h0Z"/><path class="cls-2" d="M107.04,2.28c-5.46,.14-8.18,3.18-9.04,8.37-.49,2.97-.26,6.12-.15,9.11,.1,2.72,.64,5.3,2.51,7.38v-.99c-2.34,2.65-2.81,6.82-2.74,10.23,.04,2.4,.22,4.8,.44,7.19,.2,2.12,.32,4.8,1.68,6.56,1.43,1.84,3.2,2.17,5.43,2.3,3.28,.19,6.58-.07,9.86,.06,2.31,.09,4.75,.23,6.96-.54,2.05-.71,3.11-2.85,3.92-4.68,.36-.82-.85-1.54-1.21-.71-.9,2.06-1.89,3.85-4.26,4.37-1.95,.43-4.13,.2-6.11,.13-2.19-.08-4.37-.03-6.56,0-2.85,.04-6.16,.32-7.44-2.81-1.34-3.29-1.13-7.68-1.25-11.19-.11-3.22,.01-7.36,2.36-9.91,.27-.29,.26-.7,0-.99-3.13-3.5-2.41-9.68-2.2-14.05,.08-1.8,.55-3.73,1.39-5.33,1.27-2.4,3.9-3.02,6.41-3.08,.9-.02,.91-1.43,0-1.41h0Z"/><path class="cls-2" d="M100.95,27.34c.67,0,1.33-.11,1.99-.12,.91-.01,.91-1.42,0-1.41-.67,0-1.33,.11-1.99,.12-.91,.01-.91,1.42,0,1.41h0Z"/></g><g><path class="cls-1" d="M183.68,83.3c0,1.2,.01,2.4,.07,3.6,.03,.66-.03,1.65,.42,2.2,.35,.43,.96-.18,.61-.61-.3-.37-.17-1.68-.19-2.14-.04-1.01-.05-2.03-.05-3.05,0-.56-.87-.56-.87,0h0Z"/><path class="cls-1" d="M184.55,89.3c1.69,.01,3.37,.13,5.06,.14,.56,0,.56-.86,0-.87-1.69-.01-3.37-.13-5.06-.14-.56,0-.56,.86,0,.87h0Z"/><path class="cls-1" d="M189.24,89.16c.03,7.59-.13,15.17-.14,22.77,0,.56,.87,.56,.87,0,.01-7.59,.18-15.18,.14-22.77,0-.56-.87-.56-.87,0h0Z"/><path class="cls-1" d="M189.46,112.5c2.05,0,4.1-.07,6.14-.07,.56,0,.56-.87,0-.87-2.05,0-4.1,.07-6.14,.07-.56,0-.56,.87,0,.87h0Z"/><path class="cls-1" d="M195.24,83.52c0,9.44,.22,18.89-.07,28.33-.02,.56,.85,.56,.87,0,.29-9.44,.08-18.89,.07-28.33,0-.56-.87-.56-.87,0h0Z"/><path class="cls-1" d="M184.26,83.68c.43-.27,1.39-.14,1.88-.15,.82-.02,1.64,0,2.46,0,2.31,0,4.62,.13,6.94,.14,.56,0,.56-.87,0-.87-2.39-.01-4.77-.14-7.16-.15-.97,0-1.93,0-2.9,.02-.49,.02-1.21-.03-1.65,.25-.47,.3-.03,1.05,.44,.75h0Z"/><path class="cls-1" d="M184.29,82.78c-.93,.06-1.55,1.12-1.89,1.86-.23,.5,.51,.94,.75,.44,.16-.35,.35-.7,.6-1,.12-.14,.35-.42,.54-.43,.56-.03,.56-.9,0-.87h0Z"/><path class="cls-1" d="M182.34,85.04c-.02,1.55-.54,3.69,.37,5.07,.41,.63,1.05,.74,1.74,.75,1.28,0,2.55,.08,3.82,0,.56-.03,.56-.9,0-.87-.84,.05-1.68,.05-2.53,.03-.82-.02-2.1,.28-2.46-.71-.47-1.28-.08-2.94-.07-4.27,0-.56-.86-.56-.87,0h0Z"/><path class="cls-1" d="M187.78,90.42c-.15,.8-.02,1.64-.02,2.45,0,1.21-.06,2.41-.08,3.62-.05,2.49-.07,4.98-.12,7.47-.05,1.97-.08,3.94-.08,5.91,0,1.18-.2,3.05,.5,4.09,.31,.46,1.06,.03,.75-.44-.7-1.03-.39-3.15-.38-4.34,0-1.74,.05-3.48,.08-5.22,.04-2.18,.09-4.36,.11-6.53,.01-1.06,.04-2.13,.08-3.19,.04-1.15-.2-2.46,0-3.58,.1-.55-.74-.78-.84-.23h0Z"/><path class="cls-1" d="M189.08,88.92c-.39,.42-.71,.9-1.16,1.26-.18,.15-.15,.46,0,.61,.18,.18,.43,.15,.61,0,.45-.37,.77-.84,1.16-1.26,.38-.41-.23-1.03-.61-.61h0Z"/><path class="cls-1" d="M195.15,111.99c-.12,.46-.46,.84-.72,1.23-.31,.47,.45,.9,.75,.44,.3-.46,.66-.9,.8-1.44,.14-.54-.69-.77-.84-.23h0Z"/><path class="cls-1" d="M188.63,114.17c2.03,0,4.05,.03,6.07-.18,.55-.06,.56-.92,0-.87-2.02,.21-4.05,.18-6.07,.18-.56,0-.56,.87,0,.87h0Z"/><path class="cls-1" d="M189.19,111.73c-.36,.44-.68,.92-1.08,1.34-.39,.4,.22,1.01,.61,.61,.4-.41,.72-.89,1.08-1.34,.35-.43-.26-1.05-.61-.61h0Z"/></g><g><path class="cls-1" d="M183.68,189.77c0,1.2,.01,2.4,.07,3.6,.03,.66-.03,1.65,.42,2.2,.35,.43,.96-.18,.61-.61-.3-.37-.17-1.68-.19-2.14-.04-1.01-.05-2.03-.05-3.05,0-.56-.87-.56-.87,0h0Z"/><path class="cls-1" d="M184.55,195.77c1.69,.01,3.37,.13,5.06,.14,.56,0,.56-.86,0-.87-1.69-.01-3.37-.13-5.06-.14-.56,0-.56,.86,0,.87h0Z"/><path class="cls-1" d="M189.24,195.63c.03,7.59-.13,15.17-.14,22.77,0,.56,.87,.56,.87,0,.01-7.59,.18-15.18,.14-22.77,0-.56-.87-.56-.87,0h0Z"/><path class="cls-1" d="M189.46,218.97c2.05,0,4.1-.07,6.14-.07,.56,0,.56-.87,0-.87-2.05,0-4.1,.07-6.14,.07-.56,0-.56,.87,0,.87h0Z"/><path class="cls-1" d="M195.24,189.99c0,9.44,.22,18.89-.07,28.33-.02,.56,.85,.56,.87,0,.29-9.44,.08-18.89,.07-28.33,0-.56-.87-.56-.87,0h0Z"/><path class="cls-1" d="M184.26,190.15c.43-.27,1.39-.14,1.88-.15,.82-.02,1.64,0,2.46,0,2.31,0,4.62,.13,6.94,.14,.56,0,.56-.87,0-.87-2.39-.01-4.77-.14-7.16-.15-.97,0-1.93,0-2.9,.02-.49,.02-1.21-.03-1.65,.25-.47,.3-.03,1.05,.44,.75h0Z"/><path class="cls-1" d="M184.29,189.25c-.93,.06-1.55,1.12-1.89,1.86-.23,.5,.51,.94,.75,.44,.16-.35,.35-.7,.6-1,.12-.14,.35-.42,.54-.43,.56-.03,.56-.9,0-.87h0Z"/><path class="cls-1" d="M182.34,191.51c-.02,1.55-.54,3.69,.37,5.07,.41,.63,1.05,.74,1.74,.75,1.28,0,2.55,.08,3.82,0,.56-.03,.56-.9,0-.87-.84,.05-1.68,.05-2.53,.03-.82-.02-2.1,.28-2.46-.71-.47-1.28-.08-2.94-.07-4.27,0-.56-.86-.56-.87,0h0Z"/><path class="cls-1" d="M187.78,196.89c-.15,.8-.02,1.64-.02,2.45,0,1.21-.06,2.41-.08,3.62-.05,2.49-.07,4.98-.12,7.47-.05,1.97-.08,3.94-.08,5.91,0,1.18-.2,3.05,.5,4.09,.31,.46,1.06,.03,.75-.44-.7-1.03-.39-3.15-.38-4.34,0-1.74,.05-3.48,.08-5.22,.04-2.18,.09-4.36,.11-6.53,.01-1.06,.04-2.13,.08-3.19,.04-1.15-.2-2.46,0-3.58,.1-.55-.74-.78-.84-.23h0Z"/><path class="cls-1" d="M189.08,195.39c-.39,.42-.71,.9-1.16,1.26-.18,.15-.15,.46,0,.61,.18,.18,.43,.15,.61,0,.45-.37,.77-.84,1.16-1.26,.38-.41-.23-1.03-.61-.61h0Z"/><path class="cls-1" d="M195.15,218.46c-.12,.46-.46,.84-.72,1.23-.31,.47,.45,.9,.75,.44,.3-.46,.66-.9,.8-1.44,.14-.54-.69-.77-.84-.23h0Z"/><path class="cls-1" d="M188.63,220.63c2.03,0,4.05,.03,6.07-.18,.55-.06,.56-.92,0-.87-2.02,.21-4.05,.18-6.07,.18-.56,0-.56,.87,0,.87h0Z"/><path class="cls-1" d="M189.19,218.2c-.36,.44-.68,.92-1.08,1.34-.39,.4,.22,1.01,.61,.61,.4-.41,.72-.89,1.08-1.34,.35-.43-.26-1.05-.61-.61h0Z"/></g><g><path class="cls-1" d="M235,241.61c0-1.95-.11-3.99,.95-5.72,.96-1.58,3.57-1.38,5.17-1.58,1.49-.19,3.17-.16,4.67-.04,1.63,.13,3.59,.19,4.02,2.12,.12,.55,.96,.31,.84-.23-.37-1.7-1.61-2.31-3.21-2.55-2.07-.31-4.23-.36-6.32-.16-1.87,.17-4.21,.15-5.61,1.59-1.58,1.64-1.39,4.49-1.38,6.57,0,.56,.87,.56,.87,0h0Z"/><path class="cls-1" d="M249.81,236.35c.78,3.84,1.24,8.21,.19,12.03-.15,.54,.69,.77,.84,.23,1.09-3.98,.62-8.49-.19-12.49-.11-.55-.95-.32-.84,.23h0Z"/><path class="cls-1" d="M240.4,242.52c.03-.56,.12-1.09,.06-1.65-.07-.68-.16-1.06,.61-1.15,.94-.12,2.06-.13,3,.02,.88,.13,.42,4.43,.25,5.08-.14,.54,.69,.77,.84,.23,.3-1.16,.27-2.45,.21-3.63-.04-.9-.07-2.18-1.07-2.51-.59-.19-1.34-.09-1.96-.1-.68,0-1.37,.01-2.03,.18-.41,.11-.7,.4-.75,.82-.09,.89,.02,1.81-.04,2.71-.03,.56,.83,.56,.87,0h0Z"/><path class="cls-1" d="M244.31,244.81c-.5,2.23-3.78,3.3-5.59,4.21-1.66,.84-3.32,2.11-4.04,3.9-.65,1.6-.5,3.42-.51,5.12-.01,1.72-.04,3.43-.04,5.15,0,.56,.87,.56,.87,0,0-1.64,.03-3.27,.04-4.91,.02-1.81-.23-3.85,.68-5.5,1.2-2.17,3.57-3.06,5.66-4.11,1.53-.77,3.37-1.84,3.77-3.64,.12-.54-.71-.78-.84-.23h0Z"/><path class="cls-1" d="M234.71,263.67c5.3,0,10.6,.21,15.9-.05,.56-.03,.56-.89,0-.87-5.3,.26-10.6,.05-15.9,.05-.56,0-.56,.87,0,.87h0Z"/><path class="cls-1" d="M250.18,257.99c.21,1.65-.03,3.31-.05,4.96,0,.56,.86,.56,.87,0,.02-1.66,.26-3.31,.05-4.96-.07-.55-.94-.55-.87,0h0Z"/><path class="cls-1" d="M240.97,258.18c3.17,.02,6.32,.02,9.49-.05,.56-.01,.56-.88,0-.87-3.17,.07-6.32,.07-9.49,.05-.56,0-.56,.86,0,.87h0Z"/><path class="cls-1" d="M250,248.38c-.38,1.39-1.61,2.03-2.79,2.68-1.21,.66-2.37,1.42-3.58,2.07-1.74,.94-3.01,2.38-3.09,4.42-.02,.56,.85,.56,.87,0,.11-2.84,3.27-4.09,5.42-5.3,1.62-.91,3.47-1.69,4.01-3.64,.15-.54-.69-.77-.84-.23h0Z"/><path class="cls-1" d="M234.14,241.33c-.01,.83,.07,1.7,1.1,1.75,1.49,.08,3.02,0,4.5-.13,.55-.04,.56-.91,0-.87-.97,.08-1.93,.14-2.91,.12-.36,0-.71,0-1.07,.01-.68,.04-.76-.36-.75-.9,.01-.56-.86-.56-.87,0h0Z"/><path class="cls-1" d="M239.44,242.59c-.25,.39-.62,.69-.87,1.08-.3,.47,.45,.91,.75,.44,.25-.39,.62-.69,.87-1.08,.3-.47-.45-.91-.75-.44h0Z"/><path class="cls-1" d="M238.83,243.48c-1.3,.38-2.94,.55-4.28,.31-1.83-.33-1-4.14-.79-5.2,.4-1.96,1.32-3.06,3.24-3.6,.54-.15,.31-.99-.23-.84-2.87,.8-3.68,2.81-4.1,5.65-.17,1.17-.37,3.83,.97,4.54,1.5,.79,3.85,.43,5.42-.03,.54-.16,.31-.99-.23-.84h0Z"/><path class="cls-1" d="M237.67,249.66c-2.67,1.83-5.07,3.4-5.16,6.91-.04,1.72-.03,3.44,.07,5.16,.05,.88,0,2.46,.71,3.12,.41,.38,1.02-.23,.61-.61-.61-.56-.46-2.38-.49-3.13-.07-1.34-.06-2.69-.04-4.04,.02-1.47,.17-2.69,1.16-3.88,.97-1.17,2.34-1.93,3.58-2.77,.46-.31,.03-1.07-.44-.75h0Z"/><path class="cls-1" d="M240.4,241.17c.26,0,2.69-.18,2.69,.06,0,.89-.04,1.76-.18,2.64-.34,2.16-1.33,3.59-3.26,4.68-.49,.27-.05,1.02,.44,.75,2.26-1.27,3.38-3.04,3.72-5.58,.11-.8,.49-2.35,.05-3.11-.48-.82-2.71-.32-3.45-.31-.56,0-.56,.88,0,.87h0Z"/><path class="cls-1" d="M250.11,263.17c-.3,.35-.52,.76-.82,1.11-.37,.42,.25,1.04,.61,.61,.3-.35,.52-.76,.82-1.11,.37-.42-.25-1.04-.61-.61h0Z"/><path class="cls-1" d="M233.49,264.96c2.5,.37,4.95,.18,7.47,.22,2.8,.04,5.6-.05,8.4-.06,.56,0,.56-.87,0-.87-2.63,0-5.26,.07-7.88,.06-2.6,0-5.17,.19-7.76-.19-.55-.08-.78,.75-.23,.84h0Z"/><path class="cls-1" d="M234.54,262.91c-.49,.28-.9,.68-1.34,1.03-.19,.15-.15,.46,0,.61,.18,.18,.43,.15,.61,0,.39-.3,.74-.65,1.17-.9,.48-.28,.05-1.03-.44-.75h0Z"/></g><g><path class="cls-1" d="M79.47,304.06c0-1.95-.11-3.99,.95-5.72,.96-1.58,3.57-1.38,5.17-1.58,1.49-.19,3.17-.16,4.67-.04,1.63,.13,3.59,.19,4.02,2.12,.12,.55,.96,.31,.84-.23-.37-1.7-1.61-2.31-3.21-2.55-2.07-.31-4.23-.36-6.32-.16-1.87,.17-4.21,.15-5.61,1.59-1.58,1.64-1.39,4.49-1.38,6.57,0,.56,.87,.56,.87,0h0Z"/><path class="cls-1" d="M94.28,298.8c.78,3.84,1.24,8.21,.19,12.03-.15,.54,.69,.77,.84,.23,1.09-3.98,.62-8.49-.19-12.49-.11-.55-.95-.32-.84,.23h0Z"/><path class="cls-1" d="M84.87,304.98c.03-.56,.12-1.09,.06-1.65-.07-.68-.16-1.06,.61-1.15,.94-.12,2.06-.13,3,.02,.88,.13,.42,4.43,.25,5.08-.14,.54,.69,.77,.84,.23,.3-1.16,.27-2.45,.21-3.63-.04-.9-.07-2.18-1.07-2.51-.59-.19-1.34-.09-1.96-.1-.68,0-1.37,.01-2.03,.18-.41,.11-.7,.4-.75,.82-.09,.89,.02,1.81-.04,2.71-.03,.56,.83,.56,.87,0h0Z"/><path class="cls-1" d="M88.79,307.27c-.5,2.23-3.78,3.3-5.59,4.21-1.66,.84-3.32,2.11-4.04,3.9-.65,1.6-.5,3.42-.51,5.12-.01,1.72-.04,3.43-.04,5.15,0,.56,.87,.56,.87,0,0-1.64,.03-3.27,.04-4.91,.02-1.81-.23-3.85,.68-5.5,1.2-2.17,3.57-3.06,5.66-4.11,1.53-.77,3.37-1.84,3.77-3.64,.12-.54-.71-.78-.84-.23h0Z"/><path class="cls-1" d="M79.18,326.13c5.3,0,10.6,.21,15.9-.05,.56-.03,.56-.89,0-.87-5.3,.26-10.6,.05-15.9,.05-.56,0-.56,.87,0,.87h0Z"/><path class="cls-1" d="M94.65,320.44c.21,1.65-.03,3.31-.05,4.96,0,.56,.86,.56,.87,0,.02-1.66,.26-3.31,.05-4.96-.07-.55-.94-.55-.87,0h0Z"/><path class="cls-1" d="M85.45,320.63c3.17,.02,6.32,.02,9.49-.05,.56-.01,.56-.88,0-.87-3.17,.07-6.32,.07-9.49,.05-.56,0-.56,.86,0,.87h0Z"/><path class="cls-1" d="M94.47,310.83c-.38,1.39-1.61,2.03-2.79,2.68-1.21,.66-2.37,1.42-3.58,2.07-1.74,.94-3.01,2.38-3.09,4.42-.02,.56,.85,.56,.87,0,.11-2.84,3.27-4.09,5.42-5.3,1.62-.91,3.47-1.69,4.01-3.64,.15-.54-.69-.77-.84-.23h0Z"/><path class="cls-1" d="M78.62,303.78c-.01,.83,.07,1.7,1.1,1.75,1.49,.08,3.02,0,4.5-.13,.55-.04,.56-.91,0-.87-.97,.08-1.93,.14-2.91,.12-.36,0-.71,0-1.07,.01-.68,.04-.76-.36-.75-.9,.01-.56-.86-.56-.87,0h0Z"/><path class="cls-1" d="M83.92,305.05c-.25,.39-.62,.69-.87,1.08-.3,.47,.45,.91,.75,.44,.25-.39,.62-.69,.87-1.08,.3-.47-.45-.91-.75-.44h0Z"/><path class="cls-1" d="M83.31,305.93c-1.3,.38-2.94,.55-4.28,.31-1.83-.33-1-4.14-.79-5.2,.4-1.96,1.32-3.06,3.24-3.6,.54-.15,.31-.99-.23-.84-2.87,.8-3.68,2.81-4.1,5.65-.17,1.17-.37,3.83,.97,4.54,1.5,.79,3.85,.43,5.42-.03,.54-.16,.31-.99-.23-.84h0Z"/><path class="cls-1" d="M82.14,312.12c-2.67,1.83-5.07,3.4-5.16,6.91-.04,1.72-.03,3.44,.07,5.16,.05,.88,0,2.46,.71,3.12,.41,.38,1.02-.23,.61-.61-.61-.56-.46-2.38-.49-3.13-.07-1.34-.06-2.69-.04-4.04,.02-1.47,.17-2.69,1.16-3.88,.97-1.17,2.34-1.93,3.58-2.77,.46-.31,.03-1.07-.44-.75h0Z"/><path class="cls-1" d="M84.87,303.63c.26,0,2.69-.18,2.69,.06,0,.89-.04,1.76-.18,2.64-.34,2.16-1.33,3.59-3.26,4.68-.49,.27-.05,1.02,.44,.75,2.26-1.27,3.38-3.04,3.72-5.58,.11-.8,.49-2.35,.05-3.11-.48-.82-2.71-.32-3.45-.31-.56,0-.56,.88,0,.87h0Z"/><path class="cls-1" d="M94.58,325.63c-.3,.35-.52,.76-.82,1.11-.37,.42,.25,1.04,.61,.61,.3-.35,.52-.76,.82-1.11,.37-.42-.25-1.04-.61-.61h0Z"/><path class="cls-1" d="M77.96,327.41c2.5,.37,4.95,.18,7.47,.22,2.8,.04,5.6-.05,8.4-.06,.56,0,.56-.87,0-.87-2.63,0-5.26,.07-7.88,.06-2.6,0-5.17,.19-7.76-.19-.55-.08-.78,.75-.23,.84h0Z"/><path class="cls-1" d="M79.01,325.37c-.49,.28-.9,.68-1.34,1.03-.19,.15-.15,.46,0,.61,.18,.18,.43,.15,.61,0,.39-.3,.74-.65,1.17-.9,.48-.28,.05-1.03-.44-.75h0Z"/></g><g><path class="cls-1" d="M130,337.95c0,2.93-.08,5.85-.07,8.78,0,2.85,.22,5.72-.02,8.57-.05,.56,.82,.55,.87,0,.23-2.72,.05-5.45,.02-8.17-.03-3.06,.07-6.11,.07-9.17,0-.56-.87-.56-.87,0h0Z"/><path class="cls-1" d="M130.53,355.73c3.24,.11,6.49,.09,9.73,.1,.56,0,.56-.87,0-.87-3.24,0-6.49,.02-9.73-.1-.56-.02-.56,.85,0,.87h0Z"/><path class="cls-1" d="M139.83,355.4c0,3.6,.19,7.19,.19,10.79,0,.56,.87,.56,.87,0,0-3.6-.19-7.19-.19-10.79,0-.56-.87-.56-.87,0h0Z"/><path class="cls-1" d="M140.46,366.72c1.99-.07,3.99,.16,5.97-.1,.55-.07,.55-.94,0-.87-1.99,.26-3.98,.02-5.97,.1-.56,.02-.56,.89,0,.87h0Z"/><path class="cls-1" d="M146,337.66c.03,9.51,.21,19.02,.1,28.52,0,.56,.86,.56,.87,0,.11-9.5-.07-19.01-.1-28.52,0-.56-.87-.56-.87,0h0Z"/><path class="cls-1" d="M135.49,337.86c.07,2.24-.21,4.47-.17,6.71,.03,1.68,.07,3.36,.08,5.04,0,.56,.87,.56,.87,0,0-1.58-.05-3.17-.07-4.75-.04-2.34,.24-4.68,.17-7.01-.02-.56-.88-.56-.87,0h0Z"/><path class="cls-1" d="M135.83,350.05c1.48,.08,2.96-.03,4.43,.1,.56,.05,.55-.82,0-.87-1.47-.13-2.96-.02-4.43-.1-.56-.03-.56,.84,0,.87h0Z"/><path class="cls-1" d="M139.93,337.66c-.15,4,.18,8.05-.1,12.05-.04,.56,.83,.55,.87,0,.28-4-.05-8.04,.1-12.05,.02-.56-.85-.56-.87,0h0Z"/><path class="cls-1" d="M140.36,338.1c1.99,0,3.98-.06,5.97,0,.56,.02,.56-.85,0-.87-1.99-.06-3.98,0-5.97,0-.56,0-.56,.87,0,.87h0Z"/><path class="cls-1" d="M130.34,338.1c1.86,0,3.73,.09,5.59,.1,.56,0,.56-.87,0-.87-1.86,0-3.73-.09-5.59-.1-.56,0-.56,.87,0,.87h0Z"/><path class="cls-1" d="M140.14,337.29c-.69,.35-1.36,.95-1.75,1.63-.28,.49,.47,.92,.75,.44,.31-.56,.87-1.02,1.43-1.31,.5-.26,.06-1-.44-.75h0Z"/><path class="cls-1" d="M138.34,339.04c-.05,1.8-.04,3.58-.07,5.37-.03,1.66-.12,3.4-.07,5.06,.02,.56,.88,.56,.87,0-.04-1.52,.14-3.02,.08-4.55-.08-1.97,.02-3.91,.07-5.88,.01-.56-.85-.56-.87,0h0Z"/><path class="cls-1" d="M130.08,337.36c-.48,.5-.82,1.1-1.25,1.64-.35,.43,.26,1.05,.61,.61,.43-.54,.77-1.14,1.25-1.64,.39-.4-.22-1.02-.61-.61h0Z"/><path class="cls-1" d="M128.46,339.69s-.05,11.46,0,17.2c0,.56,.87,.58,.87,.02-.05-5.75,0-11.44,0-17.23,0-.58-.87-.58-.87,0,0,0,0-.58,0,0Z"/><path class="cls-1" d="M128.89,357.37c3.18-.05,6.36,0,9.54-.05,.56,0,.56-.88,0-.87-3.18,.05-6.36,0-9.54,.05-.56,0-.56,.88,0,.87h0Z"/><path class="cls-1" d="M138.24,356.94c.08,3.61,.01,7.32,.43,10.91,.06,.55,.93,.55,.87,0-.42-3.59-.35-7.3-.43-10.91-.01-.56-.88-.56-.87,0h0Z"/><path class="cls-1" d="M139.66,355.46c-.5,.38-.92,.81-1.34,1.27-.37,.41,.24,1.03,.61,.61,.37-.4,.73-.81,1.16-1.14,.19-.14,.29-.37,.16-.59-.11-.19-.4-.3-.59-.16h0Z"/><path class="cls-1" d="M146.1,366.11c-.27,.48-.56,.94-.77,1.45-.09,.22,.1,.48,.3,.53,.25,.07,.44-.08,.53-.3,.18-.44,.45-.84,.68-1.25,.27-.49-.47-.93-.75-.44h0Z"/><path class="cls-1" d="M139.94,366.26c-.27,.4-.55,.79-.85,1.17-.14,.19-.18,.43,0,.61,.15,.15,.47,.19,.61,0,.34-.44,.67-.88,.98-1.34,.31-.47-.44-.9-.75-.44h0Z"/><path class="cls-1" d="M139.3,368.26c2.11,.06,4.21,.13,6.31-.1,.55-.06,.56-.93,0-.87-2.1,.22-4.21,.16-6.31,.1-.56-.02-.56,.85,0,.87h0Z"/><path class="cls-1" d="M130.22,354.73c-.6,.46-.88,1.13-1.34,1.71-.34,.43,.27,1.05,.61,.61,.39-.49,.66-1.18,1.17-1.57,.19-.14,.29-.37,.16-.59-.11-.18-.41-.3-.59-.16h0Z"/></g><g><path class="cls-1" d="M79.49,84.16c0,2.93-.08,5.85-.07,8.78,0,2.85,.22,5.72-.02,8.57-.05,.56,.82,.55,.87,0,.23-2.72,.05-5.45,.02-8.17-.03-3.06,.07-6.11,.07-9.17,0-.56-.87-.56-.87,0h0Z"/><path class="cls-1" d="M80.02,101.94c3.24,.11,6.49,.09,9.73,.1,.56,0,.56-.87,0-.87-3.24,0-6.49,.02-9.73-.1-.56-.02-.56,.85,0,.87h0Z"/><path class="cls-1" d="M89.32,101.61c0,3.6,.19,7.19,.19,10.79,0,.56,.87,.56,.87,0,0-3.6-.19-7.19-.19-10.79,0-.56-.87-.56-.87,0h0Z"/><path class="cls-1" d="M89.94,112.93c1.99-.07,3.99,.16,5.97-.1,.55-.07,.55-.94,0-.87-1.99,.26-3.98,.02-5.97,.1-.56,.02-.56,.89,0,.87h0Z"/><path class="cls-1" d="M95.49,83.87c.03,9.51,.21,19.02,.1,28.52,0,.56,.86,.56,.87,0,.11-9.5-.07-19.01-.1-28.52,0-.56-.87-.56-.87,0h0Z"/><path class="cls-1" d="M84.98,84.07c.07,2.24-.21,4.47-.17,6.71,.03,1.68,.07,3.36,.08,5.04,0,.56,.87,.56,.87,0,0-1.58-.05-3.17-.07-4.75-.04-2.34,.24-4.68,.17-7.01-.02-.56-.88-.56-.87,0h0Z"/><path class="cls-1" d="M85.32,96.26c1.48,.08,2.96-.03,4.43,.1,.56,.05,.55-.82,0-.87-1.47-.13-2.96-.02-4.43-.1-.56-.03-.56,.84,0,.87h0Z"/><path class="cls-1" d="M89.41,83.87c-.15,4,.18,8.05-.1,12.05-.04,.56,.83,.55,.87,0,.28-4-.05-8.04,.1-12.05,.02-.56-.85-.56-.87,0h0Z"/><path class="cls-1" d="M89.85,84.31c1.99,0,3.98-.06,5.97,0,.56,.02,.56-.85,0-.87-1.99-.06-3.98,0-5.97,0-.56,0-.56,.87,0,.87h0Z"/><path class="cls-1" d="M79.83,84.31c1.86,0,3.73,.09,5.59,.1,.56,0,.56-.87,0-.87-1.86,0-3.73-.09-5.59-.1-.56,0-.56,.87,0,.87h0Z"/><path class="cls-1" d="M89.63,83.5c-.69,.35-1.36,.95-1.75,1.63-.28,.49,.47,.92,.75,.44,.31-.56,.87-1.02,1.43-1.31,.5-.26,.06-1-.44-.75h0Z"/><path class="cls-1" d="M87.82,85.25c-.05,1.8-.04,3.58-.07,5.37-.03,1.66-.12,3.4-.07,5.06,.02,.56,.88,.56,.87,0-.04-1.52,.14-3.02,.08-4.55-.08-1.97,.02-3.91,.07-5.88,.01-.56-.85-.56-.87,0h0Z"/><path class="cls-1" d="M79.57,83.57c-.48,.5-.82,1.1-1.25,1.64-.35,.43,.26,1.05,.61,.61,.43-.54,.77-1.14,1.25-1.64,.39-.4-.22-1.02-.61-.61h0Z"/><path class="cls-1" d="M77.95,85.9s-.05,11.46,0,17.2c0,.56,.87,.58,.87,.02-.05-5.75,0-11.44,0-17.23,0-.58-.87-.58-.87,0,0,0,0-.58,0,0Z"/><path class="cls-1" d="M78.38,103.58c3.18-.05,6.36,0,9.54-.05,.56,0,.56-.88,0-.87-3.18,.05-6.36,0-9.54,.05-.56,0-.56,.88,0,.87h0Z"/><path class="cls-1" d="M87.73,103.15c.08,3.61,.01,7.32,.43,10.91,.06,.55,.93,.55,.87,0-.42-3.59-.35-7.3-.43-10.91-.01-.56-.88-.56-.87,0h0Z"/><path class="cls-1" d="M89.15,101.67c-.5,.38-.92,.81-1.34,1.27-.37,.41,.24,1.03,.61,.61,.37-.4,.73-.81,1.16-1.14,.19-.14,.29-.37,.16-.59-.11-.19-.4-.3-.59-.16h0Z"/><path class="cls-1" d="M95.59,112.32c-.27,.48-.56,.94-.77,1.45-.09,.22,.1,.48,.3,.53,.25,.07,.44-.08,.53-.3,.18-.44,.45-.84,.68-1.25,.27-.49-.47-.93-.75-.44h0Z"/><path class="cls-1" d="M89.43,112.47c-.27,.4-.55,.79-.85,1.17-.14,.19-.18,.43,0,.61,.15,.15,.47,.19,.61,0,.34-.44,.67-.88,.98-1.34,.31-.47-.44-.9-.75-.44h0Z"/><path class="cls-1" d="M88.79,114.47c2.11,.06,4.21,.13,6.31-.1,.55-.06,.56-.93,0-.87-2.1,.22-4.21,.16-6.31,.1-.56-.02-.56,.85,0,.87h0Z"/><path class="cls-1" d="M79.7,100.94c-.6,.46-.88,1.13-1.34,1.71-.34,.43,.27,1.05,.61,.61,.39-.49,.66-1.18,1.17-1.57,.19-.14,.29-.37,.16-.59-.11-.18-.41-.3-.59-.16h0Z"/></g><g><path class="cls-1" d="M247.49,334.66c-2.49-.28-5.29-.43-7.78,.02-1.2,.21-2.17,.8-3.02,1.66-.95,.97-1.09,2.16-1.23,3.44-.38,3.55-.47,7.05-.48,10.62,0,1.81-.03,3.63,.01,5.44,.03,1.6-.07,3.37,.2,4.95,.45,2.66,2.22,3.38,4.69,3.54,2.62,.17,5.28,.12,7.86-.45,2.7-.6,3.96-3.03,4.31-5.53,.36-2.62,.3-5.86-.53-8.4-.17-.53-1.01-.3-.84,.23,.72,2.19,.73,4.79,.61,7.07-.08,1.43-.28,2.99-1.21,4.13-.91,1.11-2.25,1.71-3.65,1.8-.97,.06-1.91,.32-2.88,.4-1.08,.08-2.21-.04-3.29-.09-1.42-.07-2.8-.05-3.69-1.33-.75-1.07-.56-2.58-.6-3.81-.18-5.52-.49-11.28,.15-16.78,.15-1.32,.12-2.85,.77-4.03,.71-1.3,2.17-1.92,3.57-2.05,2.32-.22,4.72-.2,7.04,.06,.56,.06,.55-.8,0-.87h0Z"/><path class="cls-1" d="M251.52,349.94c-.65-1.95-2.34-3.23-4.33-3.48-2.08-.27-4.39-.26-6.46,.07-.55,.09-.32,.92,.23,.84,1.48-.24,3.03-.19,4.52-.16,2.21,.06,4.42,.58,5.21,2.96,.18,.53,1.01,.3,.84-.23h0Z"/><path class="cls-1" d="M247.2,343.64c.03-1.21,.16-2.54-.76-3.48-.85-.87-2.64-.64-3.71-.55-1.08,.09-1.68,.68-1.97,1.7-.49,1.7-.34,3.61-.36,5.35,0,.56,.86,.56,.87,0,.01-1.07,0-2.09,.09-3.17,.08-.93-.05-2.61,1.07-2.95,.85-.26,2.15-.19,3,.03,1.22,.32,.92,2.14,.9,3.07-.01,.56,.85,.56,.87,0h0Z"/><path class="cls-1" d="M247.49,335.52c3.1,.26,3.35,3.26,3.53,5.67,.04,.53,0,1.07,0,1.6-.02,.88-.3,.75-1.04,.71-1.09-.06-2.18-.15-3.27-.03-.55,.06-.56,.93,0,.87,1.47-.17,2.94,.08,4.41,.07,.15,0,.31-.08,.37-.21,.48-.95,.45-1.95,.41-3-.04-1.01-.05-2.11-.31-3.09-.5-1.91-2.14-3.29-4.09-3.45-.56-.05-.55,.82,0,.87h0Z"/><path class="cls-1" d="M240.12,352.58c-.1,1.38-.04,2.8,.03,4.18,.05,.98,.2,2.13,1.23,2.53,1.34,.51,2.75,.51,4.04-.15,.85-.43,.99-1.41,1.12-2.25,.23-1.5,.62-4.8-1.15-5.62-1.19-.55-4.75-.66-5.19,.98-.15,.54,.69,.77,.84,.23,.26-.98,3.81-.84,4.32-.14,.82,1.13,.5,3.29,.31,4.57-.14,.89-.31,1.4-1.29,1.73-1.02,.34-2.9,.29-3.24-.97-.41-1.5-.26-3.55-.15-5.08,.04-.56-.83-.55-.87,0h0Z"/><path class="cls-1" d="M250.72,343.71c-.42,.41-.83,.84-1.32,1.16-.46,.31-.03,1.06,.44,.75,.55-.37,1.03-.83,1.5-1.3,.4-.4-.22-1.01-.61-.61h0Z"/><path class="cls-1" d="M245.57,345.53c1.34,.12,2.7,.14,4.05,.14,.56,0,.56-.87,0-.87-1.35,0-2.7-.02-4.05-.14-.56-.05-.55,.82,0,.87h0Z"/><path class="cls-1" d="M246.24,343.42c-.37,.43-.57,.99-.98,1.37-.41,.39,.21,1,.61,.61,.41-.39,.61-.95,.98-1.37,.36-.42-.25-1.04-.61-.61h0Z"/><path class="cls-1" d="M245.8,344.85c-.47-1.02,.46-2.9-.66-3.62-.49-.32-1.27-.28-1.82-.28-.74,0-1.55,.08-2.24,.34-.52,.2-.29,1.03,.23,.84,.91-.34,2.49-.58,3.4-.15,.26,.12,.13,1.61,.14,1.86,0,.49,0,1,.21,1.45,.24,.51,.98,.07,.75-.44h0Z"/><path class="cls-1" d="M244.53,358.96c.52-1.53,.95-3.78,.46-5.35-.51-1.61-3.46-1.05-4.57-.58-.51,.22-.07,.96,.44,.75,.62-.26,1.33-.32,2-.32,.95-.01,1.37,.25,1.42,1.19,.07,1.33-.15,2.83-.59,4.09-.18,.53,.66,.76,.84,.23h0Z"/><path class="cls-1" d="M238.94,334.82c-4.44,.67-5.11,4.67-5.48,8.5-.24,2.5-.03,4.98-.09,7.48-.06,2.76-.2,5.56-.01,8.32,.13,1.93,.38,4.39,2.05,5.68,1.41,1.09,3.65,.94,5.35,1.05,1.96,.13,4.18,0,6.11-.36,1.85-.36,2.91-2.06,3.84-3.53,.3-.47-.45-.91-.75-.44-1.1,1.74-2.1,3.1-4.29,3.25-1.63,.11-3.27,.3-4.9,.21-1.6-.09-3.89,.04-5.1-1.13-1.67-1.62-1.52-4.89-1.51-7.02,.03-4.05-.14-8.17,.08-12.21,.1-1.87,.31-3.74,.83-5.54,.6-2.07,2.02-3.11,4.11-3.42,.55-.08,.32-.92-.23-.84h0Z"/></g><g><path class="cls-1" d="M131.7,248.62c-2.06-.28-1.37-6.14-1.33-7.62,.05-1.75,.1-4.24,1.79-5.26,1.6-.96,4.35-.59,6.14-.65,.56-.02,.56-.89,0-.87-2.16,.08-4.91-.24-6.85,.93-1.71,1.03-1.84,3.66-1.94,5.4-.11,1.95-.16,3.95,.1,5.89,.15,1.12,.49,2.83,1.85,3.02,.55,.08,.78-.76,.23-.84h0Z"/><path class="cls-1" d="M144.13,249.24c1.35-.39,1.46-1.66,1.56-2.89,.19-2.58,.19-5.17,.03-7.75-.08-1.25-.4-2.75-1.54-3.47-1.69-1.07-3.95-.91-5.87-.9-.56,0-.56,.87,0,.87,1.52,0,3.03-.03,4.51,.35,1.52,.38,1.92,1.8,2.03,3.16,.13,1.53,.12,3.08,.12,4.61,0,1.08,.34,4.79-1.06,5.19-.54,.15-.31,.99,.23,.84h0Z"/><path class="cls-1" d="M143.76,249.46c1.44,.38,1.42,2.99,1.48,4.13,.09,1.74-.02,3.48-.06,5.22-.05,2.24-.63,4.02-3.08,4.2-1.77,.13-3.54,0-5.31,.05-.56,.02-.56,.89,0,.87,2.17-.07,4.38,.17,6.53-.19,2.13-.35,2.72-2.89,2.73-4.67,.01-2.27,.2-4.53-.04-6.8-.14-1.35-.48-3.24-2.01-3.64-.54-.14-.77,.69-.23,.84h0Z"/><path class="cls-1" d="M131.29,248.81c-1.51,.81-1.59,2.54-1.64,4.07-.08,2.38-.19,4.77,.05,7.14,.14,1.38,.36,2.83,1.68,3.55,.7,.39,1.62,.35,2.4,.38,1.11,.03,2.23,.03,3.35-.03,.56-.03,.56-.9,0-.87-1.39,.07-2.78,.05-4.17,0-2.06-.08-2.26-1.78-2.43-3.46-.17-1.7-.11-3.43-.06-5.14,.05-1.52-.3-4.06,1.26-4.9,.49-.27,.05-1.01-.44-.75h0Z"/><path class="cls-1" d="M134.63,252.05c-.64,.45-.6,1.33-.6,2.04,0,.68,.06,1.37,.09,2.05,.03,.64-.14,1.38,.01,2.01,.28,1.19,1.24,1.27,2.32,1.33,1.07,.07,3.11,.28,4.09-.29,.94-.55,.92-1.59,.92-2.58,0-1.16,.24-2.85-.27-3.91-.54-1.13-1.75-.9-2.83-.87-1.14,.03-2.27-.13-3.4,.12-.55,.12-.31,.96,.23,.84,1.32-.3,2.8-.1,4.15-.11,1.55,0,1.19,1.61,1.19,2.61,0,.86,.13,1.7,0,2.57-.15,1.01-2.06,.72-2.75,.76-1.16,.06-2.9,.1-2.78-1.51,.05-.78-.03-1.58-.07-2.36-.02-.38-.22-1.7,.15-1.95,.46-.32,.02-1.07-.44-.75h0Z"/><path class="cls-1" d="M140.86,245.94c.64-.45,.6-1.33,.6-2.04,0-.68-.06-1.37-.09-2.05-.03-.64,.14-1.38-.01-2.01-.28-1.19-1.24-1.27-2.32-1.33-1.07-.07-3.11-.28-4.09,.29-.94,.55-.92,1.59-.92,2.58,0,1.16-.24,2.85,.27,3.91,.54,1.13,1.75,.9,2.83,.87,1.14-.03,2.27,.13,3.4-.12,.55-.12,.31-.96-.23-.84-1.32,.3-2.8,.1-4.15,.11-1.55,0-1.19-1.61-1.19-2.61,0-.86-.13-1.7,0-2.57,.15-1.01,2.06-.72,2.75-.76,1.16-.06,2.9-.1,2.78,1.51-.05,.78,.03,1.58,.07,2.36,.02,.38,.22,1.7-.15,1.95-.46,.32-.02,1.07,.44,.75h0Z"/><path class="cls-1" d="M134.81,241.04c.9-.01,1.8-.07,2.69-.1,.34-.01,1.17-.08,1.34,.34,.25,.61,.15,1.44,.14,2.08-.01,.74-.07,1.47-.08,2.21,0,.56,.86,.56,.87,0,0-.9,.08-1.79,.08-2.68,0-.64,.09-1.71-.39-2.23-.35-.38-.85-.53-1.35-.58-1.08-.11-2.23,.08-3.31,.1-.56,0-.56,.88,0,.87h0Z"/><path class="cls-1" d="M134.73,254.31c1.29-.08,2.76-.22,4.03,.07,.51,.12,.12,3.67,.16,4.23,.04,.55,.91,.56,.87,0-.07-.88,.04-1.79,.04-2.67,0-.71,.04-1.6-.42-2.19-.36-.46-1.55-.35-2.04-.36-.88-.02-1.77,0-2.64,.05-.56,.04-.56,.9,0,.87h0Z"/><path class="cls-1" d="M133.68,234.37c-3.37,.09-5.05,1.97-5.58,5.17-.3,1.83-.16,3.78-.09,5.62,.06,1.68,.39,3.27,1.55,4.55v-.61c-1.45,1.64-1.73,4.21-1.69,6.32,.03,1.48,.13,2.96,.27,4.44,.12,1.31,.2,2.96,1.04,4.05,.88,1.14,1.98,1.34,3.35,1.42,2.02,.12,4.06-.04,6.09,.04,1.42,.06,2.93,.14,4.3-.33,1.26-.44,1.92-1.76,2.42-2.89,.22-.51-.52-.95-.75-.44-.56,1.27-1.16,2.37-2.63,2.7-1.21,.27-2.55,.12-3.77,.08-1.35-.05-2.7-.02-4.05,0-1.76,.03-3.8,.2-4.59-1.73-.83-2.03-.7-4.74-.77-6.91-.07-1.99,0-4.54,1.46-6.11,.17-.18,.16-.43,0-.61-1.93-2.16-1.48-5.97-1.36-8.67,.05-1.11,.34-2.3,.86-3.29,.78-1.48,2.41-1.86,3.95-1.9,.56-.01,.56-.88,0-.87h0Z"/><path class="cls-1" d="M129.92,249.83c.41,0,.82-.07,1.23-.07,.56,0,.56-.87,0-.87-.41,0-.82,.07-1.23,.07-.56,0-.56,.87,0,.87h0Z"/></g><g><path class="cls-1" d="M137.66,127.56c-3.17,.13-8.1-.47-8.97,3.55-.39,1.79-.06,3.69-.06,5.5,0,2.61-.07,5.23-.07,7.84,0,2.61,.02,5.22,.06,7.83,.02,1.2,.09,2.39,.93,3.33,.74,.83,2.05,1,3.08,1.11,2.1,.24,4.1,.1,6.41,.1,.58,0,.58-.87,0-.87-1.73,0-3.43,.03-5.12-.02-1.16-.03-2.65-.04-3.6-.81-1.06-.85-.82-2.69-.83-3.86-.03-2.27-.05-4.55-.05-6.82,0-3.68,.05-7.35-.03-11.02-.04-2.02,.21-3.82,2.35-4.52,1.84-.61,3.99-.4,5.91-.48,.56-.02,.56-.89,0-.87h0Z"/><path class="cls-1" d="M137.66,128.43c1.66,.05,3.34-.05,4.95,.4,1.99,.55,1.95,2.56,1.97,4.27,.05,3.66,.11,7.32,.09,10.98-.01,2.88,.07,5.78-.26,8.65-.17,1.52-.49,2.49-2.08,2.95-1.44,.42-3.06,.29-4.54,.28-.56,0-.56,.87,0,.87,2.26,0,6.17,.43,7.13-2.25,.49-1.38,.49-3.01,.55-4.44,.08-1.84,.05-3.67,.06-5.51,.01-4.44,.29-9.05-.2-13.47-.44-3.93-4.65-3.5-7.68-3.59-.56-.02-.56,.85,0,.87h0Z"/><path class="cls-1" d="M134.02,133.75c0,3.06-.06,6.11-.06,9.17,0,2.27-.23,4.77,.18,7.01,.33,1.83,1.31,1.83,2.93,1.79,.69-.02,1.74,.12,2.35-.28,.47-.3,.46-1.16,.5-1.64,.17-2.07,0-4.21-.02-6.29-.01-2.35-.06-4.7,.08-7.05,.05-.84,.54-3.7-.95-3.77-1.27-.06-4.42-.72-5,.94-.18,.53,.65,.76,.84,.23,.22-.64,1.94-.4,2.43-.39,.97,.03,1.81-.15,1.88,1,.1,1.65-.16,3.34-.17,4.99-.02,3.24,.1,6.49,.06,9.73,0,.8,.09,1.54-.89,1.61-.7,.05-1.4,.04-2.1,.07-1.59,.07-1.18-2.74-1.21-3.81-.12-4.44,.01-8.88,.01-13.32,0-.56-.87-.56-.87,0h0Z"/><path class="cls-1" d="M138.31,151.05s-.1-8.05,.14-12.09c.06-1.1,.09-2.19,.14-3.3,.02-.52-.02-.97-.4-1.34-.62-.6-2.62-.23-3.44-.23-.56,0-.56,.87,0,.87,.81,0,2.97-.36,2.97,.72,0,1.75-.15,3.48-.25,5.22-.19,3.38-.03,6.69-.03,10.16,0,.58,.87,.58,.87,0,0,0,0,.58,0,0Z"/><path class="cls-1" d="M132.67,127.85c-1.51,.2-3.42,.26-4.5,1.5-1.26,1.44-1.16,3.77-1.14,5.55,.06,5.04-.27,10.07-.18,15.11,.03,1.97-.15,4.5,.91,6.27,.88,1.48,3.26,1.84,4.78,2.01,2.51,.27,5.25-.02,7.77-.14,2.5-.11,3.77-1.39,4.71-3.67,.21-.52-.63-.74-.84-.23-.5,1.21-1.22,2.53-2.57,2.89-1.04,.27-2.23,.19-3.3,.19-2.12,.01-4.3,.33-6.41,.01-1.96-.29-3.51-.94-3.91-2.99-.41-2.12-.29-4.41-.3-6.56-.02-3.8,.38-7.59,.25-11.38-.07-1.94-.3-4.19,.55-5.99,.69-1.48,2.81-1.52,4.18-1.7,.55-.07,.55-.94,0-.87h0Z"/></g><g><path class="cls-1" d="M87.66,188.52c-3.17,.13-8.1-.47-8.97,3.55-.39,1.79-.06,3.69-.06,5.5,0,2.61-.07,5.23-.07,7.84,0,2.61,.02,5.22,.06,7.83,.02,1.2,.09,2.39,.93,3.33,.74,.83,2.05,1,3.08,1.11,2.1,.24,4.1,.1,6.41,.1,.58,0,.58-.87,0-.87-1.73,0-3.43,.03-5.12-.02-1.16-.03-2.65-.04-3.6-.81-1.06-.85-.82-2.69-.83-3.86-.03-2.27-.05-4.55-.05-6.82,0-3.68,.05-7.35-.03-11.02-.04-2.02,.21-3.82,2.35-4.52,1.84-.61,3.99-.4,5.91-.48,.56-.02,.56-.89,0-.87h0Z"/><path class="cls-1" d="M87.66,189.39c1.66,.05,3.34-.05,4.95,.4,1.99,.55,1.95,2.56,1.97,4.27,.05,3.66,.11,7.32,.09,10.98-.01,2.88,.07,5.78-.26,8.65-.17,1.52-.49,2.49-2.08,2.95-1.44,.42-3.06,.29-4.54,.28-.56,0-.56,.87,0,.87,2.26,0,6.17,.43,7.13-2.25,.49-1.38,.49-3.01,.55-4.44,.08-1.84,.05-3.67,.06-5.51,.01-4.44,.29-9.05-.2-13.47-.44-3.93-4.65-3.5-7.68-3.59-.56-.02-.56,.85,0,.87h0Z"/><path class="cls-1" d="M84.02,194.71c0,3.06-.06,6.11-.06,9.17,0,2.27-.23,4.77,.18,7.01,.33,1.83,1.31,1.83,2.93,1.79,.69-.02,1.74,.12,2.35-.28,.47-.3,.46-1.16,.5-1.64,.17-2.07,0-4.21-.02-6.29-.01-2.35-.06-4.7,.08-7.05,.05-.84,.54-3.7-.95-3.77-1.27-.06-4.42-.72-5,.94-.18,.53,.65,.76,.84,.23,.22-.64,1.94-.4,2.43-.39,.97,.03,1.81-.15,1.88,1,.1,1.65-.16,3.34-.17,4.99-.02,3.24,.1,6.49,.06,9.73,0,.8,.09,1.54-.89,1.61-.7,.05-1.4,.04-2.1,.07-1.59,.07-1.18-2.74-1.21-3.81-.12-4.44,.01-8.88,.01-13.32,0-.56-.87-.56-.87,0h0Z"/><path class="cls-1" d="M88.31,212.01s-.1-8.05,.14-12.09c.06-1.1,.09-2.19,.14-3.3,.02-.52-.02-.97-.4-1.34-.62-.6-2.62-.23-3.44-.23-.56,0-.56,.87,0,.87,.81,0,2.97-.36,2.97,.72,0,1.75-.15,3.48-.25,5.22-.19,3.38-.03,6.69-.03,10.16,0,.58,.87,.58,.87,0,0,0,0,.58,0,0Z"/><path class="cls-1" d="M82.67,188.81c-1.51,.2-3.42,.26-4.5,1.5-1.26,1.44-1.16,3.77-1.14,5.55,.06,5.04-.27,10.07-.18,15.11,.03,1.97-.15,4.5,.91,6.27,.88,1.48,3.26,1.84,4.78,2.01,2.51,.27,5.25-.02,7.77-.14,2.5-.11,3.77-1.39,4.71-3.67,.21-.52-.63-.74-.84-.23-.5,1.21-1.22,2.53-2.57,2.89-1.04,.27-2.23,.19-3.3,.19-2.12,.01-4.3,.33-6.41,.01-1.96-.29-3.51-.94-3.91-2.99-.41-2.12-.29-4.41-.3-6.56-.02-3.8,.38-7.59,.25-11.38-.07-1.94-.3-4.19,.55-5.99,.69-1.48,2.81-1.52,4.18-1.7,.55-.07,.55-.94,0-.87h0Z"/></g><g><path class="cls-1" d="M243.18,127.56c-3.17,.13-8.1-.47-8.97,3.55-.39,1.79-.06,3.69-.06,5.5,0,2.61-.07,5.23-.07,7.84,0,2.61,.02,5.22,.06,7.83,.02,1.2,.09,2.39,.93,3.33,.74,.83,2.05,1,3.08,1.11,2.1,.24,4.1,.1,6.41,.1,.58,0,.58-.87,0-.87-1.73,0-3.43,.03-5.12-.02-1.16-.03-2.65-.04-3.6-.81-1.06-.85-.82-2.69-.83-3.86-.03-2.27-.05-4.55-.05-6.82,0-3.68,.05-7.35-.03-11.02-.04-2.02,.21-3.82,2.35-4.52,1.84-.61,3.99-.4,5.91-.48,.56-.02,.56-.89,0-.87h0Z"/><path class="cls-1" d="M243.18,128.43c1.66,.05,3.34-.05,4.95,.4,1.99,.55,1.95,2.56,1.97,4.27,.05,3.66,.11,7.32,.09,10.98-.01,2.88,.07,5.78-.26,8.65-.17,1.52-.49,2.49-2.08,2.95-1.44,.42-3.06,.29-4.54,.28-.56,0-.56,.87,0,.87,2.26,0,6.17,.43,7.13-2.25,.49-1.38,.49-3.01,.55-4.44,.08-1.84,.05-3.67,.06-5.51,.01-4.44,.29-9.05-.2-13.47-.44-3.93-4.65-3.5-7.68-3.59-.56-.02-.56,.85,0,.87h0Z"/><path class="cls-1" d="M239.54,133.75c0,3.06-.06,6.11-.06,9.17,0,2.27-.23,4.77,.18,7.01,.33,1.83,1.31,1.83,2.93,1.79,.69-.02,1.74,.12,2.35-.28,.47-.3,.46-1.16,.5-1.64,.17-2.07,0-4.21-.02-6.29-.01-2.35-.06-4.7,.08-7.05,.05-.84,.54-3.7-.95-3.77-1.27-.06-4.42-.72-5,.94-.18,.53,.65,.76,.84,.23,.22-.64,1.94-.4,2.43-.39,.97,.03,1.81-.15,1.88,1,.1,1.65-.16,3.34-.17,4.99-.02,3.24,.1,6.49,.06,9.73,0,.8,.09,1.54-.89,1.61-.7,.05-1.4,.04-2.1,.07-1.59,.07-1.18-2.74-1.21-3.81-.12-4.44,.01-8.88,.01-13.32,0-.56-.87-.56-.87,0h0Z"/><path class="cls-1" d="M243.83,151.05s-.1-8.05,.14-12.09c.06-1.1,.09-2.19,.14-3.3,.02-.52-.02-.97-.4-1.34-.62-.6-2.62-.23-3.44-.23-.56,0-.56,.87,0,.87,.81,0,2.97-.36,2.97,.72,0,1.75-.15,3.48-.25,5.22-.19,3.38-.03,6.69-.03,10.16,0,.58,.87,.58,.87,0,0,0,0,.58,0,0Z"/><path class="cls-1" d="M238.2,127.85c-1.51,.2-3.42,.26-4.5,1.5-1.26,1.44-1.16,3.77-1.14,5.55,.06,5.04-.27,10.07-.18,15.11,.03,1.97-.15,4.5,.91,6.27,.88,1.48,3.26,1.84,4.78,2.01,2.51,.27,5.25-.02,7.77-.14,2.5-.11,3.77-1.39,4.71-3.67,.21-.52-.63-.74-.84-.23-.5,1.21-1.22,2.53-2.57,2.89-1.04,.27-2.23,.19-3.3,.19-2.12,.01-4.3,.33-6.41,.01-1.96-.29-3.51-.94-3.91-2.99-.41-2.12-.29-4.41-.3-6.56-.02-3.8,.38-7.59,.25-11.38-.07-1.94-.3-4.19,.55-5.99,.69-1.48,2.81-1.52,4.18-1.7,.55-.07,.55-.94,0-.87h0Z"/></g><g><path class="cls-1" d="M191.03,295.11c-3.17,.13-8.1-.47-8.97,3.55-.39,1.79-.06,3.69-.06,5.5,0,2.61-.07,5.23-.07,7.84,0,2.61,.02,5.22,.06,7.83,.02,1.2,.09,2.39,.93,3.33,.74,.83,2.05,1,3.08,1.11,2.1,.24,4.1,.1,6.41,.1,.58,0,.58-.87,0-.87-1.73,0-3.43,.03-5.12-.02-1.16-.03-2.65-.04-3.6-.81-1.06-.85-.82-2.69-.83-3.86-.03-2.27-.05-4.55-.05-6.82,0-3.68,.05-7.35-.03-11.02-.04-2.02,.21-3.82,2.35-4.52,1.84-.61,3.99-.4,5.91-.48,.56-.02,.56-.89,0-.87h0Z"/><path class="cls-1" d="M191.03,295.98c1.66,.05,3.34-.05,4.95,.4,1.99,.55,1.95,2.56,1.97,4.27,.05,3.66,.11,7.32,.09,10.98-.01,2.88,.07,5.78-.26,8.65-.17,1.52-.49,2.49-2.08,2.95-1.44,.42-3.06,.29-4.54,.28-.56,0-.56,.87,0,.87,2.26,0,6.17,.43,7.13-2.25,.49-1.38,.49-3.01,.55-4.44,.08-1.84,.05-3.67,.06-5.51,.01-4.44,.29-9.05-.2-13.47-.44-3.93-4.65-3.5-7.68-3.59-.56-.02-.56,.85,0,.87h0Z"/><path class="cls-1" d="M187.4,301.3c0,3.06-.06,6.11-.06,9.17,0,2.27-.23,4.77,.18,7.01,.33,1.83,1.31,1.83,2.93,1.79,.69-.02,1.74,.12,2.35-.28,.47-.3,.46-1.16,.5-1.64,.17-2.07,0-4.21-.02-6.29-.01-2.35-.06-4.7,.08-7.05,.05-.84,.54-3.7-.95-3.77-1.27-.06-4.42-.72-5,.94-.18,.53,.65,.76,.84,.23,.22-.64,1.94-.4,2.43-.39,.97,.03,1.81-.15,1.88,1,.1,1.65-.16,3.34-.17,4.99-.02,3.24,.1,6.49,.06,9.73,0,.8,.09,1.54-.89,1.61-.7,.05-1.4,.04-2.1,.07-1.59,.07-1.18-2.74-1.21-3.81-.12-4.44,.01-8.88,.01-13.32,0-.56-.87-.56-.87,0h0Z"/><path class="cls-1" d="M191.68,318.6s-.1-8.05,.14-12.09c.06-1.1,.09-2.19,.14-3.3,.02-.52-.02-.97-.4-1.34-.62-.6-2.62-.23-3.44-.23-.56,0-.56,.87,0,.87,.81,0,2.97-.36,2.97,.72,0,1.75-.15,3.48-.25,5.22-.19,3.38-.03,6.69-.03,10.16,0,.58,.87,.58,.87,0,0,0,0,.58,0,0Z"/><path class="cls-1" d="M186.05,295.4c-1.51,.2-3.42,.26-4.5,1.5-1.26,1.44-1.16,3.77-1.14,5.55,.06,5.04-.27,10.07-.18,15.11,.03,1.97-.15,4.5,.91,6.27,.88,1.48,3.26,1.84,4.78,2.01,2.51,.27,5.25-.02,7.77-.14,2.5-.11,3.77-1.39,4.71-3.67,.21-.52-.63-.74-.84-.23-.5,1.21-1.22,2.53-2.57,2.89-1.04,.27-2.23,.19-3.3,.19-2.12,.01-4.3,.33-6.41,.01-1.96-.29-3.51-.94-3.91-2.99-.41-2.12-.29-4.41-.3-6.56-.02-3.8,.38-7.59,.25-11.38-.07-1.94-.3-4.19,.55-5.99,.69-1.48,2.81-1.52,4.18-1.7,.55-.07,.55-.94,0-.87h0Z"/></g><g><path class="cls-2" d="M18.79,305.29c-5.13,.21-13.13-.76-14.53,5.75-.63,2.9-.1,5.98-.1,8.91,0,4.24-.12,8.47-.11,12.71,0,4.23,.03,8.46,.1,12.69,.03,1.95,.15,3.87,1.5,5.39,1.2,1.34,3.31,1.62,4.99,1.8,3.41,.38,6.64,.17,10.39,.17,.94,0,.94-1.4,0-1.41-2.81,0-5.55,.04-8.29-.04-1.88-.05-4.29-.07-5.84-1.31-1.71-1.37-1.32-4.36-1.35-6.25-.05-3.68-.07-7.37-.08-11.05-.01-5.96,.08-11.91-.05-17.86-.07-3.27,.35-6.18,3.81-7.32,2.99-.98,6.47-.65,9.57-.78,.9-.04,.91-1.44,0-1.41h0Z"/><path class="cls-2" d="M18.79,306.69c2.68,.09,5.41-.07,8.02,.64,3.23,.89,3.15,4.15,3.19,6.93,.08,5.93,.18,11.86,.15,17.8-.02,4.67,.11,9.36-.41,14.01-.28,2.46-.79,4.04-3.37,4.79-2.33,.68-4.96,.46-7.35,.45-.91,0-.91,1.4,0,1.41,3.66,.01,10,.7,11.55-3.65,.79-2.23,.79-4.87,.89-7.2,.13-2.97,.09-5.95,.1-8.93,.02-7.2,.47-14.66-.32-21.83-.7-6.36-7.54-5.67-12.45-5.82-.91-.03-.9,1.38,0,1.41h0Z"/><path class="cls-2" d="M12.9,315.32c0,4.95-.1,9.9-.1,14.85,0,3.67-.37,7.73,.29,11.37,.53,2.97,2.13,2.97,4.75,2.9,1.12-.03,2.82,.19,3.81-.45,.76-.49,.75-1.88,.82-2.65,.28-3.36,0-6.82-.03-10.19-.02-3.81-.1-7.62,.13-11.43,.08-1.37,.88-6-1.54-6.11-2.06-.09-7.16-1.16-8.09,1.53-.3,.86,1.06,1.22,1.35,.37,.36-1.03,3.14-.65,3.94-.63,1.57,.04,2.93-.24,3.04,1.63,.16,2.67-.26,5.4-.27,8.09-.02,5.25,.16,10.51,.1,15.76-.02,1.3,.15,2.5-1.45,2.61-1.13,.08-2.27,.07-3.4,.12-2.58,.12-1.92-4.44-1.97-6.17-.19-7.19,.02-14.39,.02-21.59,0-.91-1.4-.91-1.41,0h0Z"/><path class="cls-2" d="M19.85,343.35s-.15-13.04,.22-19.59c.1-1.79,.15-3.56,.22-5.34,.03-.84-.03-1.58-.65-2.18-1-.97-4.25-.37-5.57-.38-.91,0-.91,1.41,0,1.41,1.3,0,4.82-.58,4.82,1.16,0,2.83-.24,5.63-.4,8.46-.31,5.48-.05,10.84-.04,16.46,0,.94,1.41,.94,1.41,0,0,0,0,.94,0,0Z"/><path class="cls-2" d="M10.71,305.76c-2.44,.32-5.54,.43-7.29,2.43-2.04,2.33-1.88,6.11-1.85,8.99,.09,8.17-.44,16.31-.3,24.49,.06,3.2-.24,7.29,1.47,10.15,1.42,2.39,5.28,2.99,7.75,3.26,4.07,.44,8.5-.03,12.59-.22,4.05-.19,6.12-2.26,7.64-5.95,.35-.84-1.01-1.2-1.35-.37-.81,1.96-1.97,4.1-4.17,4.68-1.68,.44-3.62,.3-5.35,.31-3.44,.02-6.96,.53-10.38,.02-3.18-.47-5.69-1.53-6.34-4.85-.67-3.43-.47-7.14-.49-10.62-.04-6.15,.62-12.29,.41-18.44-.11-3.14-.49-6.78,.89-9.71,1.12-2.39,4.55-2.46,6.78-2.75,.88-.12,.9-1.52,0-1.41h0Z"/></g><rect class="cls-4" x="60.32" y="70.81" width="104.18" height="104.18"/><rect class="cls-4" x="164.5" y="70.81" width="104.18" height="104.18"/><rect class="cls-4" x="60.32" y="175" width="104.18" height="104.18"/><rect class="cls-4" x="164.5" y="175" width="104.18" height="104.18"/><rect class="cls-4" x="60.32" y="278.98" width="104.18" height="104.18"/><rect class="cls-4" x="164.5" y="278.98" width="104.18" height="104.18"/><line class="cls-3" x1="60.32" y1="175" x2="164.5" y2="70.81"/><line class="cls-3" x1="60.32" y1="278.98" x2="268.59" y2="70.71"/><line class="cls-3" x1="60.32" y1="383.17" x2="268.59" y2="174.9"/><line class="cls-3" x1="164.5" y1="383.17" x2="268.69" y2="278.98"/></g></svg>