<?xml version="1.0" encoding="utf-8"?>
<!-- Generator: Adobe Illustrator 26.3.1, SVG Export Plug-In . SVG Version: 6.00 Build 0)  -->
<svg version="1.1" id="Layer_2_00000053518267546561174860000012120441983407405217_"
	 xmlns="http://www.w3.org/2000/svg" xmlns:xlink="http://www.w3.org/1999/xlink" x="0px" y="0px" viewBox="0 0 327.1 446.5"
	 style="enable-background:new 0 0 327.1 446.5;" xml:space="preserve">
<style type="text/css">
	.st0{fill:#FF9600;}
	.st1{fill:#008EE5;}
	.st2{fill:none;stroke:#FF9600;stroke-miterlimit:10;}
	.st3{fill:none;stroke:#008EE5;stroke-width:4;stroke-linecap:round;stroke-miterlimit:10;}
</style>
<g id="Layer_1-2">
	<g>
		<path class="st0" d="M300.1,202.8c0,1.9,0,3.9,0.1,5.8c0,1.1,0,2.7,0.7,3.6c0.6,0.7,1.6-0.3,1-1c-0.5-0.6-0.3-2.7-0.3-3.5
			c-0.1-1.6-0.1-3.3-0.1-4.9C301.5,201.8,300.1,201.8,300.1,202.8L300.1,202.8L300.1,202.8z"/>
		<path class="st0" d="M301.5,212.5c2.7,0,5.5,0.2,8.2,0.2c0.9,0,0.9-1.4,0-1.4c-2.7,0-5.5-0.2-8.2-0.2
			C300.6,211.1,300.6,212.5,301.5,212.5L301.5,212.5z"/>
		<path class="st0" d="M309.1,212.2c0,12.3-0.2,24.6-0.2,36.9c0,0.9,1.4,0.9,1.4,0c0-12.3,0.3-24.6,0.2-36.9
			C310.5,211.3,309.1,211.3,309.1,212.2L309.1,212.2z"/>
		<path class="st0" d="M309.5,250.1c3.3,0,6.6-0.1,10-0.1c0.9,0,0.9-1.4,0-1.4c-3.3,0-6.6,0.1-10,0.1
			C308.6,248.6,308.6,250.1,309.5,250.1L309.5,250.1z"/>
		<path class="st0" d="M318.9,203.1c0,15.3,0.4,30.6-0.1,45.9c0,0.9,1.4,0.9,1.4,0c0.5-15.3,0.1-30.6,0.1-45.9
			C320.3,202.2,318.9,202.2,318.9,203.1L318.9,203.1z"/>
		<path class="st0" d="M301,203.4c0.7-0.4,2.3-0.2,3-0.2c1.3,0,2.6,0,4,0c3.8,0,7.5,0.2,11.2,0.2c0.9,0,0.9-1.4,0-1.4
			c-3.9,0-7.7-0.2-11.6-0.2c-1.6,0-3.1,0-4.7,0c-0.8,0-2-0.1-2.7,0.4C299.6,202.6,300.3,203.8,301,203.4L301,203.4L301,203.4z"/>
		<path class="st0" d="M301.1,201.9c-1.5,0.1-2.5,1.8-3.1,3c-0.4,0.8,0.8,1.5,1.2,0.7c0.3-0.6,0.6-1.1,1-1.6
			c0.2-0.2,0.6-0.7,0.9-0.7C302,203.3,302,201.8,301.1,201.9L301.1,201.9L301.1,201.9z"/>
		<path class="st0" d="M297.9,205.6c0,2.5-0.9,6,0.6,8.2c0.7,1,1.7,1.2,2.8,1.2c2.1,0,4.1,0.1,6.2,0c0.9-0.1,0.9-1.5,0-1.4
			c-1.4,0.1-2.7,0.1-4.1,0.1c-1.3,0-3.4,0.5-4-1.1c-0.8-2.1-0.1-4.8-0.1-6.9C299.4,204.7,298,204.7,297.9,205.6L297.9,205.6
			L297.9,205.6z"/>
		<path class="st0" d="M306.8,214.3c-0.2,1.3,0,2.6,0,4c0,1.9-0.1,3.9-0.1,5.9c-0.1,4-0.1,8.1-0.2,12.1c-0.1,3.2-0.1,6.4-0.1,9.6
			c0,1.9-0.3,4.9,0.8,6.6c0.5,0.8,1.7,0,1.2-0.7c-1.1-1.7-0.6-5.1-0.6-7c0-2.8,0.1-5.6,0.1-8.4c0.1-3.5,0.1-7.1,0.2-10.6
			c0-1.7,0.1-3.4,0.1-5.2c0.1-1.9-0.3-4,0-5.8C308.3,213.8,306.9,213.4,306.8,214.3L306.8,214.3L306.8,214.3z"/>
		<path class="st0" d="M308.9,211.9c-0.6,0.7-1.1,1.4-1.9,2.1c-0.3,0.2-0.2,0.7,0,1c0.3,0.3,0.7,0.2,1,0c0.7-0.6,1.2-1.4,1.9-2.1
			C310.5,212.2,309.5,211.2,308.9,211.9L308.9,211.9z"/>
		<path class="st0" d="M318.7,249.2c-0.2,0.8-0.7,1.4-1.2,2c-0.5,0.8,0.7,1.5,1.2,0.7c0.5-0.8,1.1-1.4,1.3-2.3
			C320.3,248.7,318.9,248.4,318.7,249.2L318.7,249.2L318.7,249.2z"/>
		<path class="st0" d="M308.1,252.8c3.3,0,6.6,0,9.8-0.3c0.9-0.1,0.9-1.5,0-1.4c-3.3,0.3-6.5,0.3-9.8,0.3
			C307.2,251.3,307.2,252.7,308.1,252.8L308.1,252.8z"/>
		<path class="st0" d="M309,248.8c-0.6,0.7-1.1,1.5-1.8,2.2c-0.6,0.6,0.4,1.6,1,1c0.6-0.7,1.2-1.4,1.8-2.2
			C310.6,249.1,309.6,248.1,309,248.8L309,248.8z"/>
	</g>
	<g>
		<path class="st0" d="M4.1,213.6c0-3.2-0.2-6.5,1.5-9.3c1.6-2.6,5.8-2.2,8.4-2.6c2.4-0.3,5.1-0.3,7.6-0.1c2.6,0.2,5.8,0.3,6.5,3.4
			c0.2,0.9,1.5,0.5,1.4-0.4c-0.6-2.8-2.6-3.7-5.2-4.1c-3.4-0.5-6.9-0.6-10.2-0.3c-3,0.3-6.8,0.2-9.1,2.6c-2.6,2.7-2.2,7.3-2.2,10.6
			C2.6,214.6,4.1,214.6,4.1,213.6L4.1,213.6L4.1,213.6z"/>
		<path class="st0" d="M28.1,205.1c1.3,6.2,2,13.3,0.3,19.5c-0.2,0.9,1.1,1.2,1.4,0.4c1.8-6.5,1-13.8-0.3-20.2
			C29.2,203.9,27.9,204.2,28.1,205.1L28.1,205.1L28.1,205.1z"/>
		<path class="st0" d="M12.8,215.1c0.1-0.9,0.2-1.8,0.1-2.7c-0.1-1.1-0.3-1.7,1-1.9c1.5-0.2,3.3-0.2,4.8,0c1.4,0.2,0.7,7.2,0.4,8.2
			c-0.2,0.9,1.1,1.2,1.4,0.4c0.5-1.9,0.4-4,0.4-5.9c-0.1-1.4-0.1-3.5-1.7-4.1c-1-0.3-2.2-0.1-3.2-0.2c-1.1,0-2.2,0-3.3,0.3
			c-0.7,0.2-1.1,0.6-1.2,1.3c-0.1,1.4,0,2.9-0.1,4.4C11.3,216,12.7,216,12.8,215.1L12.8,215.1L12.8,215.1z"/>
		<path class="st0" d="M19.2,218.9c-0.8,3.6-6.1,5.3-9.1,6.8c-2.7,1.4-5.4,3.4-6.6,6.3c-1.1,2.6-0.8,5.6-0.8,8.3
			c0,2.8-0.1,5.6-0.1,8.3c0,0.9,1.4,0.9,1.4,0c0-2.6,0.1-5.3,0.1-7.9c0-2.9-0.4-6.2,1.1-8.9c1.9-3.5,5.8-4.9,9.2-6.6
			c2.5-1.2,5.5-3,6.1-5.9C20.7,218.3,19.4,218,19.2,218.9L19.2,218.9L19.2,218.9z"/>
		<path class="st0" d="M3.6,249.4c8.6,0,17.2,0.3,25.8-0.1c0.9,0,0.9-1.4,0-1.4c-8.6,0.4-17.2,0.1-25.8,0.1
			C2.7,248,2.7,249.4,3.6,249.4C3.6,249.4,3.6,249.4,3.6,249.4z"/>
		<path class="st0" d="M28.7,240.2c0.3,2.7,0,5.4-0.1,8c0,0.9,1.4,0.9,1.4,0c0-2.7,0.4-5.4,0.1-8C30,239.3,28.5,239.3,28.7,240.2
			L28.7,240.2z"/>
		<path class="st0" d="M13.8,240.5c5.1,0,10.2,0,15.4-0.1c0.9,0,0.9-1.4,0-1.4c-5.1,0.1-10.2,0.1-15.4,0.1
			C12.8,239.1,12.8,240.5,13.8,240.5C13.8,240.5,13.8,240.5,13.8,240.5z"/>
		<path class="st0" d="M28.4,224.6c-0.6,2.3-2.6,3.3-4.5,4.3c-2,1.1-3.8,2.3-5.8,3.4c-2.8,1.5-4.9,3.9-5,7.2c0,0.9,1.4,0.9,1.4,0
			c0.2-4.6,5.3-6.6,8.8-8.6c2.6-1.5,5.6-2.7,6.5-5.9C30,224.1,28.6,223.8,28.4,224.6L28.4,224.6L28.4,224.6z"/>
		<path class="st0" d="M2.7,213.2c0,1.3,0.1,2.8,1.8,2.8c2.4,0.1,4.9,0,7.3-0.2c0.9-0.1,0.9-1.5,0-1.4c-1.6,0.1-3.1,0.2-4.7,0.2
			c-0.6,0-1.2,0-1.7,0c-1.1,0.1-1.2-0.6-1.2-1.4C4.1,212.3,2.7,212.3,2.7,213.2L2.7,213.2L2.7,213.2z"/>
		<path class="st0" d="M11.3,215.2c-0.4,0.6-1,1.1-1.4,1.8c-0.5,0.8,0.7,1.5,1.2,0.7c0.4-0.6,1-1.1,1.4-1.8
			C13,215.2,11.8,214.5,11.3,215.2L11.3,215.2z"/>
		<path class="st0" d="M10.3,216.7c-2.1,0.6-4.8,0.9-6.9,0.5c-3-0.5-1.6-6.7-1.3-8.4c0.7-3.2,2.1-5,5.2-5.8c0.9-0.2,0.5-1.6-0.4-1.4
			c-4.7,1.3-6,4.6-6.6,9.2c-0.3,1.9-0.6,6.2,1.6,7.4c2.4,1.3,6.2,0.7,8.8-0.1C11.5,217.8,11.2,216.4,10.3,216.7L10.3,216.7
			L10.3,216.7z"/>
		<path class="st0" d="M8.4,226.7c-4.3,3-8.2,5.5-8.4,11.2c-0.1,2.8-0.1,5.6,0.1,8.4c0.1,1.4,0,4,1.2,5.1c0.7,0.6,1.7-0.4,1-1
			c-1-0.9-0.7-3.9-0.8-5.1c-0.1-2.2-0.1-4.4-0.1-6.6c0-2.4,0.3-4.4,1.9-6.3c1.6-1.9,3.8-3.1,5.8-4.5C9.9,227.4,9.2,226.2,8.4,226.7
			L8.4,226.7L8.4,226.7z"/>
		<path class="st0" d="M12.8,212.9c0.4,0,4.4-0.3,4.4,0.1c0,1.4-0.1,2.9-0.3,4.3c-0.5,3.5-2.1,5.8-5.3,7.6c-0.8,0.4-0.1,1.7,0.7,1.2
			c3.7-2.1,5.5-4.9,6-9c0.2-1.3,0.8-3.8,0.1-5c-0.8-1.3-4.4-0.5-5.6-0.5C11.9,211.6,11.9,213,12.8,212.9L12.8,212.9L12.8,212.9z"/>
		<path class="st0" d="M28.5,248.6c-0.5,0.6-0.8,1.2-1.3,1.8c-0.6,0.7,0.4,1.7,1,1c0.5-0.6,0.8-1.2,1.3-1.8
			C30.1,248.9,29.1,247.9,28.5,248.6L28.5,248.6z"/>
		<path class="st0" d="M1.6,251.5c4.1,0.6,8,0.3,12.1,0.4c4.5,0.1,9.1-0.1,13.6-0.1c0.9,0,0.9-1.4,0-1.4c-4.3,0-8.5,0.1-12.8,0.1
			c-4.2,0-8.4,0.3-12.6-0.3C1.1,250,0.7,251.4,1.6,251.5L1.6,251.5L1.6,251.5z"/>
		<path class="st0" d="M3.3,248.2c-0.8,0.5-1.5,1.1-2.2,1.7c-0.3,0.2-0.2,0.8,0,1c0.3,0.3,0.7,0.2,1,0c0.6-0.5,1.2-1.1,1.9-1.4
			C4.8,248.9,4.1,247.7,3.3,248.2L3.3,248.2z"/>
	</g>
	<g>
		<path class="st0" d="M205.5,13.4c0-3.2-0.2-6.5,1.5-9.3c1.6-2.6,5.8-2.2,8.4-2.6c2.4-0.3,5.1-0.3,7.6-0.1c2.6,0.2,5.8,0.3,6.5,3.4
			c0.2,0.9,1.6,0.5,1.4-0.4c-0.6-2.8-2.6-3.7-5.2-4.1c-3.4-0.5-6.9-0.6-10.2-0.3c-3,0.3-6.8,0.2-9.1,2.6c-2.6,2.7-2.2,7.3-2.2,10.6
			C204.1,14.3,205.5,14.3,205.5,13.4L205.5,13.4L205.5,13.4z"/>
		<path class="st0" d="M229.5,4.9c1.3,6.2,2,13.3,0.3,19.5c-0.2,0.9,1.1,1.2,1.4,0.4c1.8-6.5,1-13.8-0.3-20.2
			C230.6,3.6,229.3,4,229.5,4.9C229.5,4.9,229.5,4.9,229.5,4.9z"/>
		<path class="st0" d="M214.2,14.9c0.1-0.9,0.2-1.8,0.1-2.7c-0.1-1.1-0.3-1.7,1-1.9c1.5-0.2,3.3-0.2,4.9,0c1.4,0.2,0.7,7.2,0.4,8.2
			c-0.2,0.9,1.1,1.2,1.4,0.4c0.5-1.9,0.4-4,0.4-5.9c-0.1-1.4-0.1-3.5-1.7-4.1c-0.9-0.3-2.2-0.1-3.2-0.2c-1.1,0-2.2,0-3.3,0.3
			c-0.7,0.2-1.1,0.6-1.2,1.3c-0.1,1.4,0,2.9-0.1,4.4C212.7,15.8,214.1,15.8,214.2,14.9L214.2,14.9L214.2,14.9z"/>
		<path class="st0" d="M220.6,18.6c-0.8,3.6-6.1,5.3-9.1,6.8c-2.7,1.4-5.4,3.4-6.6,6.3c-1.1,2.6-0.8,5.6-0.8,8.3
			c0,2.8-0.1,5.6-0.1,8.3c0,0.9,1.4,0.9,1.4,0c0-2.7,0.1-5.3,0.1-8c0-2.9-0.4-6.2,1.1-8.9c1.9-3.5,5.8-5,9.2-6.6
			c2.5-1.2,5.5-3,6.1-5.9C222.1,18.1,220.8,17.7,220.6,18.6L220.6,18.6L220.6,18.6z"/>
		<path class="st0" d="M205,49.2c8.6,0,17.2,0.3,25.8-0.1c0.9,0,0.9-1.5,0-1.4c-8.6,0.4-17.2,0.1-25.8,0.1
			C204.1,47.8,204.1,49.2,205,49.2L205,49.2z"/>
		<path class="st0" d="M230.1,40c0.3,2.7-0.1,5.4-0.1,8c0,0.9,1.4,0.9,1.4,0c0-2.7,0.4-5.4,0.1-8C231.4,39.1,230,39.1,230.1,40
			L230.1,40z"/>
		<path class="st0" d="M215.2,40.3c5.1,0,10.2,0,15.4-0.1c0.9,0,0.9-1.4,0-1.4c-5.1,0.1-10.2,0.1-15.4,0.1
			C214.2,38.9,214.2,40.3,215.2,40.3L215.2,40.3z"/>
		<path class="st0" d="M229.8,24.4c-0.6,2.3-2.6,3.3-4.5,4.3c-2,1.1-3.8,2.3-5.8,3.4c-2.8,1.5-4.9,3.9-5,7.2c0,0.9,1.4,0.9,1.4,0
			c0.2-4.6,5.3-6.6,8.8-8.6c2.6-1.5,5.6-2.7,6.5-5.9C231.4,23.9,230,23.5,229.8,24.4L229.8,24.4L229.8,24.4z"/>
		<path class="st0" d="M204.1,13c0,1.3,0.1,2.8,1.8,2.8c2.4,0.1,4.9,0,7.3-0.2c0.9-0.1,0.9-1.5,0-1.4c-1.6,0.1-3.1,0.2-4.7,0.2
			c-0.6,0-1.1,0-1.7,0c-1.1,0.1-1.2-0.6-1.2-1.4C205.5,12.1,204.1,12.1,204.1,13L204.1,13L204.1,13z"/>
		<path class="st0" d="M212.7,15c-0.4,0.6-1,1.1-1.4,1.8c-0.5,0.8,0.7,1.5,1.2,0.7c0.4-0.6,1-1.1,1.4-1.8
			C214.4,14.9,213.2,14.2,212.7,15C212.7,15,212.7,15,212.7,15z"/>
		<path class="st0" d="M211.7,16.5c-2.1,0.6-4.8,0.9-6.9,0.5c-3-0.5-1.6-6.7-1.3-8.4c0.6-3.2,2.1-5,5.2-5.8c0.9-0.2,0.5-1.6-0.4-1.4
			c-4.6,1.3-6,4.6-6.6,9.2c-0.3,1.9-0.6,6.2,1.6,7.4c2.4,1.3,6.2,0.7,8.8,0C212.9,17.6,212.6,16.2,211.7,16.5L211.7,16.5L211.7,16.5
			z"/>
		<path class="st0" d="M209.8,26.5c-4.3,3-8.2,5.5-8.4,11.2c-0.1,2.8-0.1,5.6,0.1,8.4c0.1,1.4,0,4,1.2,5c0.7,0.6,1.7-0.4,1-1
			c-1-0.9-0.7-3.9-0.8-5.1c-0.1-2.2-0.1-4.4-0.1-6.5c0-2.4,0.3-4.3,1.9-6.3c1.6-1.9,3.8-3.1,5.8-4.5C211.3,27.2,210.6,26,209.8,26.5
			C209.8,26.5,209.8,26.5,209.8,26.5z"/>
		<path class="st0" d="M214.2,12.7c0.4,0,4.4-0.3,4.4,0.1c0,1.4-0.1,2.8-0.3,4.3c-0.6,3.5-2.1,5.8-5.3,7.6c-0.8,0.4-0.1,1.7,0.7,1.2
			c3.7-2.1,5.5-4.9,6-9c0.2-1.3,0.8-3.8,0.1-5c-0.8-1.3-4.4-0.5-5.6-0.5C213.3,11.3,213.3,12.7,214.2,12.7L214.2,12.7L214.2,12.7z"
			/>
		<path class="st0" d="M230,48.4c-0.5,0.6-0.8,1.2-1.3,1.8c-0.6,0.7,0.4,1.7,1,1c0.5-0.6,0.8-1.2,1.3-1.8
			C231.5,48.7,230.6,47.7,230,48.4L230,48.4z"/>
		<path class="st0" d="M203,51.2c4.1,0.6,8,0.3,12.1,0.3c4.5,0.1,9.1-0.1,13.6-0.1c0.9,0,0.9-1.4,0-1.4c-4.3,0-8.5,0.1-12.8,0.1
			c-4.2,0-8.4,0.3-12.6-0.3C202.5,49.8,202.1,51.1,203,51.2L203,51.2L203,51.2z"/>
		<path class="st0" d="M204.7,47.9c-0.8,0.5-1.5,1.1-2.2,1.7c-0.3,0.2-0.2,0.8,0,1c0.3,0.3,0.7,0.2,1,0c0.6-0.5,1.2-1,1.9-1.5
			C206.2,48.7,205.5,47.5,204.7,47.9L204.7,47.9z"/>
	</g>
	<g>
		<path class="st0" d="M301,321.6c-0.3-2.6-0.2-5.3,0-7.9c0.2-3.4,2.2-4.9,5.3-5.7c2.6-0.7,5.3-0.6,8-0.5c2.4,0.1,4.7,0.1,7,0.7
			c0.9,0.2,1.2-1.1,0.4-1.4c-2.7-0.7-5.5-0.7-8.2-0.8c-3.2-0.1-6.3,0-9.3,1.2c-2.1,0.8-3.5,2.1-4.1,4.3c-0.9,3-0.7,7-0.3,10.1
			C299.7,322.5,301.1,322.5,301,321.6L301,321.6L301,321.6z"/>
		<path class="st0" d="M321,308.1c3.1,1.6,3.5,7.2,3.7,10.3c0.1,1.9-0.1,3.7-0.2,5.6c-0.1,2.4-0.1,4.2-1.9,5.9
			c-0.3,0.3-0.3,0.9,0.1,1.1c3,1.3,2.8,5.7,2.8,8.4c0,4.1,1.1,10.6-3,13c-0.8,0.5-0.1,1.7,0.7,1.2c4.7-2.7,3.8-9.4,3.8-13.9
			c0-3.3,0.1-8.4-3.5-10c0,0.4,0.1,0.7,0.1,1.1c1.6-1.5,2.1-2.5,2.2-4.9c0.2-2.5,0.3-5.1,0.3-7.5c0-3.5-0.8-9.6-4.4-11.5
			C321,306.5,320.2,307.7,321,308.1L321,308.1L321,308.1z"/>
		<path class="st0" d="M299.2,340.1c0,3.3,0.1,6.7,0.4,9.9c0.3,2.8,2.2,3.8,4.7,4.4c3.5,0.9,7.1,0.8,10.6,0.7
			c2.9-0.1,5.6-0.1,8.2-1.6c0.8-0.4,0.1-1.6-0.7-1.2c-2.4,1.3-4.9,1.3-7.5,1.4c-2.9,0.1-5.8,0.2-8.8-0.3c-1.4-0.2-3.2-0.5-4.3-1.5
			c-1.1-0.9-1-2.9-1-4.2c0-2.5-0.3-5.1-0.3-7.6C300.6,339.2,299.2,339.2,299.2,340.1L299.2,340.1L299.2,340.1z"/>
		<path class="st0" d="M309.4,345.4c0.1-1.6-0.1-3.1-0.2-4.7c0-0.8-0.6-1.2-1.3-1.4c-0.9-0.3-2-0.2-3-0.2c-1.5,0-3-0.1-4.6,0.1
			c-0.9,0.1-0.9,1.5,0,1.4c1.9-0.2,3.8-0.1,5.7-0.1c1.2,0,1.8,0.1,1.9,1.5c0.1,1.1,0.2,2.3,0.1,3.5
			C307.9,346.3,309.3,346.3,309.4,345.4L309.4,345.4L309.4,345.4z"/>
		<path class="st0" d="M300.6,322.4c2.7,0.4,5.4,0.7,8.1,0.1c0.9-0.2,0.5-1.5-0.4-1.4c-2.6,0.5-5.1,0.2-7.7-0.2
			C299.7,320.9,299.8,322.3,300.6,322.4L300.6,322.4L300.6,322.4z"/>
		<path class="st0" d="M309.2,321.9c0-1.9-0.2-3.8,0-5.7c0.1-0.9-1.3-0.9-1.4,0c-0.2,1.9,0,3.8,0,5.7
			C307.8,322.8,309.2,322.8,309.2,321.9L309.2,321.9z"/>
		<path class="st0" d="M309.2,316.6c0.6-0.5,5.6-0.9,6.1-0.1c0.8,1,0.4,3.3,0.4,4.4c0,1.5,0.1,3.1,0,4.6c0,0.6-0.2,1.3-0.2,1.9
			c-0.1,0.7-1.9,0.5-2.5,0.6c-2,0.3-1.4,2.6-1.4,4.1c0,1.2,0.8,2,2,2.1c0.6,0,1.3-0.1,2,0c1.3,0.2,1.1,2.6,1.1,3.5
			c0,2-0.2,4.1-0.3,6.1c-0.1,2.1-1.6,2-3.2,2c-0.4,0-3.8,0.2-3.9-0.5c-0.1-0.9-1.5-0.9-1.4,0c0.2,2.8,4.4,1.9,6.4,1.9
			c2.7,0,3.4-1.3,3.6-3.8c0.2-2.8,0.6-5.8,0-8.5c-0.5-2.1-2.2-2-4-2.1c-0.9,0-0.9-0.7-0.9-1.4c0-1-0.4-2.1,0.8-2.2
			c0.9-0.1,2,0,2.7-0.7c1.2-1.2,0.7-5.6,0.6-7c0-1.6,0.7-6.8-2.1-6.9c-1.9,0-5.4-0.4-6.9,0.9C307.6,316.1,308.6,317.1,309.2,316.6
			L309.2,316.6L309.2,316.6z"/>
		<path class="st0" d="M309.1,318.9c0.8,0,1.6-0.1,2.4-0.2c0.4,0,1.8-0.6,1.8,0c0,0.9-0.1,1.8-0.1,2.6c0,2.2-0.1,4.4,0,6.6
			c0.1,0.9,1.5,0.9,1.4,0c-0.2-2.7-0.1-5.4,0-8.1c0-0.9,0.4-1.9-0.4-2.5c-0.5-0.4-1.1-0.3-1.6-0.3c-1.2,0.1-2.3,0.4-3.5,0.4
			C308.2,317.5,308.2,318.9,309.1,318.9L309.1,318.9L309.1,318.9z"/>
		<path class="st0" d="M312.4,328.3c-1.5,0.6-3,0.8-3,2.6c0,1.5-0.1,3.5,0.8,4.8c0.3,0.4,0.8,0.6,1.3,0.6c0.8,0.1,2.5-0.1,2.6,1.2
			c0.1,0.7-0.1,1.5-0.1,2.2c0,2.1,0.3,4.3-0.2,6.4c-0.2,0.9,1.1,1.3,1.4,0.4c0.4-1.5,0.3-3.2,0.3-4.7c0-1.7,0.4-3.8-0.2-5.4
			c-0.7-1.7-3.6-0.7-4-1.7c-0.4-0.9-0.3-2-0.4-3c-0.1-1.5,0.7-1.5,2-2C313.5,329.3,313.2,327.9,312.4,328.3L312.4,328.3L312.4,328.3
			z"/>
		<path class="st0" d="M308.2,321.5c-0.5,1-1.4,1.7-2.1,2.4c-0.7,0.6,0.3,1.6,1,1c0.9-0.8,1.8-1.6,2.4-2.7
			C309.9,321.4,308.6,320.7,308.2,321.5L308.2,321.5L308.2,321.5z"/>
		<path class="st0" d="M301.4,308.8c-1.8,1.8-3,3.8-4,6.1c-0.9,2.2-0.6,4.7-0.4,7c0.1,1.1,0.6,2.8,2,3c2.5,0.2,4.8,0.5,7.3,0.4
			c0.9,0,0.9-1.4,0-1.4c-1.7,0.1-3.4,0.2-5-0.1c-2.1-0.3-2.9-0.6-3-3c0-1.9-0.2-3.6,0.4-5.5c0.8-2.1,2-4,3.6-5.5
			C303,309.1,302,308.1,301.4,308.8L301.4,308.8L301.4,308.8z"/>
		<path class="st0" d="M299,340c-0.8,0.8-1.5,1.8-2.3,2.6c-0.6,0.6,0.4,1.6,1,1c0.8-0.8,1.5-1.8,2.3-2.6
			C300.7,340.3,299.7,339.3,299,340L299,340z"/>
		<path class="st0" d="M296.5,343.3c-0.3,3.3-0.4,6.5,0.5,9.7c0.9,3,5.1,3.6,7.7,3.9c4.3,0.6,9,0.9,13.4,0.1
			c1.8-0.3,3.2-0.8,4.6-1.9c1.3-1.1,1.9-2.1,2.7-3.5c0.5-0.8-0.8-1.5-1.2-0.7c-0.6,1-1,2-1.9,2.8c-1.8,1.5-3.8,1.9-6.1,2.1
			c-3.5,0.3-7.1,0.3-10.6-0.2c-3.2-0.5-6.9-0.7-7.6-4.5c-0.5-2.6-0.3-5.2-0.1-7.8C298,342.4,296.6,342.4,296.5,343.3L296.5,343.3
			L296.5,343.3z"/>
	</g>
	<g>
		<path class="st0" d="M2.9,101.7c0,4.7-0.1,9.5-0.1,14.2c0,4.6,0.4,9.3,0,13.9c-0.1,0.9,1.3,0.9,1.4,0c0.4-4.4,0.1-8.8,0-13.2
			c-0.1-4.9,0.1-9.9,0.1-14.9C4.3,100.8,2.9,100.8,2.9,101.7L2.9,101.7L2.9,101.7z"/>
		<path class="st0" d="M3.7,130.5c5.2,0.2,10.5,0.1,15.8,0.2c0.9,0,0.9-1.4,0-1.4c-5.2,0-10.5,0-15.8-0.2
			C2.8,129,2.8,130.4,3.7,130.5C3.7,130.5,3.7,130.5,3.7,130.5z"/>
		<path class="st0" d="M18.8,129.9c0,5.8,0.3,11.7,0.3,17.5c0,0.9,1.4,0.9,1.4,0c0-5.8-0.3-11.7-0.3-17.5
			C20.2,129,18.8,129,18.8,129.9L18.8,129.9z"/>
		<path class="st0" d="M19.8,148.3c3.2-0.1,6.5,0.3,9.7-0.2c0.9-0.1,0.9-1.5,0-1.4c-3.2,0.4-6.5,0-9.7,0.2
			C18.9,146.9,18.9,148.3,19.8,148.3L19.8,148.3z"/>
		<path class="st0" d="M28.8,101.2c0,15.4,0.3,30.8,0.2,46.2c0,0.9,1.4,0.9,1.4,0c0.2-15.4-0.1-30.8-0.2-46.2
			C30.2,100.3,28.8,100.3,28.8,101.2C28.8,101.2,28.8,101.2,28.8,101.2z"/>
		<path class="st0" d="M11.8,101.5c0.1,3.6-0.3,7.2-0.3,10.9c0,2.7,0.1,5.4,0.1,8.2c0,0.9,1.4,0.9,1.4,0c0-2.6-0.1-5.1-0.1-7.7
			c-0.1-3.8,0.4-7.6,0.3-11.3C13.2,100.6,11.8,100.6,11.8,101.5L11.8,101.5L11.8,101.5z"/>
		<path class="st0" d="M12.3,121.3c2.4,0.1,4.8-0.1,7.2,0.2c0.9,0.1,0.9-1.3,0-1.4c-2.4-0.2-4.8,0-7.2-0.2
			C11.4,119.8,11.4,121.2,12.3,121.3L12.3,121.3z"/>
		<path class="st0" d="M19,101.2c-0.2,6.5,0.3,13-0.2,19.5c-0.1,0.9,1.3,0.9,1.4,0c0.5-6.5-0.1-13,0.2-19.5
			C20.4,100.3,19,100.3,19,101.2C19,101.2,19,101.2,19,101.2z"/>
		<path class="st0" d="M19.7,101.9c3.2,0,6.4-0.1,9.7,0c0.9,0,0.9-1.4,0-1.4c-3.2-0.1-6.4,0-9.7,0C18.8,100.5,18.8,101.9,19.7,101.9
			L19.7,101.9z"/>
		<path class="st0" d="M3.4,101.9c3,0,6,0.2,9.1,0.2c0.9,0,0.9-1.4,0-1.4c-3,0-6-0.1-9.1-0.2C2.5,100.5,2.5,101.9,3.4,101.9
			C3.4,101.9,3.4,101.9,3.4,101.9z"/>
		<path class="st0" d="M19.3,100.6c-1.1,0.6-2.2,1.5-2.8,2.6c-0.5,0.8,0.8,1.5,1.2,0.7c0.5-0.9,1.4-1.7,2.3-2.1
			C20.8,101.4,20.1,100.2,19.3,100.6L19.3,100.6L19.3,100.6z"/>
		<path class="st0" d="M16.4,103.4c-0.1,2.9-0.1,5.8-0.1,8.7c-0.1,2.7-0.2,5.5-0.1,8.2c0,0.9,1.4,0.9,1.4,0
			c-0.1-2.5,0.2-4.9,0.1-7.4c-0.1-3.2,0-6.3,0.1-9.5C17.8,102.5,16.4,102.5,16.4,103.4L16.4,103.4z"/>
		<path class="st0" d="M3,100.7c-0.8,0.8-1.3,1.8-2,2.7c-0.6,0.7,0.4,1.7,1,1c0.7-0.9,1.2-1.8,2-2.7C4.6,101,3.6,100.1,3,100.7
			L3,100.7z"/>
		<path class="st0" d="M0.4,104.5c0,0-0.1,18.6,0,27.9c0,0.9,1.4,0.9,1.4,0c-0.1-9.3,0-18.5,0-27.9C1.8,103.5,0.4,103.5,0.4,104.5
			C0.4,104.5,0.4,103.5,0.4,104.5z"/>
		<path class="st0" d="M1.1,133.1c5.2-0.1,10.3,0,15.5-0.1c0.9,0,0.9-1.4,0-1.4c-5.1,0.1-10.3,0-15.5,0.1
			C0.2,131.7,0.2,133.1,1.1,133.1C1.1,133.1,1.1,133.1,1.1,133.1z"/>
		<path class="st0" d="M16.2,132.4c0.1,5.9,0,11.9,0.7,17.7c0.1,0.9,1.5,0.9,1.4,0c-0.7-5.8-0.6-11.8-0.7-17.7
			C17.6,131.5,16.2,131.5,16.2,132.4L16.2,132.4z"/>
		<path class="st0" d="M18.5,130c-0.8,0.6-1.5,1.3-2.2,2.1c-0.6,0.7,0.4,1.7,1,1c0.6-0.7,1.2-1.3,1.9-1.8c0.3-0.2,0.5-0.6,0.2-1
			C19.3,130,18.8,129.8,18.5,130L18.5,130z"/>
		<path class="st0" d="M29,147.3c-0.4,0.8-0.9,1.5-1.2,2.4c-0.1,0.4,0.2,0.8,0.5,0.9c0.4,0.1,0.7-0.1,0.9-0.5c0.3-0.7,0.7-1.4,1.1-2
			C30.6,147.2,29.4,146.5,29,147.3L29,147.3L29,147.3z"/>
		<path class="st0" d="M19,147.5c-0.4,0.6-0.9,1.3-1.4,1.9c-0.2,0.3-0.3,0.7,0,1c0.2,0.2,0.8,0.3,1,0c0.5-0.7,1.1-1.4,1.6-2.2
			C20.7,147.5,19.5,146.8,19,147.5L19,147.5z"/>
		<path class="st0" d="M18,150.8c3.4,0.1,6.8,0.2,10.2-0.2c0.9-0.1,0.9-1.5,0-1.4c-3.4,0.4-6.8,0.3-10.2,0.2
			C17,149.3,17.1,150.8,18,150.8L18,150.8z"/>
		<path class="st0" d="M3.2,128.9c-1,0.8-1.4,1.8-2.2,2.8c-0.6,0.7,0.4,1.7,1,1c0.6-0.8,1.1-1.9,1.9-2.5c0.3-0.2,0.5-0.6,0.2-1
			C4,128.8,3.5,128.6,3.2,128.9L3.2,128.9z"/>
	</g>
	<g>
		<path class="st0" d="M299.3,99c0,0,15.8-0.1,23.6-0.2c0.9,0,0.9-1.4,0-1.4c-7.9,0.1-15.7,0.2-23.6,0.2
			C298.3,97.6,298.3,99,299.3,99C299.3,99,298.3,99,299.3,99z"/>
		<path class="st0" d="M298.9,123.3c0-4.2-0.1-8.4-0.2-12.7c0-2.2-0.1-4.4-0.1-6.6c0-1.5-0.8-5.2,1.2-5.1c0.9,0,0.9-1.4,0-1.4
			c-1.5-0.1-2.4,0.5-2.5,2.1c-0.2,2.4,0,4.8,0,7.1c0.1,5.5,0.2,11,0.3,16.5C297.5,124.2,298.9,124.2,298.9,123.3L298.9,123.3
			L298.9,123.3z"/>
		<path class="st0" d="M298.2,124.1c2.8,0,5.7,0,8.5-0.6c1.4-0.3,2.4-0.5,3.9-0.4c0.8,0,1.6,0.1,2.5,0.3c1.5,0.4,1.4,1.7,1.5,3
			c0.1,2.1,0,4.2-0.1,6.2c-0.1,1.1,0,2.8-1.3,3.3c-0.8,0.3-1.8,0.1-2.6,0.1c-0.9-0.1-2.1,0.1-2.8-0.5c-0.9-0.7-0.5-3.1-0.4-4.2
			c0.1-0.9-1.3-0.9-1.4,0c-0.2,1.6-0.5,4.6,1.4,5.6c1.5,0.7,4.1,0.8,5.8,0.5c1.9-0.4,2.5-1.6,2.7-3.5c0.3-3,0.4-6,0.1-9
			c-0.4-3.5-5-3.7-7.8-3.2c-0.8,0.1-1.5,0.4-2.2,0.6c-2.5,0.5-5.1,0.5-7.6,0.5C297.2,122.7,297.2,124.1,298.2,124.1L298.2,124.1
			L298.2,124.1z"/>
		<path class="st0" d="M322.4,98.2c0,3,0.1,6,0,9l0.7-0.7c-5.2,0-10.5,0-15.7,0.2c-0.9,0-0.9,1.4,0,1.4c5.2-0.1,10.5-0.2,15.7-0.2
			c0.4,0,0.7-0.3,0.7-0.7c0.1-3,0-6,0-9C323.8,97.3,322.4,97.3,322.4,98.2L322.4,98.2L322.4,98.2z"/>
		<path class="st0" d="M306.3,107.2c0.1,2.3,0.2,4.6,0.2,6.9c0,0.9,1.4,0.9,1.4,0c0-2.3-0.1-4.6-0.2-6.9
			C307.7,106.3,306.2,106.3,306.3,107.2L306.3,107.2z"/>
		<path class="st0" d="M307.3,114.8c2.9-0.1,5.9-1,8.8-0.4c3,0.6,5.4,3,6.4,5.7c1.8,4.5,1.3,10.1,1.1,14.9c-0.1,2.4-0.4,5.9-1.9,7.8
			c-1.8,2.2-6.5,1.6-9,1.6c-2.4,0-4.9,0.1-7.3-0.1c-1.2-0.1-2.8,0.1-3.8-0.7c-0.6-0.5-1.6-1.4-1.9-2.2c-0.3-0.9-1.6-0.5-1.4,0.4
			c1.7,4.9,7.9,4.1,12,4.1c3.4,0,7.3,0.4,10.5-0.8c3-1.1,3.4-4.6,3.9-7.3c0.5-2.7,0.4-5.5,0.4-8.2c0-3.5-0.2-7.1-1.5-10.4
			c-1-2.7-3.2-4.5-5.8-5.6c-3.2-1.4-7.1-0.2-10.5-0.1C306.4,113.4,306.4,114.9,307.3,114.8L307.3,114.8L307.3,114.8z"/>
		<path class="st0" d="M306.5,130c-3,0.1-5.9,0-8.9,0.1c-0.4,0-0.7,0.3-0.7,0.7c0.1,2.4,0.3,4.8,0.6,7.2c0.2,1.6,0.4,3.4,1.3,4.8
			c0.5,0.8,1.7,0.1,1.2-0.7c-0.9-1.4-1-3.5-1.2-5.1c-0.2-2-0.4-4.1-0.5-6.1l-0.7,0.7c3-0.1,5.9,0,8.9-0.1
			C307.4,131.3,307.4,129.9,306.5,130L306.5,130L306.5,130z"/>
		<path class="st0" d="M297.6,98.2c-1,0.7-1.9,1.6-2.4,2.7c-0.4,0.8,0.8,1.5,1.2,0.7c0.5-0.9,1.1-1.6,1.9-2.2
			C299,98.9,298.3,97.7,297.6,98.2L297.6,98.2L297.6,98.2z"/>
		<path class="st0" d="M295.3,100.6c-0.6,1.1-0.4,2.7-0.4,3.9c0,2.2,0.1,4.5,0.1,6.8c0,4.4,0.1,8.7,0.3,13.1c0,0.9,1.4,0.9,1.4,0
			c-0.1-3.9-0.4-7.7-0.3-11.6c0-2.2,0-4.3-0.1-6.4c0-1.3-0.5-3.8,0.2-4.9C296.9,100.5,295.7,99.8,295.3,100.6L295.3,100.6
			L295.3,100.6z"/>
		<path class="st0" d="M295.3,124.3c0.1,1.2,0.7,2.1,2,2.2c2.6,0.2,5.5-0.2,8.2-0.4c1.5-0.1,3-0.3,4.5-0.5c2-0.2,2.4,0.5,2.2,2.5
			c-0.1,1.2,0.1,2.4,0.2,3.6c0,1.4-0.5,2.9-0.7,4.3c-0.1,0.9,1.2,1.3,1.4,0.4c0.4-2.5,0.8-4.6,0.6-7.2c-0.1-1.3,0.5-4-1.1-4.7
			c-2.1-0.9-4.9,0-7.1,0.2c-1.1,0.1-8.5,1.2-8.7-0.4C296.6,123.4,295.2,123.4,295.3,124.3L295.3,124.3L295.3,124.3z"/>
		<path class="st0" d="M297.9,123c-0.6,0.5-1.1,1-1.6,1.5c-0.3,0.2-0.3,0.7,0,1c0.3,0.3,0.7,0.2,1,0c0.6-0.5,1.1-1,1.6-1.5
			c0.3-0.2,0.3-0.7,0-1C298.6,122.7,298.2,122.7,297.9,123L297.9,123z"/>
		<path class="st0" d="M322.4,106.9c-0.5,0.8-1.3,1.5-2,2.1c-0.7,0.6,0.3,1.6,1,1c0.8-0.7,1.7-1.4,2.2-2.4
			C324,106.8,322.8,106.1,322.4,106.9L322.4,106.9L322.4,106.9z"/>
		<path class="st0" d="M307.5,110.4c4.4,0,8.9-0.2,13.3-0.2c0.9,0,0.9-1.4,0-1.4c-4.4,0.1-8.9,0.2-13.3,0.2
			C306.5,109,306.5,110.4,307.5,110.4L307.5,110.4z"/>
		<path class="st0" d="M297.2,130.3c-0.9,0.6-1.4,1.5-2.1,2.3c-0.6,0.6,0.4,1.6,1,1s1.1-1.5,1.8-2.1c0.3-0.2,0.5-0.6,0.2-1
			C298,130.2,297.5,130.1,297.2,130.3L297.2,130.3z"/>
		<path class="st0" d="M294.8,133.6c-0.2,2.1,0.1,4.1,0.4,6.1c0.3,1.6,0.4,3.4,1.5,4.8c2.8,3.6,6.5,3.8,10.8,3.9
			c3.7,0,7.3-0.3,10.9-1.2c2.2-0.5,4.2-1.9,4.9-4.2c0.3-0.9-1.1-1.2-1.4-0.4c-0.7,2.4-2.8,3-4.9,3.5c-2.9,0.6-5.8,0.8-8.7,0.9
			c-3.9,0.1-7.4,0-10.2-3c-1.1-1.2-1.2-3-1.5-4.6c-0.3-1.9-0.6-3.8-0.4-5.8C296.3,132.7,294.9,132.7,294.8,133.6L294.8,133.6
			L294.8,133.6z"/>
	</g>
	<g>
		<path class="st0" d="M121.5,395.8c-4-0.5-8.6-0.7-12.6,0c-1.9,0.4-3.5,1.3-4.9,2.7c-1.5,1.6-1.8,3.5-2,5.6
			c-0.6,5.8-0.8,11.4-0.8,17.2c0,2.9,0,5.9,0,8.8c0.1,2.6-0.1,5.5,0.3,8c0.7,4.3,3.6,5.5,7.6,5.7c4.2,0.3,8.6,0.2,12.7-0.7
			c4.4-1,6.4-4.9,7-9c0.6-4.2,0.5-9.5-0.9-13.6c-0.3-0.9-1.6-0.5-1.3,0.4c1.2,3.5,1.2,7.8,1,11.5c-0.1,2.3-0.4,4.8-2,6.7
			c-1.5,1.8-3.6,2.8-5.9,2.9c-1.6,0.1-3.1,0.5-4.7,0.6c-1.8,0.1-3.6-0.1-5.3-0.1c-2.3-0.1-4.5-0.1-6-2.1c-1.2-1.7-0.9-4.2-1-6.2
			c-0.3-8.9-0.8-18.3,0.2-27.2c0.2-2.1,0.2-4.6,1.2-6.5c1.2-2.1,3.5-3.1,5.8-3.3c3.8-0.4,7.7-0.3,11.4,0.1
			C122.4,397.3,122.4,395.9,121.5,395.8L121.5,395.8L121.5,395.8z"/>
		<path class="st0" d="M128.1,420.6c-1.1-3.2-3.8-5.2-7-5.6c-3.4-0.4-7.1-0.4-10.5,0.1c-0.9,0.1-0.5,1.5,0.4,1.4
			c2.4-0.4,4.9-0.3,7.3-0.2c3.6,0.1,7.2,0.9,8.4,4.8C127,421.8,128.3,421.5,128.1,420.6L128.1,420.6L128.1,420.6z"/>
		<path class="st0" d="M121.1,410.4c0-2,0.3-4.1-1.2-5.6c-1.4-1.4-4.3-1-6-0.9c-1.8,0.1-2.7,1.1-3.2,2.8c-0.8,2.8-0.6,5.9-0.6,8.7
			c0,0.9,1.4,0.9,1.4,0c0-1.7,0-3.4,0.2-5.1c0.1-1.5-0.1-4.2,1.7-4.8c1.4-0.4,3.5-0.3,4.9,0.1c2,0.5,1.5,3.5,1.5,5
			C119.6,411.3,121.1,411.3,121.1,410.4L121.1,410.4L121.1,410.4z"/>
		<path class="st0" d="M121.5,397.2c5,0.4,5.4,5.3,5.7,9.2c0.1,0.9,0,1.7,0,2.6c0,1.4-0.5,1.2-1.7,1.1c-1.8-0.1-3.5-0.2-5.3,0
			c-0.9,0.1-0.9,1.5,0,1.4c2.4-0.3,4.8,0.1,7.1,0.1c0.2,0,0.5-0.1,0.6-0.4c0.8-1.5,0.7-3.2,0.7-4.9c-0.1-1.6-0.1-3.4-0.5-5
			c-0.8-3.1-3.5-5.3-6.6-5.6C120.6,395.8,120.6,397.2,121.5,397.2L121.5,397.2L121.5,397.2z"/>
		<path class="st0" d="M109.6,424.9c-0.2,2.2-0.1,4.5,0.1,6.8c0.1,1.6,0.3,3.5,2,4.1c2.2,0.8,4.5,0.8,6.6-0.2
			c1.4-0.7,1.6-2.3,1.8-3.6c0.4-2.4,1-7.8-1.9-9.1c-1.9-0.9-7.7-1.1-8.4,1.6c-0.2,0.9,1.1,1.2,1.3,0.4c0.4-1.6,6.2-1.4,7-0.2
			c1.3,1.8,0.8,5.3,0.5,7.4c-0.2,1.4-0.5,2.3-2.1,2.8c-1.7,0.5-4.7,0.5-5.2-1.6c-0.7-2.4-0.4-5.8-0.2-8.2
			C111,424,109.6,424,109.6,424.9L109.6,424.9L109.6,424.9z"/>
		<path class="st0" d="M126.8,410.5c-0.7,0.7-1.3,1.4-2.1,1.9c-0.8,0.5-0.1,1.7,0.7,1.2c0.9-0.6,1.7-1.3,2.4-2.1
			C128.4,410.9,127.4,409.9,126.8,410.5L126.8,410.5L126.8,410.5z"/>
		<path class="st0" d="M118.4,413.5c2.2,0.2,4.4,0.2,6.6,0.2c0.9,0,0.9-1.4,0-1.4c-2.2,0-4.4,0-6.6-0.2
			C117.5,412,117.5,413.4,118.4,413.5L118.4,413.5z"/>
		<path class="st0" d="M119.5,410c-0.6,0.7-0.9,1.6-1.6,2.2c-0.7,0.6,0.3,1.6,1,1c0.7-0.6,1-1.5,1.6-2.2
			C121.1,410.4,120.1,409.4,119.5,410L119.5,410z"/>
		<path class="st0" d="M118.8,412.4c-0.8-1.6,0.7-4.7-1.1-5.9c-0.8-0.5-2.1-0.5-2.9-0.5c-1.2,0-2.5,0.1-3.6,0.6
			c-0.8,0.3-0.5,1.7,0.4,1.4c1.5-0.5,4-0.9,5.5-0.2c0.4,0.2,0.2,2.6,0.2,3c0,0.8,0,1.6,0.3,2.4C117.9,413.9,119.2,413.2,118.8,412.4
			L118.8,412.4L118.8,412.4z"/>
		<path class="st0" d="M116.7,435.2c0.8-2.5,1.6-6.1,0.8-8.7c-0.8-2.6-5.6-1.7-7.4-0.9c-0.8,0.4-0.1,1.6,0.7,1.2
			c1-0.4,2.2-0.5,3.2-0.5c1.5,0,2.2,0.4,2.3,1.9c0.1,2.2-0.2,4.6-0.9,6.6C115.1,435.7,116.4,436.1,116.7,435.2L116.7,435.2z"/>
		<path class="st0" d="M107.7,396.1c-7.2,1.1-8.3,7.6-8.9,13.8c-0.4,4-0.1,8.1-0.1,12.1c-0.1,4.5-0.3,9,0,13.5
			c0.2,3.1,0.6,7.1,3.3,9.2c2.3,1.8,5.9,1.5,8.7,1.7c3.2,0.2,6.8,0,9.9-0.6c3-0.6,4.7-3.3,6.2-5.7c0.5-0.8-0.7-1.5-1.2-0.7
			c-1.8,2.8-3.4,5-7,5.3c-2.6,0.2-5.3,0.5-7.9,0.3c-2.6-0.1-6.3,0.1-8.3-1.8c-2.7-2.6-2.5-7.9-2.4-11.4c0.1-6.6-0.2-13.2,0.1-19.8
			c0.2-3,0.5-6.1,1.3-9c1-3.4,3.3-5,6.7-5.5C108.9,397.3,108.6,396,107.7,396.1L107.7,396.1L107.7,396.1z"/>
	</g>
	<g>
		<path class="st0" d="M224.1,395.8c-4-0.5-8.6-0.7-12.6,0c-1.9,0.4-3.5,1.3-4.9,2.7c-1.5,1.6-1.8,3.5-2,5.6
			c-0.6,5.8-0.8,11.4-0.8,17.2c0,2.9,0,5.9,0,8.8c0.1,2.6-0.1,5.5,0.3,8c0.7,4.3,3.6,5.5,7.6,5.7c4.2,0.3,8.6,0.2,12.7-0.7
			c4.4-1,6.4-4.9,7-9c0.6-4.2,0.5-9.5-0.9-13.6c-0.3-0.9-1.6-0.5-1.4,0.4c1.2,3.5,1.2,7.8,1,11.5c-0.1,2.3-0.4,4.8-2,6.7
			c-1.5,1.8-3.6,2.8-5.9,2.9c-1.6,0.1-3.1,0.5-4.7,0.6c-1.8,0.1-3.6-0.1-5.3-0.1c-2.3-0.1-4.5-0.1-6-2.1c-1.2-1.7-0.9-4.2-1-6.2
			c-0.3-8.9-0.8-18.3,0.2-27.2c0.2-2.1,0.2-4.6,1.2-6.5c1.1-2.1,3.5-3.1,5.8-3.3c3.8-0.4,7.6-0.3,11.4,0.1
			C225,397.3,225,395.9,224.1,395.8L224.1,395.8L224.1,395.8z"/>
		<path class="st0" d="M230.6,420.6c-1.1-3.2-3.8-5.2-7-5.6c-3.4-0.4-7.1-0.4-10.5,0.1c-0.9,0.1-0.5,1.5,0.4,1.4
			c2.4-0.4,4.9-0.3,7.3-0.2c3.6,0.1,7.2,0.9,8.4,4.8C229.5,421.8,230.9,421.5,230.6,420.6L230.6,420.6L230.6,420.6z"/>
		<path class="st0" d="M223.6,410.4c0-2,0.3-4.1-1.2-5.6c-1.4-1.4-4.3-1-6-0.9c-1.8,0.1-2.7,1.1-3.2,2.8c-0.8,2.8-0.6,5.9-0.6,8.7
			c0,0.9,1.4,0.9,1.4,0c0-1.7,0-3.4,0.1-5.1c0.1-1.5-0.1-4.2,1.7-4.8c1.4-0.4,3.5-0.3,4.9,0.1c2,0.5,1.5,3.5,1.5,5
			C222.2,411.3,223.6,411.3,223.6,410.4L223.6,410.4L223.6,410.4z"/>
		<path class="st0" d="M224.1,397.2c5,0.4,5.4,5.3,5.7,9.2c0.1,0.9,0,1.7,0,2.6c0,1.4-0.5,1.2-1.7,1.1c-1.8-0.1-3.5-0.2-5.3,0
			c-0.9,0.1-0.9,1.5,0,1.4c2.4-0.3,4.8,0.1,7.1,0.1c0.2,0,0.5-0.1,0.6-0.4c0.8-1.5,0.7-3.2,0.7-4.9c-0.1-1.6-0.1-3.4-0.5-5
			c-0.8-3.1-3.5-5.3-6.6-5.6C223.2,395.8,223.2,397.2,224.1,397.2L224.1,397.2L224.1,397.2z"/>
		<path class="st0" d="M212.1,424.9c-0.2,2.2-0.1,4.5,0.1,6.8c0.1,1.6,0.3,3.5,2,4.1c2.2,0.8,4.5,0.8,6.6-0.2
			c1.4-0.7,1.6-2.3,1.8-3.6c0.4-2.4,1-7.8-1.9-9.1c-1.9-0.9-7.7-1.1-8.4,1.6c-0.2,0.9,1.1,1.2,1.4,0.4c0.4-1.6,6.2-1.4,7-0.2
			c1.3,1.8,0.8,5.3,0.5,7.4c-0.2,1.4-0.5,2.3-2.1,2.8c-1.6,0.5-4.7,0.5-5.2-1.6c-0.7-2.4-0.4-5.8-0.2-8.2
			C213.6,424,212.2,424,212.1,424.9L212.1,424.9L212.1,424.9z"/>
		<path class="st0" d="M229.3,410.5c-0.7,0.7-1.3,1.4-2.1,1.9c-0.8,0.5-0.1,1.7,0.7,1.2c0.9-0.6,1.7-1.3,2.4-2.1
			C230.9,410.9,229.9,409.9,229.3,410.5L229.3,410.5L229.3,410.5z"/>
		<path class="st0" d="M221,413.5c2.2,0.2,4.4,0.2,6.6,0.2c0.9,0,0.9-1.4,0-1.4c-2.2,0-4.4,0-6.6-0.2
			C220.1,412,220.1,413.4,221,413.5L221,413.5z"/>
		<path class="st0" d="M222,410c-0.6,0.7-0.9,1.6-1.6,2.2c-0.7,0.6,0.3,1.6,1,1c0.7-0.6,1-1.5,1.6-2.2
			C223.6,410.4,222.6,409.4,222,410L222,410z"/>
		<path class="st0" d="M221.3,412.4c-0.8-1.6,0.7-4.7-1.1-5.9c-0.8-0.5-2.1-0.5-2.9-0.5c-1.2,0-2.5,0.1-3.6,0.6
			c-0.8,0.3-0.5,1.7,0.4,1.4c1.5-0.5,4-0.9,5.5-0.2c0.4,0.2,0.2,2.6,0.2,3c0,0.8,0,1.6,0.4,2.4C220.5,413.9,221.7,413.2,221.3,412.4
			L221.3,412.4L221.3,412.4z"/>
		<path class="st0" d="M219.3,435.2c0.9-2.5,1.6-6.1,0.8-8.7c-0.8-2.6-5.6-1.7-7.4-0.9c-0.8,0.4-0.1,1.6,0.7,1.2
			c1-0.4,2.2-0.5,3.2-0.5c1.5,0,2.2,0.4,2.3,1.9c0.1,2.2-0.2,4.6-0.9,6.6C217.6,435.7,219,436.1,219.3,435.2L219.3,435.2
			L219.3,435.2z"/>
		<path class="st0" d="M210.2,396.1c-7.2,1.1-8.3,7.6-8.9,13.8c-0.4,4-0.1,8.1-0.1,12.1c-0.1,4.5-0.3,9,0,13.5
			c0.2,3.1,0.6,7.1,3.3,9.2c2.3,1.8,5.9,1.5,8.7,1.7c3.2,0.2,6.8,0,9.9-0.6c3-0.6,4.7-3.3,6.2-5.7c0.5-0.8-0.7-1.5-1.2-0.7
			c-1.8,2.8-3.4,5-7,5.3c-2.6,0.2-5.3,0.5-7.9,0.3c-2.6-0.1-6.3,0.1-8.3-1.8c-2.7-2.6-2.5-7.9-2.4-11.4c0.1-6.6-0.2-13.2,0.1-19.8
			c0.2-3,0.5-6.1,1.3-9c1-3.4,3.3-5,6.7-5.5C211.5,397.3,211.1,396,210.2,396.1L210.2,396.1L210.2,396.1z"/>
	</g>
	<g>
		<path class="st0" d="M103.8,25.4c-3.3-0.5-2.2-9.9-2.2-12.4c0.1-2.8,0.2-6.9,2.9-8.5c2.6-1.6,7-1,9.9-1c0.9,0,0.9-1.4,0-1.4
			c-3.5,0.1-8-0.4-11.1,1.5c-2.8,1.7-3,5.9-3.1,8.8c-0.2,3.2-0.2,6.4,0.2,9.5c0.2,1.8,0.8,4.6,3,4.9
			C104.4,26.8,104.7,25.5,103.8,25.4C103.8,25.4,103.8,25.4,103.8,25.4z"/>
		<path class="st0" d="M124,26.4c2.2-0.6,2.4-2.7,2.5-4.7c0.3-4.2,0.3-8.4,0.1-12.6c-0.1-2-0.6-4.4-2.5-5.6
			c-2.8-1.7-6.4-1.5-9.5-1.5c-0.9,0-0.9,1.4,0,1.4c2.5,0,4.9,0,7.3,0.6c2.5,0.6,3.1,2.9,3.3,5.1c0.2,2.5,0.2,5,0.2,7.5
			c0,1.8,0.6,7.8-1.7,8.4C122.7,25.3,123.1,26.6,124,26.4L124,26.4L124,26.4z"/>
		<path class="st0" d="M123.4,26.7c2.3,0.6,2.3,4.8,2.4,6.7c0.2,2.8,0,5.6-0.1,8.5c-0.1,3.6-1,6.5-5,6.8c-2.9,0.2-5.7,0-8.6,0.1
			c-0.9,0-0.9,1.4,0,1.4c3.5-0.1,7.1,0.3,10.6-0.3c3.4-0.6,4.4-4.7,4.4-7.6c0-3.7,0.3-7.3-0.1-11c-0.2-2.2-0.8-5.2-3.3-5.9
			C122.9,25.2,122.5,26.5,123.4,26.7L123.4,26.7L123.4,26.7z"/>
		<path class="st0" d="M103.2,25.7c-2.4,1.3-2.6,4.1-2.7,6.6c-0.1,3.9-0.3,7.7,0.1,11.6c0.2,2.2,0.6,4.6,2.7,5.8
			c1.1,0.6,2.6,0.6,3.9,0.6c1.8,0,3.6,0,5.4,0c0.9,0,0.9-1.5,0-1.4c-2.2,0.1-4.5,0.1-6.8,0c-3.3-0.1-3.7-2.9-3.9-5.6
			c-0.3-2.8-0.2-5.6-0.1-8.3c0.1-2.5-0.5-6.6,2-7.9C104.7,26.5,104,25.3,103.2,25.7L103.2,25.7L103.2,25.7z"/>
		<path class="st0" d="M108.6,30.9c-1,0.7-1,2.2-1,3.3c0,1.1,0.1,2.2,0.1,3.3c0,1-0.2,2.2,0,3.2c0.5,1.9,2,2,3.8,2.2s5,0.5,6.6-0.5
			c1.5-0.9,1.5-2.6,1.5-4.2c0-1.9,0.4-4.6-0.4-6.3c-0.9-1.8-2.8-1.5-4.6-1.4c-1.8,0-3.7-0.2-5.5,0.2c-0.9,0.2-0.5,1.5,0.4,1.3
			c2.1-0.5,4.5-0.2,6.7-0.2c2.5,0,1.9,2.6,1.9,4.2c0,1.4,0.2,2.8,0,4.2c-0.2,1.6-3.3,1.2-4.5,1.2c-1.9,0.1-4.7,0.2-4.5-2.5
			c0.1-1.3-0.1-2.5-0.1-3.8c0-0.6-0.3-2.8,0.2-3.2C110,31.6,109.3,30.4,108.6,30.9L108.6,30.9L108.6,30.9z"/>
		<path class="st0" d="M118.7,21c1-0.7,1-2.2,1-3.3c0-1.1-0.1-2.2-0.1-3.3c0-1,0.2-2.2,0-3.2c-0.5-1.9-2-2.1-3.8-2.2s-5-0.5-6.6,0.5
			c-1.5,0.9-1.5,2.6-1.5,4.2c0,1.9-0.4,4.6,0.4,6.3c0.9,1.8,2.8,1.5,4.6,1.4c1.8,0,3.7,0.2,5.5-0.2c0.9-0.2,0.5-1.5-0.4-1.4
			c-2.1,0.5-4.5,0.2-6.7,0.2c-2.5,0-1.9-2.6-1.9-4.2c0-1.4-0.2-2.8,0-4.2c0.2-1.6,3.3-1.2,4.5-1.2c1.9-0.1,4.7-0.2,4.5,2.4
			c-0.1,1.3,0.1,2.6,0.1,3.8c0,0.6,0.3,2.8-0.2,3.2C117.2,20.3,117.9,21.6,118.7,21L118.7,21L118.7,21z"/>
		<path class="st0" d="M108.9,13.1c1.5,0,2.9-0.1,4.4-0.2c0.6,0,1.9-0.1,2.2,0.6c0.4,1,0.2,2.3,0.2,3.4c0,1.2-0.1,2.4-0.1,3.6
			c0,0.9,1.4,0.9,1.4,0c0-1.5,0.1-2.9,0.1-4.4c0-1,0.1-2.8-0.6-3.6c-0.6-0.6-1.4-0.9-2.2-0.9c-1.8-0.2-3.6,0.1-5.4,0.2
			C108,11.7,108,13.1,108.9,13.1C108.9,13.1,108.9,13.1,108.9,13.1z"/>
		<path class="st0" d="M108.7,34.6c2.1-0.1,4.5-0.4,6.5,0.1c0.8,0.2,0.2,6,0.3,6.9c0.1,0.9,1.5,0.9,1.4,0c-0.1-1.4,0.1-2.9,0.1-4.3
			c0-1.1,0.1-2.6-0.7-3.5c-0.6-0.7-2.5-0.6-3.3-0.6c-1.4,0-2.9,0-4.3,0.1C107.8,33.3,107.8,34.7,108.7,34.6L108.7,34.6L108.7,34.6z"
			/>
		<path class="st0" d="M107,2.3c-5.5,0.1-8.2,3.2-9,8.4c-0.5,3-0.3,6.1-0.2,9.1c0.1,2.7,0.6,5.3,2.5,7.4v-1
			c-2.3,2.6-2.8,6.8-2.7,10.2c0,2.4,0.2,4.8,0.4,7.2c0.2,2.1,0.3,4.8,1.7,6.6c1.4,1.8,3.2,2.2,5.4,2.3c3.3,0.2,6.6-0.1,9.9,0.1
			c2.3,0.1,4.8,0.2,7-0.5c2.1-0.7,3.1-2.8,3.9-4.7c0.4-0.8-0.8-1.5-1.2-0.7c-0.9,2.1-1.9,3.8-4.3,4.4c-1.9,0.4-4.1,0.2-6.1,0.1
			c-2.2-0.1-4.4,0-6.6,0c-2.8,0-6.2,0.3-7.4-2.8c-1.3-3.3-1.1-7.7-1.2-11.2c-0.1-3.2,0-7.4,2.4-9.9c0.3-0.3,0.3-0.7,0-1
			c-3.1-3.5-2.4-9.7-2.2-14.1c0.1-1.8,0.6-3.7,1.4-5.3c1.3-2.4,3.9-3,6.4-3.1C107.9,3.7,108,2.3,107,2.3L107,2.3L107,2.3z"/>
		<path class="st0" d="M100.9,27.3c0.7,0,1.3-0.1,2-0.1c0.9,0,0.9-1.4,0-1.4c-0.7,0-1.3,0.1-2,0.1C100,25.9,100,27.4,100.9,27.3
			L100.9,27.3z"/>
	</g>
	<g>
		<path class="st1" d="M183.7,83.3c0,1.2,0,2.4,0.1,3.6c0,0.7,0,1.7,0.4,2.2c0.4,0.4,1-0.2,0.6-0.6c-0.3-0.4-0.2-1.7-0.2-2.1
			c0-1-0.1-2-0.1-3.1C184.5,82.7,183.7,82.7,183.7,83.3L183.7,83.3L183.7,83.3z"/>
		<path class="st1" d="M184.6,89.3c1.7,0,3.4,0.1,5.1,0.1c0.6,0,0.6-0.9,0-0.9c-1.7,0-3.4-0.1-5.1-0.1C184,88.4,184,89.3,184.6,89.3
			L184.6,89.3z"/>
		<path class="st1" d="M189.2,89.2c0,7.6-0.1,15.2-0.1,22.8c0,0.6,0.9,0.6,0.9,0c0-7.6,0.2-15.2,0.1-22.8
			C190.1,88.6,189.2,88.6,189.2,89.2L189.2,89.2z"/>
		<path class="st1" d="M189.5,112.5c2.1,0,4.1-0.1,6.1-0.1c0.6,0,0.6-0.9,0-0.9c-2.1,0-4.1,0.1-6.1,0.1
			C188.9,111.6,188.9,112.5,189.5,112.5L189.5,112.5z"/>
		<path class="st1" d="M195.2,83.5c0,9.4,0.2,18.9-0.1,28.3c0,0.6,0.9,0.6,0.9,0c0.3-9.4,0.1-18.9,0.1-28.3
			C196.1,83,195.2,83,195.2,83.5L195.2,83.5z"/>
		<path class="st1" d="M184.3,83.7c0.4-0.3,1.4-0.1,1.9-0.2c0.8,0,1.6,0,2.5,0c2.3,0,4.6,0.1,6.9,0.1c0.6,0,0.6-0.9,0-0.9
			c-2.4,0-4.8-0.1-7.2-0.2c-1,0-1.9,0-2.9,0c-0.5,0-1.2,0-1.6,0.2C183.4,83.2,183.8,84,184.3,83.7L184.3,83.7L184.3,83.7z"/>
		<path class="st1" d="M184.3,82.8c-0.9,0.1-1.6,1.1-1.9,1.9c-0.2,0.5,0.5,0.9,0.8,0.4c0.2-0.3,0.4-0.7,0.6-1
			c0.1-0.1,0.4-0.4,0.5-0.4C184.8,83.6,184.8,82.8,184.3,82.8L184.3,82.8z"/>
		<path class="st1" d="M182.3,85c0,1.6-0.5,3.7,0.4,5.1c0.4,0.6,1.1,0.7,1.7,0.8c1.3,0,2.6,0.1,3.8,0c0.6,0,0.6-0.9,0-0.9
			c-0.8,0.1-1.7,0.1-2.5,0c-0.8,0-2.1,0.3-2.5-0.7c-0.5-1.3-0.1-2.9-0.1-4.3C183.2,84.5,182.3,84.5,182.3,85L182.3,85z"/>
		<path class="st1" d="M187.8,90.4c-0.1,0.8,0,1.6,0,2.4c0,1.2-0.1,2.4-0.1,3.6c-0.1,2.5-0.1,5-0.1,7.5c-0.1,2-0.1,3.9-0.1,5.9
			c0,1.2-0.2,3.1,0.5,4.1c0.3,0.5,1.1,0,0.8-0.4c-0.7-1-0.4-3.2-0.4-4.3c0-1.7,0.1-3.5,0.1-5.2c0-2.2,0.1-4.4,0.1-6.5
			c0-1.1,0-2.1,0.1-3.2c0-1.2-0.2-2.5,0-3.6C188.7,90.1,187.9,89.9,187.8,90.4L187.8,90.4L187.8,90.4z"/>
		<path class="st1" d="M189.1,88.9c-0.4,0.4-0.7,0.9-1.2,1.3c-0.2,0.2-0.1,0.5,0,0.6c0.2,0.2,0.4,0.2,0.6,0c0.4-0.4,0.8-0.8,1.2-1.3
			C190.1,89.1,189.5,88.5,189.1,88.9L189.1,88.9z"/>
		<path class="st1" d="M195.1,112c-0.1,0.5-0.5,0.8-0.7,1.2c-0.3,0.5,0.4,0.9,0.8,0.4s0.7-0.9,0.8-1.4S195.3,111.5,195.1,112
			L195.1,112L195.1,112z"/>
		<path class="st1" d="M188.6,114.2c2,0,4.1,0,6.1-0.2c0.6-0.1,0.6-0.9,0-0.9c-2,0.2-4.1,0.2-6.1,0.2
			C188.1,113.3,188.1,114.2,188.6,114.2L188.6,114.2z"/>
		<path class="st1" d="M189.2,111.7c-0.4,0.4-0.7,0.9-1.1,1.3c-0.4,0.4,0.2,1,0.6,0.6c0.4-0.4,0.7-0.9,1.1-1.3
			C190.2,111.9,189.5,111.3,189.2,111.7L189.2,111.7z"/>
	</g>
	<g>
		<path class="st1" d="M235,241.6c0-1.9-0.1-4,0.9-5.7c1-1.6,3.6-1.4,5.2-1.6c1.5-0.2,3.2-0.2,4.7,0c1.6,0.1,3.6,0.2,4,2.1
			c0.1,0.6,1,0.3,0.8-0.2c-0.4-1.7-1.6-2.3-3.2-2.6c-2.1-0.3-4.2-0.4-6.3-0.2c-1.9,0.2-4.2,0.1-5.6,1.6c-1.6,1.6-1.4,4.5-1.4,6.6
			C234.1,242.2,235,242.2,235,241.6L235,241.6L235,241.6z"/>
		<path class="st1" d="M249.8,236.4c0.8,3.8,1.2,8.2,0.2,12c-0.1,0.5,0.7,0.8,0.8,0.2c1.1-4,0.6-8.5-0.2-12.5
			C250.5,235.6,249.7,235.8,249.8,236.4L249.8,236.4L249.8,236.4z"/>
		<path class="st1" d="M240.4,242.5c0-0.6,0.1-1.1,0.1-1.6c-0.1-0.7-0.2-1.1,0.6-1.1c0.9-0.1,2.1-0.1,3,0c0.9,0.1,0.4,4.4,0.2,5.1
			c-0.1,0.5,0.7,0.8,0.8,0.2c0.3-1.2,0.3-2.4,0.2-3.6c0-0.9-0.1-2.2-1.1-2.5c-0.6-0.2-1.3-0.1-2-0.1c-0.7,0-1.4,0-2,0.2
			c-0.4,0.1-0.7,0.4-0.8,0.8c-0.1,0.9,0,1.8,0,2.7C239.5,243.1,240.3,243.1,240.4,242.5L240.4,242.5L240.4,242.5z"/>
		<path class="st1" d="M244.3,244.8c-0.5,2.2-3.8,3.3-5.6,4.2c-1.7,0.8-3.3,2.1-4,3.9c-0.6,1.6-0.5,3.4-0.5,5.1c0,1.7,0,3.4,0,5.1
			c0,0.6,0.9,0.6,0.9,0c0-1.6,0-3.3,0-4.9c0-1.8-0.2-3.9,0.7-5.5c1.2-2.2,3.6-3.1,5.7-4.1c1.5-0.8,3.4-1.8,3.8-3.6
			C245.3,244.5,244.4,244.2,244.3,244.8L244.3,244.8L244.3,244.8z"/>
		<path class="st1" d="M234.7,263.7c5.3,0,10.6,0.2,15.9,0c0.6,0,0.6-0.9,0-0.9c-5.3,0.3-10.6,0-15.9,0
			C234.2,262.8,234.2,263.7,234.7,263.7L234.7,263.7z"/>
		<path class="st1" d="M250.2,258c0.2,1.6,0,3.3-0.1,5c0,0.6,0.9,0.6,0.9,0c0-1.7,0.3-3.3,0.1-5C251,257.4,250.1,257.4,250.2,258
			L250.2,258z"/>
		<path class="st1" d="M241,258.2c3.2,0,6.3,0,9.5,0c0.6,0,0.6-0.9,0-0.9c-3.2,0.1-6.3,0.1-9.5,0C240.4,257.3,240.4,258.2,241,258.2
			L241,258.2z"/>
		<path class="st1" d="M250,248.4c-0.4,1.4-1.6,2-2.8,2.7c-1.2,0.7-2.4,1.4-3.6,2.1c-1.7,0.9-3,2.4-3.1,4.4c0,0.6,0.9,0.6,0.9,0
			c0.1-2.8,3.3-4.1,5.4-5.3c1.6-0.9,3.5-1.7,4-3.6C251,248.1,250.1,247.8,250,248.4L250,248.4L250,248.4z"/>
		<path class="st1" d="M234.1,241.3c0,0.8,0.1,1.7,1.1,1.8c1.5,0.1,3,0,4.5-0.1c0.6,0,0.6-0.9,0-0.9c-1,0.1-1.9,0.1-2.9,0.1
			c-0.4,0-0.7,0-1.1,0c-0.7,0-0.8-0.4-0.8-0.9C235,240.8,234.1,240.8,234.1,241.3L234.1,241.3L234.1,241.3z"/>
		<path class="st1" d="M239.4,242.6c-0.2,0.4-0.6,0.7-0.9,1.1c-0.3,0.5,0.4,0.9,0.8,0.4c0.2-0.4,0.6-0.7,0.9-1.1
			C240.5,242.6,239.7,242.1,239.4,242.6L239.4,242.6z"/>
		<path class="st1" d="M238.8,243.5c-1.3,0.4-2.9,0.6-4.3,0.3c-1.8-0.3-1-4.1-0.8-5.2c0.4-2,1.3-3.1,3.2-3.6c0.5-0.1,0.3-1-0.2-0.8
			c-2.9,0.8-3.7,2.8-4.1,5.6c-0.2,1.2-0.4,3.8,1,4.5c1.5,0.8,3.9,0.4,5.4,0C239.6,244.1,239.4,243.3,238.8,243.5L238.8,243.5
			L238.8,243.5z"/>
		<path class="st1" d="M237.7,249.7c-2.7,1.8-5.1,3.4-5.2,6.9c0,1.7,0,3.4,0.1,5.2c0.1,0.9,0,2.5,0.7,3.1c0.4,0.4,1-0.2,0.6-0.6
			c-0.6-0.6-0.5-2.4-0.5-3.1c-0.1-1.3-0.1-2.7,0-4c0-1.5,0.2-2.7,1.2-3.9c1-1.2,2.3-1.9,3.6-2.8
			C238.6,250.1,238.1,249.3,237.7,249.7L237.7,249.7L237.7,249.7z"/>
		<path class="st1" d="M240.4,241.2c0.3,0,2.7-0.2,2.7,0.1c0,0.9,0,1.8-0.2,2.6c-0.3,2.2-1.3,3.6-3.3,4.7c-0.5,0.3-0.1,1,0.4,0.8
			c2.3-1.3,3.4-3,3.7-5.6c0.1-0.8,0.5-2.4,0.1-3.1c-0.5-0.8-2.7-0.3-3.4-0.3C239.9,240.3,239.9,241.2,240.4,241.2L240.4,241.2
			L240.4,241.2z"/>
		<path class="st1" d="M250.1,263.2c-0.3,0.4-0.5,0.8-0.8,1.1c-0.4,0.4,0.2,1,0.6,0.6c0.3-0.4,0.5-0.8,0.8-1.1
			C251.1,263.4,250.5,262.7,250.1,263.2L250.1,263.2z"/>
		<path class="st1" d="M233.5,265c2.5,0.4,4.9,0.2,7.5,0.2c2.8,0,5.6,0,8.4-0.1c0.6,0,0.6-0.9,0-0.9c-2.6,0-5.3,0.1-7.9,0.1
			c-2.6,0-5.2,0.2-7.8-0.2C233.2,264,232.9,264.9,233.5,265L233.5,265z"/>
		<path class="st1" d="M234.5,262.9c-0.5,0.3-0.9,0.7-1.3,1c-0.2,0.1-0.1,0.5,0,0.6c0.2,0.2,0.4,0.1,0.6,0c0.4-0.3,0.7-0.6,1.2-0.9
			C235.5,263.4,235,262.6,234.5,262.9L234.5,262.9L234.5,262.9z"/>
	</g>
	<g>
		<path class="st1" d="M79.5,304.1c0-2-0.1-4,0.9-5.7c1-1.6,3.6-1.4,5.2-1.6c1.5-0.2,3.2-0.2,4.7,0c1.6,0.1,3.6,0.2,4,2.1
			c0.1,0.5,1,0.3,0.8-0.2c-0.4-1.7-1.6-2.3-3.2-2.5c-2.1-0.3-4.2-0.4-6.3-0.2c-1.9,0.2-4.2,0.1-5.6,1.6c-1.6,1.6-1.4,4.5-1.4,6.6
			C78.6,304.6,79.5,304.6,79.5,304.1C79.5,304.1,79.5,304.1,79.5,304.1z"/>
		<path class="st1" d="M94.3,298.8c0.8,3.8,1.2,8.2,0.2,12c-0.2,0.5,0.7,0.8,0.8,0.2c1.1-4,0.6-8.5-0.2-12.5
			C95,298,94.2,298.2,94.3,298.8L94.3,298.8L94.3,298.8z"/>
		<path class="st1" d="M84.9,305c0-0.6,0.1-1.1,0.1-1.6c-0.1-0.7-0.2-1.1,0.6-1.1c0.9-0.1,2.1-0.1,3,0c0.9,0.1,0.4,4.4,0.2,5.1
			c-0.1,0.5,0.7,0.8,0.8,0.2c0.3-1.2,0.3-2.5,0.2-3.6c0-0.9-0.1-2.2-1.1-2.5c-0.6-0.2-1.3-0.1-2-0.1c-0.7,0-1.4,0-2,0.2
			c-0.4,0.1-0.7,0.4-0.8,0.8c-0.1,0.9,0,1.8,0,2.7C84,305.5,84.8,305.5,84.9,305L84.9,305L84.9,305z"/>
		<path class="st1" d="M88.8,307.3c-0.5,2.2-3.8,3.3-5.6,4.2c-1.7,0.8-3.3,2.1-4,3.9c-0.7,1.6-0.5,3.4-0.5,5.1c0,1.7,0,3.4,0,5.1
			c0,0.6,0.9,0.6,0.9,0c0-1.6,0-3.3,0-4.9c0-1.8-0.2-3.9,0.7-5.5c1.2-2.2,3.6-3.1,5.7-4.1c1.5-0.8,3.4-1.8,3.8-3.6
			C89.8,306.9,88.9,306.7,88.8,307.3L88.8,307.3L88.8,307.3z"/>
		<path class="st1" d="M79.2,326.1c5.3,0,10.6,0.2,15.9,0c0.6,0,0.6-0.9,0-0.9c-5.3,0.3-10.6,0-15.9,0
			C78.6,325.3,78.6,326.1,79.2,326.1L79.2,326.1z"/>
		<path class="st1" d="M94.7,320.4c0.2,1.6,0,3.3-0.1,5c0,0.6,0.9,0.6,0.9,0c0-1.7,0.3-3.3,0.1-5C95.5,319.9,94.6,319.9,94.7,320.4
			L94.7,320.4z"/>
		<path class="st1" d="M85.4,320.6c3.2,0,6.3,0,9.5,0c0.6,0,0.6-0.9,0-0.9c-3.2,0.1-6.3,0.1-9.5,0C84.9,319.8,84.9,320.6,85.4,320.6
			L85.4,320.6z"/>
		<path class="st1" d="M94.5,310.8c-0.4,1.4-1.6,2-2.8,2.7c-1.2,0.7-2.4,1.4-3.6,2.1c-1.7,0.9-3,2.4-3.1,4.4c0,0.6,0.8,0.6,0.9,0
			c0.1-2.8,3.3-4.1,5.4-5.3c1.6-0.9,3.5-1.7,4-3.6C95.5,310.5,94.6,310.3,94.5,310.8C94.5,310.8,94.5,310.8,94.5,310.8z"/>
		<path class="st1" d="M78.6,303.8c0,0.8,0.1,1.7,1.1,1.8c1.5,0.1,3,0,4.5-0.1c0.6,0,0.6-0.9,0-0.9c-1,0.1-1.9,0.1-2.9,0.1
			c-0.4,0-0.7,0-1.1,0c-0.7,0-0.8-0.4-0.8-0.9C79.5,303.2,78.6,303.2,78.6,303.8L78.6,303.8L78.6,303.8z"/>
		<path class="st1" d="M83.9,305c-0.2,0.4-0.6,0.7-0.9,1.1c-0.3,0.5,0.4,0.9,0.8,0.4c0.2-0.4,0.6-0.7,0.9-1.1
			C85,305,84.2,304.6,83.9,305L83.9,305z"/>
		<path class="st1" d="M83.3,305.9c-1.3,0.4-2.9,0.5-4.3,0.3c-1.8-0.3-1-4.1-0.8-5.2c0.4-2,1.3-3.1,3.2-3.6c0.5-0.1,0.3-1-0.2-0.8
			c-2.9,0.8-3.7,2.8-4.1,5.6c-0.2,1.2-0.4,3.8,1,4.5c1.5,0.8,3.8,0.4,5.4,0C84.1,306.6,83.8,305.8,83.3,305.9L83.3,305.9L83.3,305.9
			z"/>
		<path class="st1" d="M82.1,312.1c-2.7,1.8-5.1,3.4-5.2,6.9c0,1.7,0,3.4,0.1,5.2c0.1,0.9,0,2.5,0.7,3.1c0.4,0.4,1-0.2,0.6-0.6
			c-0.6-0.6-0.5-2.4-0.5-3.1c-0.1-1.3-0.1-2.7,0-4c0-1.5,0.2-2.7,1.2-3.9c1-1.2,2.3-1.9,3.6-2.8C83,312.6,82.6,311.8,82.1,312.1
			L82.1,312.1L82.1,312.1z"/>
		<path class="st1" d="M84.9,303.6c0.3,0,2.7-0.2,2.7,0.1c0,0.9,0,1.8-0.2,2.6c-0.3,2.2-1.3,3.6-3.3,4.7c-0.5,0.3-0.1,1,0.4,0.8
			c2.3-1.3,3.4-3,3.7-5.6c0.1-0.8,0.5-2.4,0.1-3.1c-0.5-0.8-2.7-0.3-3.4-0.3C84.3,302.8,84.3,303.6,84.9,303.6L84.9,303.6
			L84.9,303.6z"/>
		<path class="st1" d="M94.6,325.6c-0.3,0.4-0.5,0.8-0.8,1.1c-0.4,0.4,0.2,1,0.6,0.6c0.3-0.4,0.5-0.8,0.8-1.1
			C95.6,325.8,94.9,325.2,94.6,325.6L94.6,325.6z"/>
		<path class="st1" d="M78,327.4c2.5,0.4,4.9,0.2,7.5,0.2c2.8,0,5.6,0,8.4-0.1c0.6,0,0.6-0.9,0-0.9c-2.6,0-5.3,0.1-7.9,0.1
			c-2.6,0-5.2,0.2-7.8-0.2C77.6,326.5,77.4,327.3,78,327.4L78,327.4z"/>
		<path class="st1" d="M79,325.4c-0.5,0.3-0.9,0.7-1.3,1c-0.2,0.1-0.2,0.5,0,0.6c0.2,0.2,0.4,0.1,0.6,0c0.4-0.3,0.7-0.6,1.2-0.9
			C79.9,325.8,79.5,325.1,79,325.4L79,325.4L79,325.4z"/>
	</g>
	<g>
		<path class="st1" d="M130,338c0,2.9-0.1,5.9-0.1,8.8c0,2.9,0.2,5.7,0,8.6c-0.1,0.6,0.8,0.5,0.9,0c0.2-2.7,0.1-5.5,0-8.2
			c0-3.1,0.1-6.1,0.1-9.2C130.9,337.4,130,337.4,130,338L130,338L130,338z"/>
		<path class="st1" d="M130.5,355.7c3.2,0.1,6.5,0.1,9.7,0.1c0.6,0,0.6-0.9,0-0.9c-3.2,0-6.5,0-9.7-0.1
			C130,354.8,130,355.7,130.5,355.7L130.5,355.7z"/>
		<path class="st1" d="M139.8,355.4c0,3.6,0.2,7.2,0.2,10.8c0,0.6,0.9,0.6,0.9,0c0-3.6-0.2-7.2-0.2-10.8
			C140.7,354.8,139.8,354.8,139.8,355.4L139.8,355.4z"/>
		<path class="st1" d="M140.5,366.7c2-0.1,4,0.2,6-0.1c0.6-0.1,0.6-0.9,0-0.9c-2,0.3-4,0-6,0.1C139.9,365.9,139.9,366.7,140.5,366.7
			L140.5,366.7z"/>
		<path class="st1" d="M146,337.7c0,9.5,0.2,19,0.1,28.5c0,0.6,0.9,0.6,0.9,0c0.1-9.5-0.1-19-0.1-28.5
			C146.9,337.1,146,337.1,146,337.7L146,337.7z"/>
		<path class="st1" d="M135.5,337.9c0.1,2.2-0.2,4.5-0.2,6.7c0,1.7,0.1,3.4,0.1,5c0,0.6,0.9,0.6,0.9,0c0-1.6-0.1-3.2-0.1-4.8
			c0-2.3,0.2-4.7,0.2-7C136.3,337.3,135.5,337.3,135.5,337.9L135.5,337.9L135.5,337.9z"/>
		<path class="st1" d="M135.8,350c1.5,0.1,3,0,4.4,0.1c0.6,0,0.6-0.8,0-0.9c-1.5-0.1-3,0-4.4-0.1C135.3,349.1,135.3,350,135.8,350
			L135.8,350z"/>
		<path class="st1" d="M139.9,337.7c-0.1,4,0.2,8-0.1,12c0,0.6,0.8,0.5,0.9,0c0.3-4-0.1-8,0.1-12
			C140.8,337.1,139.9,337.1,139.9,337.7L139.9,337.7z"/>
		<path class="st1" d="M140.4,338.1c2,0,4-0.1,6,0c0.6,0,0.6-0.9,0-0.9c-2-0.1-4,0-6,0C139.8,337.2,139.8,338.1,140.4,338.1
			L140.4,338.1z"/>
		<path class="st1" d="M130.3,338.1c1.9,0,3.7,0.1,5.6,0.1c0.6,0,0.6-0.9,0-0.9c-1.9,0-3.7-0.1-5.6-0.1
			C129.8,337.2,129.8,338.1,130.3,338.1L130.3,338.1z"/>
		<path class="st1" d="M140.1,337.3c-0.7,0.4-1.4,1-1.8,1.6c-0.3,0.5,0.5,0.9,0.8,0.4c0.3-0.6,0.9-1,1.4-1.3
			C141.1,337.8,140.6,337.1,140.1,337.3L140.1,337.3L140.1,337.3z"/>
		<path class="st1" d="M138.3,339c-0.1,1.8,0,3.6-0.1,5.4c0,1.7-0.1,3.4-0.1,5.1c0,0.6,0.9,0.6,0.9,0c0-1.5,0.1-3,0.1-4.5
			c-0.1-2,0-3.9,0.1-5.9C139.2,338.5,138.4,338.5,138.3,339L138.3,339L138.3,339z"/>
		<path class="st1" d="M130.1,337.4c-0.5,0.5-0.8,1.1-1.2,1.6c-0.4,0.4,0.3,1,0.6,0.6c0.4-0.5,0.8-1.1,1.2-1.6
			C131.1,337.6,130.5,336.9,130.1,337.4L130.1,337.4z"/>
		<path class="st1" d="M128.5,339.7c0,0-0.1,11.5,0,17.2c0,0.6,0.9,0.6,0.9,0c-0.1-5.8,0-11.4,0-17.2
			C129.3,339.1,128.5,339.1,128.5,339.7C128.5,339.7,128.5,339.1,128.5,339.7L128.5,339.7z"/>
		<path class="st1" d="M128.9,357.4c3.2,0,6.4,0,9.5,0c0.6,0,0.6-0.9,0-0.9c-3.2,0-6.4,0-9.5,0C128.3,356.5,128.3,357.4,128.9,357.4
			L128.9,357.4z"/>
		<path class="st1" d="M138.2,356.9c0.1,3.6,0,7.3,0.4,10.9c0.1,0.5,0.9,0.5,0.9,0c-0.4-3.6-0.4-7.3-0.4-10.9
			C139.1,356.4,138.2,356.4,138.2,356.9L138.2,356.9z"/>
		<path class="st1" d="M139.7,355.5c-0.5,0.4-0.9,0.8-1.3,1.3c-0.4,0.4,0.2,1,0.6,0.6c0.4-0.4,0.7-0.8,1.2-1.1
			c0.2-0.1,0.3-0.4,0.2-0.6C140.1,355.4,139.9,355.3,139.7,355.5L139.7,355.5L139.7,355.5z"/>
		<path class="st1" d="M146.1,366.1c-0.3,0.5-0.6,0.9-0.8,1.5c-0.1,0.2,0.1,0.5,0.3,0.5c0.2,0.1,0.4-0.1,0.5-0.3
			c0.2-0.4,0.4-0.8,0.7-1.2C147.1,366.1,146.4,365.6,146.1,366.1L146.1,366.1L146.1,366.1z"/>
		<path class="st1" d="M139.9,366.3c-0.3,0.4-0.6,0.8-0.9,1.2c-0.1,0.2-0.2,0.4,0,0.6c0.1,0.1,0.5,0.2,0.6,0c0.3-0.4,0.7-0.9,1-1.3
			C141,366.2,140.2,365.8,139.9,366.3L139.9,366.3L139.9,366.3z"/>
		<path class="st1" d="M139.3,368.3c2.1,0.1,4.2,0.1,6.3-0.1c0.6-0.1,0.6-0.9,0-0.9c-2.1,0.2-4.2,0.2-6.3,0.1
			C138.7,367.4,138.7,368.2,139.3,368.3L139.3,368.3z"/>
		<path class="st1" d="M130.2,354.7c-0.6,0.5-0.9,1.1-1.3,1.7c-0.3,0.4,0.3,1,0.6,0.6c0.4-0.5,0.7-1.2,1.2-1.6
			c0.2-0.1,0.3-0.4,0.2-0.6C130.7,354.7,130.4,354.6,130.2,354.7L130.2,354.7L130.2,354.7z"/>
	</g>
	<g>
		<path class="st1" d="M79.5,84.2c0,2.9-0.1,5.8-0.1,8.8c0,2.8,0.2,5.7,0,8.6c-0.1,0.6,0.8,0.6,0.9,0c0.2-2.7,0.1-5.4,0-8.2
			c0-3.1,0.1-6.1,0.1-9.2C80.4,83.6,79.5,83.6,79.5,84.2L79.5,84.2L79.5,84.2z"/>
		<path class="st1" d="M80,101.9c3.2,0.1,6.5,0.1,9.7,0.1c0.6,0,0.6-0.9,0-0.9c-3.2,0-6.5,0-9.7-0.1C79.5,101.1,79.5,101.9,80,101.9
			C80,101.9,80,101.9,80,101.9z"/>
		<path class="st1" d="M89.3,101.6c0,3.6,0.2,7.2,0.2,10.8c0,0.6,0.9,0.6,0.9,0c0-3.6-0.2-7.2-0.2-10.8
			C90.2,101.1,89.3,101.1,89.3,101.6L89.3,101.6z"/>
		<path class="st1" d="M89.9,112.9c2-0.1,4,0.2,6-0.1c0.6-0.1,0.6-0.9,0-0.9c-2,0.3-4,0-6,0.1C89.4,112.1,89.4,112.9,89.9,112.9
			L89.9,112.9z"/>
		<path class="st1" d="M95.5,83.9c0,9.5,0.2,19,0.1,28.5c0,0.6,0.9,0.6,0.9,0c0.1-9.5-0.1-19-0.1-28.5
			C96.4,83.3,95.5,83.3,95.5,83.9C95.5,83.9,95.5,83.9,95.5,83.9z"/>
		<path class="st1" d="M85,84.1c0.1,2.2-0.2,4.5-0.2,6.7c0,1.7,0.1,3.4,0.1,5c0,0.6,0.9,0.6,0.9,0c0-1.6-0.1-3.2-0.1-4.8
			c0-2.3,0.2-4.7,0.2-7C85.8,83.5,85,83.5,85,84.1L85,84.1L85,84.1z"/>
		<path class="st1" d="M85.3,96.3c1.5,0.1,3,0,4.4,0.1c0.6,0.1,0.6-0.8,0-0.9c-1.5-0.1-3,0-4.4-0.1C84.8,95.4,84.8,96.2,85.3,96.3
			L85.3,96.3z"/>
		<path class="st1" d="M89.4,83.9c-0.2,4,0.2,8.1-0.1,12.1c0,0.6,0.8,0.6,0.9,0c0.3-4-0.1-8,0.1-12.1C90.3,83.3,89.4,83.3,89.4,83.9
			L89.4,83.9z"/>
		<path class="st1" d="M89.8,84.3c2,0,4-0.1,6,0c0.6,0,0.6-0.8,0-0.9c-2-0.1-4,0-6,0C89.3,83.4,89.3,84.3,89.8,84.3L89.8,84.3z"/>
		<path class="st1" d="M79.8,84.3c1.9,0,3.7,0.1,5.6,0.1c0.6,0,0.6-0.9,0-0.9c-1.9,0-3.7-0.1-5.6-0.1C79.3,83.4,79.3,84.3,79.8,84.3
			L79.8,84.3z"/>
		<path class="st1" d="M89.6,83.5c-0.7,0.3-1.4,0.9-1.8,1.6c-0.3,0.5,0.5,0.9,0.8,0.4c0.3-0.6,0.9-1,1.4-1.3
			C90.6,84,90.1,83.3,89.6,83.5L89.6,83.5L89.6,83.5z"/>
		<path class="st1" d="M87.8,85.2c-0.1,1.8,0,3.6-0.1,5.4c0,1.7-0.1,3.4-0.1,5.1c0,0.6,0.9,0.6,0.9,0c0-1.5,0.1-3,0.1-4.6
			c-0.1-2,0-3.9,0.1-5.9C88.7,84.7,87.9,84.7,87.8,85.2L87.8,85.2L87.8,85.2z"/>
		<path class="st1" d="M79.6,83.6c-0.5,0.5-0.8,1.1-1.2,1.6c-0.3,0.4,0.3,1.1,0.6,0.6c0.4-0.5,0.8-1.1,1.2-1.6
			C80.6,83.8,80,83.2,79.6,83.6L79.6,83.6z"/>
		<path class="st1" d="M77.9,85.9c0,0-0.1,11.5,0,17.2c0,0.6,0.9,0.6,0.9,0c-0.1-5.8,0-11.4,0-17.2C78.8,85.3,77.9,85.3,77.9,85.9
			C77.9,85.9,77.9,85.3,77.9,85.9L77.9,85.9z"/>
		<path class="st1" d="M78.4,103.6c3.2-0.1,6.4,0,9.5-0.1c0.6,0,0.6-0.9,0-0.9c-3.2,0.1-6.4,0-9.5,0.1
			C77.8,102.7,77.8,103.6,78.4,103.6L78.4,103.6z"/>
		<path class="st1" d="M87.7,103.2c0.1,3.6,0,7.3,0.4,10.9c0.1,0.6,0.9,0.6,0.9,0c-0.4-3.6-0.3-7.3-0.4-10.9
			C88.6,102.6,87.7,102.6,87.7,103.2C87.7,103.1,87.7,103.1,87.7,103.2z"/>
		<path class="st1" d="M89.2,101.7c-0.5,0.4-0.9,0.8-1.3,1.3c-0.4,0.4,0.2,1,0.6,0.6c0.4-0.4,0.7-0.8,1.2-1.1
			c0.2-0.1,0.3-0.4,0.2-0.6C89.6,101.6,89.3,101.5,89.2,101.7L89.2,101.7L89.2,101.7z"/>
		<path class="st1" d="M95.6,112.3c-0.3,0.5-0.6,0.9-0.8,1.4c-0.1,0.2,0.1,0.5,0.3,0.5c0.2,0.1,0.4-0.1,0.5-0.3
			c0.2-0.4,0.4-0.8,0.7-1.2C96.6,112.3,95.9,111.8,95.6,112.3L95.6,112.3L95.6,112.3z"/>
		<path class="st1" d="M89.4,112.5c-0.3,0.4-0.6,0.8-0.8,1.2c-0.1,0.2-0.2,0.4,0,0.6c0.2,0.2,0.5,0.2,0.6,0c0.3-0.4,0.7-0.9,1-1.3
			C90.5,112.4,89.7,112,89.4,112.5L89.4,112.5L89.4,112.5z"/>
		<path class="st1" d="M88.8,114.5c2.1,0.1,4.2,0.1,6.3-0.1c0.6-0.1,0.6-0.9,0-0.9c-2.1,0.2-4.2,0.2-6.3,0.1
			C88.2,113.6,88.2,114.4,88.8,114.5L88.8,114.5z"/>
		<path class="st1" d="M79.7,100.9c-0.6,0.5-0.9,1.1-1.3,1.7c-0.3,0.4,0.3,1.1,0.6,0.6c0.4-0.5,0.7-1.2,1.2-1.6
			c0.2-0.1,0.3-0.4,0.2-0.6C80.2,100.9,79.9,100.8,79.7,100.9L79.7,100.9L79.7,100.9z"/>
	</g>
	<g>
		<path class="st1" d="M247.5,334.7c-2.5-0.3-5.3-0.4-7.8,0c-1.2,0.2-2.2,0.8-3,1.7c-0.9,1-1.1,2.2-1.2,3.4c-0.4,3.5-0.5,7-0.5,10.6
			c0,1.8,0,3.6,0,5.4c0,1.6-0.1,3.4,0.2,5c0.4,2.7,2.2,3.4,4.7,3.5c2.6,0.2,5.3,0.1,7.9-0.5c2.7-0.6,4-3,4.3-5.5
			c0.4-2.6,0.3-5.9-0.5-8.4c-0.2-0.5-1-0.3-0.8,0.2c0.7,2.2,0.7,4.8,0.6,7.1c-0.1,1.4-0.3,3-1.2,4.1c-0.9,1.1-2.2,1.7-3.6,1.8
			c-1,0.1-1.9,0.3-2.9,0.4c-1.1,0.1-2.2,0-3.3-0.1c-1.4-0.1-2.8,0-3.7-1.3c-0.8-1.1-0.6-2.6-0.6-3.8c-0.2-5.5-0.5-11.3,0.1-16.8
			c0.1-1.3,0.1-2.9,0.8-4c0.7-1.3,2.2-1.9,3.6-2c2.3-0.2,4.7-0.2,7,0.1C248.1,335.6,248.1,334.8,247.5,334.7L247.5,334.7
			L247.5,334.7z"/>
		<path class="st1" d="M251.5,349.9c-0.6-2-2.3-3.2-4.3-3.5c-2.1-0.3-4.4-0.3-6.5,0.1c-0.6,0.1-0.3,0.9,0.2,0.8
			c1.5-0.2,3-0.2,4.5-0.2c2.2,0.1,4.4,0.6,5.2,3C250.9,350.7,251.7,350.5,251.5,349.9L251.5,349.9L251.5,349.9z"/>
		<path class="st1" d="M247.2,343.6c0-1.2,0.2-2.5-0.8-3.5c-0.9-0.9-2.6-0.6-3.7-0.5c-1.1,0.1-1.7,0.7-2,1.7
			c-0.5,1.7-0.3,3.6-0.4,5.4c0,0.6,0.9,0.6,0.9,0c0-1.1,0-2.1,0.1-3.2c0.1-0.9-0.1-2.6,1.1-3c0.9-0.3,2.1-0.2,3,0
			c1.2,0.3,0.9,2.1,0.9,3.1C246.3,344.2,247.2,344.2,247.2,343.6L247.2,343.6L247.2,343.6z"/>
		<path class="st1" d="M247.5,335.5c3.1,0.3,3.4,3.3,3.5,5.7c0,0.5,0,1.1,0,1.6c0,0.9-0.3,0.8-1,0.7c-1.1-0.1-2.2-0.1-3.3,0
			c-0.6,0.1-0.6,0.9,0,0.9c1.5-0.2,2.9,0.1,4.4,0.1c0.1,0,0.3-0.1,0.4-0.2c0.5-1,0.4-2,0.4-3c0-1-0.1-2.1-0.3-3.1
			c-0.5-1.9-2.1-3.3-4.1-3.5C246.9,334.6,247,335.5,247.5,335.5L247.5,335.5L247.5,335.5z"/>
		<path class="st1" d="M240.1,352.6c-0.1,1.4,0,2.8,0,4.2c0.1,1,0.2,2.1,1.2,2.5c1.3,0.5,2.8,0.5,4-0.1c0.9-0.4,1-1.4,1.1-2.2
			c0.2-1.5,0.6-4.8-1.1-5.6c-1.2-0.5-4.8-0.7-5.2,1c-0.1,0.5,0.7,0.8,0.8,0.2c0.3-1,3.8-0.8,4.3-0.1c0.8,1.1,0.5,3.3,0.3,4.6
			c-0.1,0.9-0.3,1.4-1.3,1.7c-1,0.3-2.9,0.3-3.2-1c-0.4-1.5-0.3-3.5-0.1-5.1C241,352,240.2,352,240.1,352.6L240.1,352.6L240.1,352.6
			z"/>
		<path class="st1" d="M250.7,343.7c-0.4,0.4-0.8,0.8-1.3,1.2c-0.5,0.3,0,1.1,0.4,0.8c0.6-0.4,1-0.8,1.5-1.3
			C251.7,343.9,251.1,343.3,250.7,343.7L250.7,343.7L250.7,343.7z"/>
		<path class="st1" d="M245.6,345.5c1.3,0.1,2.7,0.1,4.1,0.1c0.6,0,0.6-0.9,0-0.9c-1.4,0-2.7,0-4.1-0.1
			C245,344.6,245,345.5,245.6,345.5L245.6,345.5z"/>
		<path class="st1" d="M246.2,343.4c-0.4,0.4-0.6,1-1,1.4c-0.4,0.4,0.2,1,0.6,0.6c0.4-0.4,0.6-1,1-1.4
			C247.2,343.6,246.6,343,246.2,343.4L246.2,343.4z"/>
		<path class="st1" d="M245.8,344.9c-0.5-1,0.5-2.9-0.7-3.6c-0.5-0.3-1.3-0.3-1.8-0.3c-0.7,0-1.6,0.1-2.2,0.3
			c-0.5,0.2-0.3,1,0.2,0.8c0.9-0.3,2.5-0.6,3.4-0.1c0.3,0.1,0.1,1.6,0.1,1.9c0,0.5,0,1,0.2,1.5C245.3,345.8,246,345.4,245.8,344.9
			L245.8,344.9L245.8,344.9z"/>
		<path class="st1" d="M244.5,359c0.5-1.5,0.9-3.8,0.5-5.4c-0.5-1.6-3.5-1-4.6-0.6c-0.5,0.2-0.1,1,0.4,0.8c0.6-0.3,1.3-0.3,2-0.3
			c0.9,0,1.4,0.2,1.4,1.2c0.1,1.3-0.1,2.8-0.6,4.1C243.5,359.3,244.4,359.5,244.5,359L244.5,359L244.5,359z"/>
		<path class="st1" d="M238.9,334.8c-4.4,0.7-5.1,4.7-5.5,8.5c-0.2,2.5,0,5-0.1,7.5c-0.1,2.8-0.2,5.6,0,8.3c0.1,1.9,0.4,4.4,2.1,5.7
			c1.4,1.1,3.6,0.9,5.4,1c2,0.1,4.2,0,6.1-0.4c1.9-0.4,2.9-2.1,3.8-3.5c0.3-0.5-0.4-0.9-0.8-0.4c-1.1,1.7-2.1,3.1-4.3,3.2
			c-1.6,0.1-3.3,0.3-4.9,0.2c-1.6-0.1-3.9,0-5.1-1.1c-1.7-1.6-1.5-4.9-1.5-7c0-4-0.1-8.2,0.1-12.2c0.1-1.9,0.3-3.7,0.8-5.5
			c0.6-2.1,2-3.1,4.1-3.4C239.7,335.6,239.5,334.7,238.9,334.8L238.9,334.8L238.9,334.8z"/>
	</g>
	<g>
		<path class="st1" d="M131.7,248.6c-2.1-0.3-1.4-6.1-1.3-7.6c0.1-1.8,0.1-4.2,1.8-5.3c1.6-1,4.4-0.6,6.1-0.6c0.6,0,0.6-0.9,0-0.9
			c-2.2,0.1-4.9-0.2-6.9,0.9c-1.7,1-1.8,3.7-1.9,5.4c-0.1,1.9-0.2,3.9,0.1,5.9c0.1,1.1,0.5,2.8,1.9,3
			C132,249.5,132.2,248.7,131.7,248.6L131.7,248.6L131.7,248.6z"/>
		<path class="st1" d="M144.1,249.2c1.4-0.4,1.5-1.7,1.6-2.9c0.2-2.6,0.2-5.2,0-7.8c-0.1-1.2-0.4-2.8-1.5-3.5
			c-1.7-1.1-3.9-0.9-5.9-0.9c-0.6,0-0.6,0.9,0,0.9c1.5,0,3,0,4.5,0.4c1.5,0.4,1.9,1.8,2,3.2c0.1,1.5,0.1,3.1,0.1,4.6
			c0,1.1,0.3,4.8-1.1,5.2C143.4,248.6,143.6,249.4,144.1,249.2L144.1,249.2L144.1,249.2z"/>
		<path class="st1" d="M143.8,249.5c1.4,0.4,1.4,3,1.5,4.1c0.1,1.7,0,3.5-0.1,5.2c-0.1,2.2-0.6,4-3.1,4.2c-1.8,0.1-3.5,0-5.3,0
			c-0.6,0-0.6,0.9,0,0.9c2.2-0.1,4.4,0.2,6.5-0.2c2.1-0.4,2.7-2.9,2.7-4.7c0-2.3,0.2-4.5,0-6.8c-0.1-1.4-0.5-3.2-2-3.6
			C143.5,248.5,143.2,249.3,143.8,249.5L143.8,249.5L143.8,249.5z"/>
		<path class="st1" d="M131.3,248.8c-1.5,0.8-1.6,2.5-1.6,4.1c-0.1,2.4-0.2,4.8,0.1,7.1c0.1,1.4,0.4,2.8,1.7,3.5
			c0.7,0.4,1.6,0.4,2.4,0.4c1.1,0,2.2,0,3.4,0c0.6,0,0.6-0.9,0-0.9c-1.4,0.1-2.8,0-4.2,0c-2.1-0.1-2.3-1.8-2.4-3.5
			c-0.2-1.7-0.1-3.4-0.1-5.1c0.1-1.5-0.3-4.1,1.3-4.9C132.2,249.3,131.8,248.5,131.3,248.8L131.3,248.8L131.3,248.8z"/>
		<path class="st1" d="M134.6,252.1c-0.6,0.4-0.6,1.3-0.6,2c0,0.7,0.1,1.4,0.1,2c0,0.6-0.1,1.4,0,2c0.3,1.2,1.2,1.3,2.3,1.3
			c1.1,0.1,3.1,0.3,4.1-0.3c0.9-0.5,0.9-1.6,0.9-2.6c0-1.2,0.2-2.9-0.3-3.9c-0.5-1.1-1.8-0.9-2.8-0.9c-1.1,0-2.3-0.1-3.4,0.1
			c-0.6,0.1-0.3,1,0.2,0.8c1.3-0.3,2.8-0.1,4.1-0.1c1.6,0,1.2,1.6,1.2,2.6c0,0.9,0.1,1.7,0,2.6c-0.1,1-2.1,0.7-2.8,0.8
			c-1.2,0.1-2.9,0.1-2.8-1.5c0.1-0.8,0-1.6-0.1-2.4c0-0.4-0.2-1.7,0.1-1.9C135.5,252.5,135.1,251.7,134.6,252.1L134.6,252.1
			L134.6,252.1z"/>
		<path class="st1" d="M140.9,245.9c0.6-0.4,0.6-1.3,0.6-2c0-0.7-0.1-1.4-0.1-2.1c0-0.6,0.1-1.4,0-2c-0.3-1.2-1.2-1.3-2.3-1.3
			c-1.1-0.1-3.1-0.3-4.1,0.3c-0.9,0.6-0.9,1.6-0.9,2.6c0,1.2-0.2,2.9,0.3,3.9c0.5,1.1,1.8,0.9,2.8,0.9c1.1,0,2.3,0.1,3.4-0.1
			c0.6-0.1,0.3-1-0.2-0.8c-1.3,0.3-2.8,0.1-4.1,0.1c-1.6,0-1.2-1.6-1.2-2.6c0-0.9-0.1-1.7,0-2.6c0.1-1,2.1-0.7,2.8-0.8
			c1.2-0.1,2.9-0.1,2.8,1.5c-0.1,0.8,0,1.6,0.1,2.4c0,0.4,0.2,1.7-0.1,1.9C140,245.5,140.4,246.3,140.9,245.9L140.9,245.9
			L140.9,245.9z"/>
		<path class="st1" d="M134.8,241c0.9,0,1.8-0.1,2.7-0.1c0.3,0,1.2-0.1,1.3,0.3c0.2,0.6,0.1,1.4,0.1,2.1c0,0.7-0.1,1.5-0.1,2.2
			c0,0.6,0.9,0.6,0.9,0c0-0.9,0.1-1.8,0.1-2.7c0-0.6,0.1-1.7-0.4-2.2c-0.4-0.4-0.9-0.5-1.4-0.6c-1.1-0.1-2.2,0.1-3.3,0.1
			C134.2,240.2,134.2,241.1,134.8,241L134.8,241L134.8,241z"/>
		<path class="st1" d="M134.7,254.3c1.3-0.1,2.8-0.2,4,0.1c0.5,0.1,0.1,3.7,0.2,4.2c0,0.5,0.9,0.6,0.9,0c-0.1-0.9,0-1.8,0-2.7
			c0-0.7,0-1.6-0.4-2.2c-0.4-0.5-1.6-0.4-2-0.4c-0.9,0-1.8,0-2.6,0.1C134.2,253.5,134.2,254.3,134.7,254.3L134.7,254.3L134.7,254.3z
			"/>
		<path class="st1" d="M133.7,234.4c-3.4,0.1-5.1,2-5.6,5.2c-0.3,1.8-0.2,3.8-0.1,5.6c0.1,1.7,0.4,3.3,1.6,4.6v-0.6
			c-1.4,1.6-1.7,4.2-1.7,6.3c0,1.5,0.1,3,0.3,4.4c0.1,1.3,0.2,3,1,4c0.9,1.1,2,1.3,3.4,1.4c2,0.1,4.1,0,6.1,0
			c1.4,0.1,2.9,0.1,4.3-0.3c1.3-0.4,1.9-1.8,2.4-2.9c0.2-0.5-0.5-1-0.8-0.4c-0.6,1.3-1.2,2.4-2.6,2.7c-1.2,0.3-2.6,0.1-3.8,0.1
			c-1.4,0-2.7,0-4.1,0c-1.8,0-3.8,0.2-4.6-1.7c-0.8-2-0.7-4.7-0.8-6.9c-0.1-2,0-4.5,1.5-6.1c0.2-0.2,0.2-0.4,0-0.6
			c-1.9-2.2-1.5-6-1.4-8.7c0.1-1.1,0.3-2.3,0.9-3.3c0.8-1.5,2.4-1.9,3.9-1.9C134.2,235.3,134.2,234.4,133.7,234.4L133.7,234.4
			L133.7,234.4z"/>
		<path class="st1" d="M129.9,249.8c0.4,0,0.8-0.1,1.2-0.1c0.6,0,0.6-0.9,0-0.9c-0.4,0-0.8,0.1-1.2,0.1
			C129.4,249,129.4,249.8,129.9,249.8L129.9,249.8z"/>
	</g>
	<g>
		<path class="st1" d="M137.7,127.6c-3.2,0.1-8.1-0.5-9,3.6c-0.4,1.8-0.1,3.7-0.1,5.5c0,2.6-0.1,5.2-0.1,7.8s0,5.2,0.1,7.8
			c0,1.2,0.1,2.4,0.9,3.3c0.7,0.8,2.1,1,3.1,1.1c2.1,0.2,4.1,0.1,6.4,0.1c0.6,0,0.6-0.9,0-0.9c-1.7,0-3.4,0-5.1,0
			c-1.2,0-2.6,0-3.6-0.8c-1.1-0.9-0.8-2.7-0.8-3.9c0-2.3-0.1-4.6-0.1-6.8c0-3.7,0.1-7.4,0-11c0-2,0.2-3.8,2.4-4.5
			c1.8-0.6,4-0.4,5.9-0.5C138.2,128.4,138.2,127.5,137.7,127.6L137.7,127.6L137.7,127.6z"/>
		<path class="st1" d="M137.7,128.4c1.7,0.1,3.3-0.1,4.9,0.4c2,0.6,1.9,2.6,2,4.3c0.1,3.7,0.1,7.3,0.1,11c0,2.9,0.1,5.8-0.3,8.6
			c-0.2,1.5-0.5,2.5-2.1,2.9c-1.4,0.4-3.1,0.3-4.5,0.3c-0.6,0-0.6,0.9,0,0.9c2.3,0,6.2,0.4,7.1-2.2c0.5-1.4,0.5-3,0.6-4.4
			c0.1-1.8,0.1-3.7,0.1-5.5c0-4.4,0.3-9.1-0.2-13.5c-0.4-3.9-4.6-3.5-7.7-3.6C137.1,127.5,137.1,128.4,137.7,128.4L137.7,128.4
			L137.7,128.4z"/>
		<path class="st1" d="M134,133.8c0,3.1-0.1,6.1-0.1,9.2c0,2.3-0.2,4.8,0.2,7c0.3,1.8,1.3,1.8,2.9,1.8c0.7,0,1.7,0.1,2.4-0.3
			c0.5-0.3,0.5-1.2,0.5-1.6c0.2-2.1,0-4.2,0-6.3c0-2.4-0.1-4.7,0.1-7.1c0.1-0.8,0.5-3.7-0.9-3.8c-1.3-0.1-4.4-0.7-5,0.9
			c-0.2,0.5,0.6,0.8,0.8,0.2c0.2-0.6,1.9-0.4,2.4-0.4c1,0,1.8-0.1,1.9,1c0.1,1.6-0.2,3.3-0.2,5c0,3.2,0.1,6.5,0.1,9.7
			c0,0.8,0.1,1.5-0.9,1.6c-0.7,0.1-1.4,0-2.1,0.1c-1.6,0.1-1.2-2.7-1.2-3.8c-0.1-4.4,0-8.9,0-13.3C134.9,133.2,134,133.2,134,133.8
			L134,133.8L134,133.8z"/>
		<path class="st1" d="M138.3,151.1c0,0-0.1-8.1,0.1-12.1c0.1-1.1,0.1-2.2,0.1-3.3c0-0.5,0-1-0.4-1.3c-0.6-0.6-2.6-0.2-3.4-0.2
			c-0.6,0-0.6,0.9,0,0.9c0.8,0,3-0.4,3,0.7c0,1.8-0.1,3.5-0.2,5.2c-0.2,3.4,0,6.7,0,10.2C137.4,151.6,138.3,151.6,138.3,151.1
			C138.3,151.1,138.3,151.6,138.3,151.1L138.3,151.1z"/>
		<path class="st1" d="M132.7,127.8c-1.5,0.2-3.4,0.3-4.5,1.5c-1.3,1.4-1.2,3.8-1.1,5.6c0.1,5-0.3,10.1-0.2,15.1
			c0,2-0.2,4.5,0.9,6.3c0.9,1.5,3.3,1.8,4.8,2c2.5,0.3,5.2,0,7.8-0.1c2.5-0.1,3.8-1.4,4.7-3.7c0.2-0.5-0.6-0.7-0.8-0.2
			c-0.5,1.2-1.2,2.5-2.6,2.9c-1,0.3-2.2,0.2-3.3,0.2c-2.1,0-4.3,0.3-6.4,0c-2-0.3-3.5-0.9-3.9-3c-0.4-2.1-0.3-4.4-0.3-6.6
			c0-3.8,0.4-7.6,0.2-11.4c-0.1-1.9-0.3-4.2,0.6-6c0.7-1.5,2.8-1.5,4.2-1.7C133.2,128.6,133.2,127.8,132.7,127.8L132.7,127.8z"/>
	</g>
	<g>
		<path class="st1" d="M87.7,188.5c-3.2,0.1-8.1-0.5-9,3.6c-0.4,1.8-0.1,3.7-0.1,5.5c0,2.6-0.1,5.2-0.1,7.8s0,5.2,0.1,7.8
			c0,1.2,0.1,2.4,0.9,3.3c0.7,0.8,2.1,1,3.1,1.1c2.1,0.2,4.1,0.1,6.4,0.1c0.6,0,0.6-0.9,0-0.9c-1.7,0-3.4,0-5.1,0
			c-1.2,0-2.7,0-3.6-0.8c-1.1-0.9-0.8-2.7-0.8-3.9c0-2.3-0.1-4.6-0.1-6.8c0-3.7,0.1-7.4,0-11c0-2,0.2-3.8,2.3-4.5
			c1.8-0.6,4-0.4,5.9-0.5C88.2,189.4,88.2,188.5,87.7,188.5L87.7,188.5L87.7,188.5z"/>
		<path class="st1" d="M87.7,189.4c1.7,0.1,3.3-0.1,4.9,0.4c2,0.6,1.9,2.6,2,4.3c0.1,3.7,0.1,7.3,0.1,11c0,2.9,0.1,5.8-0.3,8.6
			c-0.2,1.5-0.5,2.5-2.1,2.9c-1.4,0.4-3.1,0.3-4.5,0.3c-0.6,0-0.6,0.9,0,0.9c2.3,0,6.2,0.4,7.1-2.2c0.5-1.4,0.5-3,0.6-4.4
			c0.1-1.8,0.1-3.7,0.1-5.5c0-4.4,0.3-9.1-0.2-13.5c-0.4-3.9-4.7-3.5-7.7-3.6C87.1,188.5,87.1,189.4,87.7,189.4L87.7,189.4
			L87.7,189.4z"/>
		<path class="st1" d="M84,194.7c0,3.1-0.1,6.1-0.1,9.2c0,2.3-0.2,4.8,0.2,7c0.3,1.8,1.3,1.8,2.9,1.8c0.7,0,1.7,0.1,2.3-0.3
			c0.5-0.3,0.5-1.2,0.5-1.6c0.2-2.1,0-4.2,0-6.3c0-2.4-0.1-4.7,0.1-7.1c0.1-0.8,0.5-3.7-0.9-3.8c-1.3-0.1-4.4-0.7-5,0.9
			c-0.2,0.5,0.7,0.8,0.8,0.2c0.2-0.6,1.9-0.4,2.4-0.4c1,0,1.8-0.1,1.9,1c0.1,1.6-0.2,3.3-0.2,5c0,3.2,0.1,6.5,0.1,9.7
			c0,0.8,0.1,1.5-0.9,1.6c-0.7,0.1-1.4,0-2.1,0.1c-1.6,0.1-1.2-2.7-1.2-3.8c-0.1-4.4,0-8.9,0-13.3C84.9,194.1,84,194.1,84,194.7
			L84,194.7L84,194.7z"/>
		<path class="st1" d="M88.3,212c0,0-0.1-8.1,0.1-12.1c0.1-1.1,0.1-2.2,0.1-3.3c0-0.5,0-1-0.4-1.3c-0.6-0.6-2.6-0.2-3.4-0.2
			c-0.6,0-0.6,0.9,0,0.9c0.8,0,3-0.4,3,0.7c0,1.8-0.2,3.5-0.2,5.2c-0.2,3.4,0,6.7,0,10.2C87.4,212.6,88.3,212.6,88.3,212
			C88.3,212,88.3,212.6,88.3,212L88.3,212z"/>
		<path class="st1" d="M82.7,188.8c-1.5,0.2-3.4,0.3-4.5,1.5c-1.3,1.4-1.2,3.8-1.1,5.6c0.1,5-0.3,10.1-0.2,15.1c0,2-0.2,4.5,0.9,6.3
			c0.9,1.5,3.3,1.8,4.8,2c2.5,0.3,5.2,0,7.8-0.1c2.5-0.1,3.8-1.4,4.7-3.7c0.2-0.5-0.6-0.7-0.8-0.2c-0.5,1.2-1.2,2.5-2.6,2.9
			c-1,0.3-2.2,0.2-3.3,0.2c-2.1,0-4.3,0.3-6.4,0c-2-0.3-3.5-0.9-3.9-3c-0.4-2.1-0.3-4.4-0.3-6.6c0-3.8,0.4-7.6,0.2-11.4
			c-0.1-1.9-0.3-4.2,0.6-6c0.7-1.5,2.8-1.5,4.2-1.7C83.2,189.6,83.2,188.7,82.7,188.8C82.7,188.8,82.7,188.8,82.7,188.8z"/>
	</g>
	<g>
		<path class="st1" d="M191.3,188.5c-3.2,0.1-8.1-0.5-9,3.6c-0.4,1.8-0.1,3.7-0.1,5.5c0,2.6-0.1,5.2-0.1,7.8s0,5.2,0.1,7.8
			c0,1.2,0.1,2.4,0.9,3.3c0.7,0.8,2.1,1,3.1,1.1c2.1,0.2,4.1,0.1,6.4,0.1c0.6,0,0.6-0.9,0-0.9c-1.7,0-3.4,0-5.1,0
			c-1.2,0-2.7,0-3.6-0.8c-1.1-0.9-0.8-2.7-0.8-3.9c0-2.3-0.1-4.6-0.1-6.8c0-3.7,0.1-7.4,0-11c0-2,0.2-3.8,2.4-4.5
			c1.8-0.6,4-0.4,5.9-0.5C191.8,189.4,191.8,188.5,191.3,188.5L191.3,188.5L191.3,188.5z"/>
		<path class="st1" d="M191.3,189.4c1.7,0.1,3.3-0.1,4.9,0.4c2,0.6,1.9,2.6,2,4.3c0.1,3.7,0.1,7.3,0.1,11c0,2.9,0.1,5.8-0.3,8.6
			c-0.2,1.5-0.5,2.5-2.1,2.9c-1.4,0.4-3.1,0.3-4.5,0.3c-0.6,0-0.6,0.9,0,0.9c2.3,0,6.2,0.4,7.1-2.2c0.5-1.4,0.5-3,0.6-4.4
			c0.1-1.8,0.1-3.7,0.1-5.5c0-4.4,0.3-9.1-0.2-13.5c-0.4-3.9-4.7-3.5-7.7-3.6C190.7,188.5,190.7,189.4,191.3,189.4L191.3,189.4
			L191.3,189.4z"/>
		<path class="st1" d="M187.6,194.7c0,3.1-0.1,6.1-0.1,9.2c0,2.3-0.2,4.8,0.2,7c0.3,1.8,1.3,1.8,2.9,1.8c0.7,0,1.7,0.1,2.3-0.3
			c0.5-0.3,0.5-1.2,0.5-1.6c0.2-2.1,0-4.2,0-6.3c0-2.4-0.1-4.7,0.1-7.1c0.1-0.8,0.5-3.7-0.9-3.8c-1.3-0.1-4.4-0.7-5,0.9
			c-0.2,0.5,0.6,0.8,0.8,0.2c0.2-0.6,1.9-0.4,2.4-0.4c1,0,1.8-0.1,1.9,1c0.1,1.6-0.2,3.3-0.2,5c0,3.2,0.1,6.5,0.1,9.7
			c0,0.8,0.1,1.5-0.9,1.6c-0.7,0.1-1.4,0-2.1,0.1c-1.6,0.1-1.2-2.7-1.2-3.8c-0.1-4.4,0-8.9,0-13.3
			C188.5,194.1,187.6,194.1,187.6,194.7L187.6,194.7L187.6,194.7z"/>
		<path class="st1" d="M191.9,212c0,0-0.1-8.1,0.1-12.1c0.1-1.1,0.1-2.2,0.1-3.3c0-0.5,0-1-0.4-1.3c-0.6-0.6-2.6-0.2-3.4-0.2
			c-0.6,0-0.6,0.9,0,0.9c0.8,0,3-0.4,3,0.7c0,1.8-0.2,3.5-0.2,5.2c-0.2,3.4,0,6.7,0,10.2C191,212.6,191.9,212.6,191.9,212
			C191.9,212,191.9,212.6,191.9,212L191.9,212z"/>
		<path class="st1" d="M186.3,188.8c-1.5,0.2-3.4,0.3-4.5,1.5c-1.3,1.4-1.2,3.8-1.1,5.6c0.1,5-0.3,10.1-0.2,15.1
			c0,2-0.2,4.5,0.9,6.3c0.9,1.5,3.3,1.8,4.8,2c2.5,0.3,5.2,0,7.8-0.1c2.5-0.1,3.8-1.4,4.7-3.7c0.2-0.5-0.6-0.7-0.8-0.2
			c-0.5,1.2-1.2,2.5-2.6,2.9c-1,0.3-2.2,0.2-3.3,0.2c-2.1,0-4.3,0.3-6.4,0c-2-0.3-3.5-0.9-3.9-3c-0.4-2.1-0.3-4.4-0.3-6.6
			c0-3.8,0.4-7.6,0.2-11.4c-0.1-1.9-0.3-4.2,0.6-6c0.7-1.5,2.8-1.5,4.2-1.7C186.8,189.6,186.8,188.7,186.3,188.8
			C186.3,188.8,186.3,188.8,186.3,188.8z"/>
	</g>
	<g>
		<path class="st1" d="M243.2,127.6c-3.2,0.1-8.1-0.5-9,3.6c-0.4,1.8-0.1,3.7-0.1,5.5c0,2.6-0.1,5.2-0.1,7.8s0,5.2,0.1,7.8
			c0,1.2,0.1,2.4,0.9,3.3c0.7,0.8,2.1,1,3.1,1.1c2.1,0.2,4.1,0.1,6.4,0.1c0.6,0,0.6-0.9,0-0.9c-1.7,0-3.4,0-5.1,0
			c-1.2,0-2.6,0-3.6-0.8c-1.1-0.9-0.8-2.7-0.8-3.9c0-2.3-0.1-4.6-0.1-6.8c0-3.7,0.1-7.4,0-11c0-2,0.2-3.8,2.4-4.5
			c1.8-0.6,4-0.4,5.9-0.5C243.7,128.4,243.7,127.5,243.2,127.6L243.2,127.6L243.2,127.6z"/>
		<path class="st1" d="M243.2,128.4c1.7,0.1,3.3-0.1,4.9,0.4c2,0.6,1.9,2.6,2,4.3c0.1,3.7,0.1,7.3,0.1,11c0,2.9,0.1,5.8-0.3,8.6
			c-0.2,1.5-0.5,2.5-2.1,2.9c-1.4,0.4-3.1,0.3-4.5,0.3c-0.6,0-0.6,0.9,0,0.9c2.3,0,6.2,0.4,7.1-2.2c0.5-1.4,0.5-3,0.6-4.4
			c0.1-1.8,0.1-3.7,0.1-5.5c0-4.4,0.3-9.1-0.2-13.5c-0.4-3.9-4.6-3.5-7.7-3.6C242.6,127.5,242.6,128.4,243.2,128.4L243.2,128.4
			L243.2,128.4z"/>
		<path class="st1" d="M239.5,133.8c0,3.1-0.1,6.1-0.1,9.2c0,2.3-0.2,4.8,0.2,7c0.3,1.8,1.3,1.8,2.9,1.8c0.7,0,1.7,0.1,2.4-0.3
			c0.5-0.3,0.5-1.2,0.5-1.6c0.2-2.1,0-4.2,0-6.3c0-2.4-0.1-4.7,0.1-7.1c0.1-0.8,0.5-3.7-0.9-3.8c-1.3-0.1-4.4-0.7-5,0.9
			c-0.2,0.5,0.6,0.8,0.8,0.2c0.2-0.6,1.9-0.4,2.4-0.4c1,0,1.8-0.1,1.9,1c0.1,1.6-0.2,3.3-0.2,5c0,3.2,0.1,6.5,0.1,9.7
			c0,0.8,0.1,1.5-0.9,1.6c-0.7,0.1-1.4,0-2.1,0.1c-1.6,0.1-1.2-2.7-1.2-3.8c-0.1-4.4,0-8.9,0-13.3
			C240.4,133.2,239.5,133.2,239.5,133.8L239.5,133.8L239.5,133.8z"/>
		<path class="st1" d="M243.8,151.1c0,0-0.1-8.1,0.1-12.1c0.1-1.1,0.1-2.2,0.1-3.3c0-0.5,0-1-0.4-1.3c-0.6-0.6-2.6-0.2-3.4-0.2
			c-0.6,0-0.6,0.9,0,0.9c0.8,0,3-0.4,3,0.7c0,1.8-0.1,3.5-0.2,5.2c-0.2,3.4,0,6.7,0,10.2C243,151.6,243.8,151.6,243.8,151.1
			C243.8,151.1,243.8,151.6,243.8,151.1L243.8,151.1z"/>
		<path class="st1" d="M238.2,127.8c-1.5,0.2-3.4,0.3-4.5,1.5c-1.3,1.4-1.2,3.8-1.1,5.6c0.1,5-0.3,10.1-0.2,15.1
			c0,2-0.1,4.5,0.9,6.3c0.9,1.5,3.3,1.8,4.8,2c2.5,0.3,5.2,0,7.8-0.1c2.5-0.1,3.8-1.4,4.7-3.7c0.2-0.5-0.6-0.7-0.8-0.2
			c-0.5,1.2-1.2,2.5-2.6,2.9c-1,0.3-2.2,0.2-3.3,0.2c-2.1,0-4.3,0.3-6.4,0c-2-0.3-3.5-0.9-3.9-3c-0.4-2.1-0.3-4.4-0.3-6.6
			c0-3.8,0.4-7.6,0.2-11.4c-0.1-1.9-0.3-4.2,0.6-6c0.7-1.5,2.8-1.5,4.2-1.7C238.8,128.6,238.8,127.8,238.2,127.8L238.2,127.8z"/>
	</g>
	<g>
		<path class="st1" d="M191,295.1c-3.2,0.1-8.1-0.5-9,3.5c-0.4,1.8-0.1,3.7-0.1,5.5c0,2.6-0.1,5.2-0.1,7.8s0,5.2,0.1,7.8
			c0,1.2,0.1,2.4,0.9,3.3c0.7,0.8,2.1,1,3.1,1.1c2.1,0.2,4.1,0.1,6.4,0.1c0.6,0,0.6-0.9,0-0.9c-1.7,0-3.4,0-5.1,0
			c-1.2,0-2.6,0-3.6-0.8c-1.1-0.9-0.8-2.7-0.8-3.9c0-2.3-0.1-4.5-0.1-6.8c0-3.7,0.1-7.4,0-11c0-2,0.2-3.8,2.4-4.5
			c1.8-0.6,4-0.4,5.9-0.5C191.6,295.9,191.6,295.1,191,295.1L191,295.1L191,295.1z"/>
		<path class="st1" d="M191,296c1.7,0,3.3,0,4.9,0.4c2,0.5,1.9,2.6,2,4.3c0.1,3.7,0.1,7.3,0.1,11c0,2.9,0.1,5.8-0.3,8.6
			c-0.2,1.5-0.5,2.5-2.1,3c-1.4,0.4-3.1,0.3-4.5,0.3c-0.6,0-0.6,0.9,0,0.9c2.3,0,6.2,0.4,7.1-2.2c0.5-1.4,0.5-3,0.6-4.4
			c0.1-1.8,0.1-3.7,0.1-5.5c0-4.4,0.3-9-0.2-13.5c-0.4-3.9-4.6-3.5-7.7-3.6C190.5,295.1,190.5,296,191,296L191,296L191,296z"/>
		<path class="st1" d="M187.4,301.3c0,3.1-0.1,6.1-0.1,9.2c0,2.3-0.2,4.8,0.2,7c0.3,1.8,1.3,1.8,2.9,1.8c0.7,0,1.7,0.1,2.4-0.3
			c0.5-0.3,0.5-1.2,0.5-1.6c0.2-2.1,0-4.2,0-6.3c0-2.4-0.1-4.7,0.1-7c0.1-0.8,0.5-3.7-0.9-3.8c-1.3-0.1-4.4-0.7-5,0.9
			c-0.2,0.5,0.6,0.8,0.8,0.2c0.2-0.6,1.9-0.4,2.4-0.4c1,0,1.8-0.1,1.9,1c0.1,1.6-0.2,3.3-0.2,5c0,3.2,0.1,6.5,0.1,9.7
			c0,0.8,0.1,1.5-0.9,1.6c-0.7,0-1.4,0-2.1,0.1c-1.6,0.1-1.2-2.7-1.2-3.8c-0.1-4.4,0-8.9,0-13.3
			C188.3,300.7,187.4,300.7,187.4,301.3L187.4,301.3L187.4,301.3z"/>
		<path class="st1" d="M191.7,318.6c0,0-0.1-8,0.1-12.1c0.1-1.1,0.1-2.2,0.1-3.3c0-0.5,0-1-0.4-1.3c-0.6-0.6-2.6-0.2-3.4-0.2
			c-0.6,0-0.6,0.9,0,0.9c0.8,0,3-0.4,3,0.7c0,1.8-0.1,3.5-0.2,5.2c-0.2,3.4,0,6.7,0,10.2C190.8,319.2,191.7,319.2,191.7,318.6
			C191.7,318.6,191.7,319.2,191.7,318.6L191.7,318.6z"/>
		<path class="st1" d="M186.1,295.4c-1.5,0.2-3.4,0.3-4.5,1.5c-1.3,1.4-1.2,3.8-1.1,5.5c0.1,5-0.3,10.1-0.2,15.1
			c0,2-0.1,4.5,0.9,6.3c0.9,1.5,3.3,1.8,4.8,2c2.5,0.3,5.2,0,7.8-0.1c2.5-0.1,3.8-1.4,4.7-3.7c0.2-0.5-0.6-0.7-0.8-0.2
			c-0.5,1.2-1.2,2.5-2.6,2.9c-1,0.3-2.2,0.2-3.3,0.2c-2.1,0-4.3,0.3-6.4,0c-2-0.3-3.5-0.9-3.9-3c-0.4-2.1-0.3-4.4-0.3-6.6
			c0-3.8,0.4-7.6,0.2-11.4c-0.1-1.9-0.3-4.2,0.6-6c0.7-1.5,2.8-1.5,4.2-1.7C186.6,296.2,186.6,295.3,186.1,295.4L186.1,295.4
			L186.1,295.4z"/>
	</g>
	<g>
		<path class="st0" d="M18.8,305.3c-5.1,0.2-13.1-0.8-14.5,5.8c-0.6,2.9-0.1,6-0.1,8.9c0,4.2-0.1,8.5-0.1,12.7c0,4.2,0,8.5,0.1,12.7
			c0,2,0.2,3.9,1.5,5.4c1.2,1.3,3.3,1.6,5,1.8c3.4,0.4,6.6,0.2,10.4,0.2c0.9,0,0.9-1.4,0-1.4c-2.8,0-5.6,0-8.3,0
			c-1.9,0-4.3-0.1-5.8-1.3c-1.7-1.4-1.3-4.4-1.3-6.2c-0.1-3.7-0.1-7.4-0.1-11c0-6,0.1-11.9-0.1-17.9c-0.1-3.3,0.3-6.2,3.8-7.3
			c3-1,6.5-0.6,9.6-0.8C19.7,306.7,19.7,305.3,18.8,305.3L18.8,305.3L18.8,305.3z"/>
		<path class="st0" d="M18.8,306.7c2.7,0.1,5.4-0.1,8,0.6c3.2,0.9,3.1,4.1,3.2,6.9c0.1,5.9,0.2,11.9,0.1,17.8c0,4.7,0.1,9.4-0.4,14
			c-0.3,2.5-0.8,4-3.4,4.8c-2.3,0.7-5,0.5-7.4,0.5c-0.9,0-0.9,1.4,0,1.4c3.7,0,10,0.7,11.6-3.6c0.8-2.2,0.8-4.9,0.9-7.2
			c0.1-3,0.1-6,0.1-8.9c0-7.2,0.5-14.7-0.3-21.8c-0.7-6.4-7.5-5.7-12.4-5.8C17.9,305.3,17.9,306.7,18.8,306.7L18.8,306.7L18.8,306.7
			z"/>
		<path class="st0" d="M12.9,315.3c0,5-0.1,9.9-0.1,14.9c0,3.7-0.4,7.7,0.3,11.4c0.5,3,2.1,3,4.8,2.9c1.1,0,2.8,0.2,3.8-0.5
			c0.8-0.5,0.8-1.9,0.8-2.6c0.3-3.4,0-6.8,0-10.2c0-3.8-0.1-7.6,0.1-11.4c0.1-1.4,0.9-6-1.5-6.1c-2.1-0.1-7.2-1.2-8.1,1.5
			c-0.3,0.9,1.1,1.2,1.4,0.4c0.4-1,3.1-0.6,3.9-0.6c1.6,0,2.9-0.2,3,1.6c0.2,2.7-0.3,5.4-0.3,8.1c0,5.2,0.2,10.5,0.1,15.8
			c0,1.3,0.1,2.5-1.5,2.6c-1.1,0.1-2.3,0.1-3.4,0.1c-2.6,0.1-1.9-4.4-2-6.2c-0.2-7.2,0-14.4,0-21.6
			C14.3,314.4,12.9,314.4,12.9,315.3L12.9,315.3L12.9,315.3z"/>
		<path class="st0" d="M19.9,343.4c0,0-0.1-13,0.2-19.6c0.1-1.8,0.1-3.6,0.2-5.3c0-0.8,0-1.6-0.6-2.2c-1-1-4.2-0.4-5.6-0.4
			c-0.9,0-0.9,1.4,0,1.4c1.3,0,4.8-0.6,4.8,1.2c0,2.8-0.2,5.6-0.4,8.5c-0.3,5.5,0,10.8,0,16.5C18.4,344.3,19.9,344.3,19.9,343.4
			C19.9,343.4,19.9,344.3,19.9,343.4L19.9,343.4z"/>
		<path class="st0" d="M10.7,305.8c-2.4,0.3-5.5,0.4-7.3,2.4c-2,2.3-1.9,6.1-1.9,9c0.1,8.2-0.4,16.3-0.3,24.5
			c0.1,3.2-0.2,7.3,1.5,10.1c1.4,2.4,5.3,3,7.8,3.3c4.1,0.4,8.5,0,12.6-0.2c4.1-0.2,6.1-2.3,7.6-6c0.4-0.8-1-1.2-1.4-0.4
			c-0.8,2-2,4.1-4.2,4.7c-1.7,0.4-3.6,0.3-5.4,0.3c-3.4,0-7,0.5-10.4,0c-3.2-0.5-5.7-1.5-6.3-4.9c-0.7-3.4-0.5-7.1-0.5-10.6
			c0-6.1,0.6-12.3,0.4-18.4c-0.1-3.1-0.5-6.8,0.9-9.7c1.1-2.4,4.5-2.5,6.8-2.8C11.6,307.1,11.6,305.7,10.7,305.8L10.7,305.8
			L10.7,305.8z"/>
	</g>
	<rect x="60.3" y="70.8" class="st2" width="104.2" height="104.2"/>
	<rect x="164.5" y="70.8" class="st2" width="104.2" height="104.2"/>
	<rect x="60.3" y="175" class="st2" width="104.2" height="104.2"/>
	<rect x="164.5" y="175" class="st2" width="104.2" height="104.2"/>
	<rect x="60.3" y="279" class="st2" width="104.2" height="104.2"/>
	<rect x="164.5" y="279" class="st2" width="104.2" height="104.2"/>
	<line class="st3" x1="60.3" y1="175" x2="164.5" y2="70.8"/>
	<line class="st3" x1="60.3" y1="279" x2="268.6" y2="70.7"/>
	<line class="st3" x1="60.3" y1="383.2" x2="268.6" y2="174.9"/>
	<line class="st3" x1="164.5" y1="383.2" x2="268.7" y2="279"/>
</g>
</svg>
