<?xml version="1.0" encoding="utf-8"?>
<!-- Generator: Adobe Illustrator 27.0.0, SVG Export Plug-In . SVG Version: 6.00 Build 0)  -->
<svg version="1.1" id="Layer_2_00000070805267239972197040000013177429623968473254_"
	 xmlns="http://www.w3.org/2000/svg" xmlns:xlink="http://www.w3.org/1999/xlink" x="0px" y="0px" viewBox="0 0 116.8 235"
	 style="enable-background:new 0 0 116.8 235;" xml:space="preserve">
<style type="text/css">
	.st0{font-family:'Roboto-Medium';}
	.st1{font-size:35.2116px;}
	.st2{font-family:'Roboto-LightItalic';}
	.st3{font-size:17.3806px;}
	.st4{font-family:'Roboto-Light';}
	.st5{fill:none;stroke:#000000;stroke-miterlimit:10;}
	.st6{font-size:20px;}
</style>
<g>
	<text transform="matrix(0.583 0 0 0.583 41.2251 36.1238)" class="st0 st1"> </text>
	<text transform="matrix(1 0 0 1 46.3372 47.8491)" class="st0 st1">12</text>
	<text transform="matrix(1 0 0 1 48.5914 87.762)" class="st0 st1">27</text>
	<g>
		<text transform="matrix(1 0 0 1 5.3428 87.762)" class="st2 st3">x</text>
	</g>
	<text transform="matrix(1 0 0 1 26.3243 180.5605)" class="st0 st1">240</text>
	<text transform="matrix(1 0 0 1 26.3243 231.4644)" class="st0 st1">324</text>
	<text transform="matrix(1 0 0 1 46.3372 138.3386)" class="st0 st1">84</text>
	<g>
		<text transform="matrix(1 0 0 1 5.0437 146.9153)" class="st4 st3">+</text>
	</g>
	<line class="st5" x1="-0.4" y1="100.5" x2="116.4" y2="100.5"/>
	<line class="st5" x1="-0.4" y1="193.5" x2="116.4" y2="193.5"/>
</g>
<g>
	<text transform="matrix(1 0 0 1 29.603 145.8826)" class="st0 st6">1</text>
</g>
<g>
	<text transform="matrix(1 0 0 1 49.9771 16.1028)" class="st0 st6">1</text>
</g>
</svg>
