<?xml version="1.0" encoding="utf-8"?>
<!-- Generator: Adobe Illustrator 26.3.1, SVG Export Plug-In . SVG Version: 6.00 Build 0)  -->
<svg version="1.1" id="Layer_2_00000068643283926981105580000006814313252699373983_"
	 xmlns="http://www.w3.org/2000/svg" xmlns:xlink="http://www.w3.org/1999/xlink" x="0px" y="0px" viewBox="0 0 217.2 300.6"
	 style="enable-background:new 0 0 217.2 300.6;" xml:space="preserve">
<style type="text/css">
	.st0{fill:none;stroke:#000000;stroke-miterlimit:10;}
	.st1{fill:none;stroke:#FF0000;stroke-width:2;stroke-linecap:round;stroke-miterlimit:10;}
</style>
<g id="Layer_1-2">
	<rect x="39.2" y="39.5" class="st0" width="72.1" height="72.1"/>
	<rect x="111.3" y="39.5" class="st0" width="72.1" height="72.1"/>
	<rect x="39.2" y="111.7" class="st0" width="72.1" height="72.1"/>
	<rect x="111.3" y="111.7" class="st0" width="72.1" height="72.1"/>
	<rect x="39.2" y="183.8" class="st0" width="72.1" height="72.1"/>
	<rect x="111.3" y="183.8" class="st0" width="72.1" height="72.1"/>
	<line class="st1" x1="183.5" y1="39.5" x2="39.2" y2="183.8"/>
	<line class="st1" x1="183.5" y1="111.7" x2="39.2" y2="255.9"/>
	<line class="st1" x1="183.5" y1="183.8" x2="111.3" y2="255.9"/>
	<line class="st1" x1="111.3" y1="39.5" x2="39.2" y2="111.7"/>
	<path d="M82.8,7.1c0,1.3-0.3,2.4-1,3.4c-0.7,1-1.6,1.8-2.7,2.4c1.3,0.6,2.4,1.4,3.2,2.5c0.8,1.1,1.2,2.4,1.2,3.8
		c0,2.2-0.8,4-2.2,5.3s-3.5,2-5.9,2s-4.4-0.7-5.9-2c-1.5-1.3-2.2-3.1-2.2-5.3c0-1.4,0.4-2.6,1.1-3.8s1.8-2,3.2-2.5
		c-1.1-0.6-2-1.4-2.7-2.3c-0.7-1-1-2.1-1-3.4c0-2.2,0.7-3.9,2.1-5.2S73,0,75.3,0s4.1,0.6,5.5,1.9S82.8,4.9,82.8,7.1L82.8,7.1z
		 M80.2,19c0-1.4-0.5-2.6-1.4-3.5s-2.1-1.4-3.6-1.4s-2.7,0.4-3.5,1.3s-1.3,2.1-1.3,3.5s0.4,2.6,1.3,3.4c0.9,0.8,2.1,1.2,3.6,1.2
		s2.7-0.4,3.6-1.3C79.7,21.6,80.2,20.5,80.2,19L80.2,19z M75.3,2.7c-1.3,0-2.3,0.4-3.1,1.2S71,5.7,71,7.1s0.4,2.4,1.2,3.2
		s1.8,1.2,3.1,1.2s2.3-0.4,3.1-1.2s1.2-1.9,1.2-3.2s-0.4-2.4-1.2-3.2S76.5,2.7,75.3,2.7L75.3,2.7z"/>
	<path d="M63.8,66.7h3.6v2.7h-3.6v6h-3.3v-6H48.8v-1.9l11.5-17.8h3.5L63.8,66.7L63.8,66.7z M52.5,66.7h8V54.1l-0.4,0.7L52.5,66.7z"
		/>
	<path d="M99.5,93.1c0,3.8-0.7,6.7-2,8.5s-3.3,2.8-6.1,2.8s-4.8-0.9-6.1-2.7c-1.3-1.8-2-4.5-2.1-8.1v-4.4c0-3.8,0.7-6.6,2-8.4
		c1.3-1.8,3.3-2.8,6.1-2.8s4.8,0.9,6.1,2.7c1.3,1.8,2,4.5,2,8.2L99.5,93.1L99.5,93.1z M96.2,88.7c0-2.8-0.4-4.8-1.2-6
		c-0.8-1.3-2-1.9-3.7-1.9s-2.9,0.6-3.7,1.9s-1.2,3.2-1.2,5.8v5.2c0,2.8,0.4,4.8,1.2,6.2s2,2,3.7,2s2.8-0.6,3.6-1.9s1.2-3.2,1.2-5.9
		L96.2,88.7L96.2,88.7z"/>
	<path d="M133.4,75.3h-3.3V53.6l-6.6,2.4v-3l9.4-3.5h0.5V75.3L133.4,75.3z"/>
	<path d="M172.2,93.1c0,3.8-0.6,6.7-2,8.5c-1.3,1.9-3.4,2.8-6.1,2.8s-4.8-0.9-6.1-2.7c-1.3-1.8-2-4.5-2.1-8.1v-4.4
		c0-3.8,0.6-6.6,2-8.4c1.3-1.8,3.4-2.8,6.1-2.8s4.8,0.9,6.1,2.7c1.3,1.8,2,4.5,2,8.2L172.2,93.1L172.2,93.1z M168.9,88.7
		c0-2.8-0.4-4.8-1.2-6c-0.8-1.3-2-1.9-3.7-1.9s-2.9,0.6-3.6,1.9s-1.2,3.2-1.2,5.8v5.2c0,2.8,0.4,4.8,1.2,6.2s2,2,3.7,2
		s2.8-0.6,3.6-1.9s1.2-3.2,1.2-5.9L168.9,88.7L168.9,88.7z"/>
	<path d="M66.1,133.8c0,3.8-0.7,6.7-2,8.5c-1.3,1.9-3.3,2.8-6.1,2.8s-4.8-0.9-6.1-2.7c-1.3-1.8-2-4.5-2-8.1v-4.4
		c0-3.8,0.7-6.6,2-8.4c1.3-1.8,3.3-2.8,6.1-2.8s4.8,0.9,6.1,2.7c1.3,1.8,2,4.5,2,8.2L66.1,133.8L66.1,133.8z M62.8,129.3
		c0-2.8-0.4-4.8-1.2-6c-0.8-1.3-2-1.9-3.7-1.9s-2.9,0.6-3.7,1.9c-0.8,1.3-1.2,3.2-1.2,5.8v5.2c0,2.8,0.4,4.8,1.2,6.1s2,2,3.7,2
		s2.8-0.6,3.6-1.9s1.2-3.2,1.2-5.9L62.8,129.3L62.8,129.3z"/>
	<path d="M138.8,133.8c0,3.8-0.7,6.7-2,8.5s-3.3,2.8-6.1,2.8c-2.8,0-4.8-0.9-6.1-2.7c-1.3-1.8-2-4.5-2.1-8.1v-4.4
		c0-3.8,0.7-6.6,2-8.4c1.3-1.8,3.3-2.8,6.1-2.8c2.8,0,4.8,0.9,6.1,2.7c1.3,1.8,2,4.5,2,8.2L138.8,133.8L138.8,133.8z M135.5,129.3
		c0-2.8-0.4-4.8-1.2-6c-0.8-1.3-2-1.9-3.7-1.9c-1.7,0-2.9,0.6-3.7,1.9c-0.8,1.3-1.2,3.2-1.2,5.8v5.2c0,2.8,0.4,4.8,1.2,6.1
		s2,2,3.7,2c1.6,0,2.8-0.6,3.6-1.9s1.2-3.2,1.2-5.9L135.5,129.3L135.5,129.3z"/>
	<path d="M99,154.5c0,1.3-0.3,2.4-1,3.4c-0.7,1-1.6,1.8-2.7,2.4c1.3,0.6,2.4,1.4,3.2,2.5c0.8,1.1,1.2,2.4,1.2,3.8
		c0,2.2-0.8,4-2.2,5.3c-1.5,1.3-3.5,2-5.9,2s-4.4-0.7-5.9-2c-1.5-1.3-2.2-3.1-2.2-5.3c0-1.4,0.4-2.6,1.1-3.8s1.8-2,3.2-2.5
		c-1.1-0.6-2-1.4-2.7-2.4c-0.7-1-1-2.1-1-3.4c0-2.2,0.7-3.9,2.1-5.1s3.2-1.9,5.5-1.9s4.1,0.6,5.5,1.9S99,152.4,99,154.5L99,154.5z
		 M96.3,166.5c0-1.4-0.5-2.6-1.4-3.5c-0.9-0.9-2.1-1.4-3.6-1.4s-2.7,0.4-3.5,1.3s-1.3,2.1-1.3,3.5s0.4,2.6,1.3,3.4
		c0.9,0.8,2.1,1.2,3.6,1.2s2.7-0.4,3.6-1.3C95.9,169.1,96.3,168,96.3,166.5L96.3,166.5z M91.4,150.1c-1.3,0-2.3,0.4-3.1,1.2
		c-0.8,0.8-1.2,1.9-1.2,3.2s0.4,2.4,1.2,3.2s1.8,1.2,3.1,1.2s2.3-0.4,3.1-1.2c0.8-0.8,1.2-1.9,1.2-3.2s-0.4-2.4-1.2-3.2
		S92.6,150.2,91.4,150.1L91.4,150.1z"/>
	<path d="M172.9,173.5h-16.8v-2.4l8.9-9.9c1.3-1.5,2.2-2.7,2.7-3.6c0.5-0.9,0.8-1.9,0.8-2.9c0-1.3-0.4-2.4-1.2-3.3s-1.9-1.3-3.2-1.3
		c-1.6,0-2.9,0.5-3.8,1.4s-1.4,2.2-1.4,3.9h-3.3c0-2.4,0.8-4.3,2.3-5.7c1.5-1.5,3.6-2.2,6.1-2.2c2.4,0,4.3,0.6,5.7,1.9
		s2.1,2.9,2.1,5c0,2.5-1.6,5.5-4.8,9l-6.9,7.5h12.9L172.9,173.5L172.9,173.5z"/>
	<path d="M66.8,217.4H50V215l8.9-9.9c1.3-1.5,2.2-2.7,2.7-3.6c0.5-0.9,0.8-1.9,0.8-2.9c0-1.3-0.4-2.4-1.2-3.3s-1.9-1.3-3.2-1.3
		c-1.6,0-2.9,0.5-3.8,1.4c-0.9,0.9-1.3,2.2-1.3,3.9h-3.3c0-2.4,0.8-4.3,2.3-5.7c1.5-1.5,3.6-2.2,6.1-2.2c2.4,0,4.3,0.6,5.7,1.9
		c1.4,1.2,2.1,2.9,2.1,5c0,2.5-1.6,5.5-4.8,9l-6.9,7.5h12.9L66.8,217.4L66.8,217.4z"/>
	<path d="M97.2,237.5h3.6v2.7h-3.6v6h-3.3v-6H82.2v-1.9l11.5-17.8h3.5L97.2,237.5L97.2,237.5z M85.9,237.5h8v-12.6l-0.4,0.7
		L85.9,237.5z"/>
	<path d="M138.8,206.4c0,3.8-0.6,6.7-2,8.5c-1.3,1.9-3.4,2.8-6.1,2.8s-4.8-0.9-6.1-2.7c-1.3-1.8-2-4.5-2.1-8.1v-4.4
		c0-3.8,0.7-6.6,2-8.4c1.3-1.8,3.3-2.8,6.1-2.8s4.8,0.9,6.1,2.7s2,4.5,2,8.2L138.8,206.4L138.8,206.4z M135.5,201.9
		c0-2.8-0.4-4.8-1.2-6c-0.8-1.3-2-1.9-3.7-1.9s-2.9,0.6-3.7,1.9s-1.2,3.2-1.2,5.8v5.2c0,2.8,0.4,4.8,1.2,6.1s2,2,3.7,2
		s2.8-0.6,3.6-1.9s1.2-3.2,1.2-5.9L135.5,201.9L135.5,201.9z"/>
	<path d="M168.9,220.4v2.8h-0.6c-2.5,0.1-4.6,0.8-6.1,2.3c-1.5,1.5-2.4,3.5-2.6,6.2c1.4-1.6,3.2-2.3,5.5-2.3s4,0.8,5.4,2.4
		c1.3,1.6,2,3.6,2,6.1c0,2.6-0.7,4.8-2.2,6.4c-1.4,1.6-3.4,2.4-5.8,2.4s-4.4-0.9-6-2.8s-2.3-4.3-2.3-7.3v-1.2c0-4.7,1-8.3,3-10.8
		s5-3.8,9-3.8L168.9,220.4L168.9,220.4z M164.6,232c-1.1,0-2.1,0.3-3.1,1s-1.6,1.5-2,2.5v1.2c0,2.1,0.5,3.8,1.4,5.1
		c0.9,1.3,2.1,1.9,3.6,1.9s2.6-0.5,3.5-1.6c0.8-1.1,1.3-2.5,1.3-4.2s-0.4-3.2-1.3-4.3S166,232,164.6,232L164.6,232z"/>
	<path d="M156.2,26h-16.8v-2.4l8.9-9.9c1.3-1.5,2.2-2.7,2.7-3.6c0.5-0.9,0.8-1.9,0.8-2.9c0-1.3-0.4-2.4-1.2-3.3s-1.9-1.3-3.2-1.3
		c-1.6,0-2.9,0.5-3.8,1.4s-1.4,2.2-1.4,3.8h-3.3c0-2.4,0.8-4.3,2.3-5.7c1.5-1.5,3.6-2.2,6.1-2.2c2.4,0,4.3,0.6,5.7,1.9
		s2.1,2.9,2.1,5c0,2.5-1.6,5.5-4.8,9l-6.9,7.5h12.9L156.2,26L156.2,26z"/>
	<path d="M80.1,274.6v2.8h-0.6c-2.5,0-4.6,0.8-6.1,2.3c-1.5,1.5-2.4,3.5-2.6,6.2c1.3-1.5,3.2-2.3,5.5-2.3s4,0.8,5.3,2.4
		c1.3,1.6,2,3.6,2,6.1c0,2.6-0.7,4.8-2.2,6.4s-3.4,2.4-5.8,2.4s-4.4-0.9-6-2.8c-1.5-1.9-2.3-4.3-2.3-7.3v-1.2c0-4.7,1-8.3,3-10.8
		s5-3.8,9-3.8L80.1,274.6L80.1,274.6z M75.8,286.1c-1.1,0-2.2,0.3-3.1,1c-0.9,0.7-1.6,1.5-2,2.5v1.2c0,2.1,0.5,3.8,1.4,5.1
		c0.9,1.3,2.1,1.9,3.6,1.9s2.6-0.5,3.5-1.6c0.8-1.1,1.3-2.5,1.3-4.2s-0.4-3.2-1.3-4.3S77.2,286.2,75.8,286.1L75.8,286.1z"/>
	<path d="M152.2,274.6v2.8h-0.6c-2.5,0-4.6,0.8-6.1,2.3c-1.5,1.5-2.4,3.5-2.6,6.2c1.4-1.5,3.2-2.3,5.5-2.3s4,0.8,5.4,2.4
		c1.3,1.6,2,3.6,2,6.1c0,2.6-0.7,4.8-2.2,6.4s-3.4,2.4-5.8,2.4s-4.4-0.9-6-2.8c-1.5-1.9-2.3-4.3-2.3-7.3v-1.2c0-4.7,1-8.3,3-10.8
		s5-3.8,9-3.8L152.2,274.6L152.2,274.6z M147.9,286.1c-1.1,0-2.1,0.3-3.1,1s-1.6,1.5-2,2.5v1.2c0,2.1,0.5,3.8,1.4,5.1
		c0.9,1.3,2.1,1.9,3.6,1.9s2.6-0.5,3.5-1.6c0.8-1.1,1.3-2.5,1.3-4.2s-0.4-3.2-1.3-4.3S149.3,286.2,147.9,286.1L147.9,286.1z"/>
	<path d="M202,74.2l1.3-12.8h13.2v3H206l-0.8,7c1.3-0.7,2.7-1.1,4.3-1.1c2.3,0,4.2,0.8,5.6,2.3s2.1,3.6,2.1,6.3s-0.7,4.7-2.1,6.2
		s-3.4,2.3-6,2.3c-2.3,0-4.1-0.6-5.6-1.9c-1.4-1.3-2.2-3-2.4-5.2h3.1c0.2,1.5,0.7,2.6,1.6,3.3s2,1.1,3.4,1.1c1.5,0,2.7-0.5,3.6-1.6
		c0.9-1,1.3-2.5,1.3-4.3c0-1.7-0.5-3.1-1.4-4.1s-2.2-1.6-3.7-1.6c-1.4,0-2.5,0.3-3.4,0.9l-0.9,0.7L202,74.2L202,74.2z"/>
	<path d="M211.2,159.1h-3.3v-21.8l-6.6,2.4v-3l9.4-3.5h0.5V159.1L211.2,159.1z"/>
	<path d="M205.2,217.3h2.4c1.5,0,2.8-0.4,3.6-1.2c0.9-0.8,1.3-1.9,1.3-3.2c0-3-1.5-4.5-4.5-4.5c-1.4,0-2.5,0.4-3.4,1.2
		c-0.8,0.8-1.3,1.9-1.3,3.2h-3.3c0-2,0.7-3.7,2.2-5.1c1.5-1.4,3.4-2,5.7-2c2.4,0,4.3,0.6,5.7,1.9c1.4,1.3,2.1,3.1,2.1,5.4
		c0,1.1-0.4,2.2-1.1,3.2s-1.7,1.8-2.9,2.4c1.4,0.4,2.5,1.2,3.3,2.2c0.8,1,1.2,2.3,1.2,3.8c0,2.3-0.8,4.1-2.3,5.5
		c-1.5,1.4-3.5,2-5.9,2s-4.4-0.6-5.9-2c-1.5-1.3-2.3-3-2.3-5.2h3.3c0,1.4,0.4,2.4,1.3,3.2s2.1,1.2,3.6,1.2c1.6,0,2.8-0.4,3.6-1.2
		c0.8-0.8,1.2-2,1.2-3.6s-0.5-2.6-1.4-3.4s-2.2-1.2-4-1.2h-2.4L205.2,217.3L205.2,217.3z"/>
	<path d="M15,78.5h3.6v2.7H15v6h-3.3v-6H0v-1.9l11.5-17.8H15L15,78.5L15,78.5z M3.7,78.5h8V65.9l-0.4,0.7
		C11.3,66.6,3.7,78.5,3.7,78.5z"/>
	<path d="M18,159.1H1.2v-2.4l8.9-9.9c1.3-1.5,2.2-2.7,2.7-3.6c0.5-0.9,0.8-1.9,0.8-2.9c0-1.3-0.4-2.4-1.2-3.3s-1.9-1.3-3.2-1.3
		c-1.6,0-2.9,0.5-3.8,1.4S4,139.3,4,141H0.7c0-2.4,0.8-4.3,2.3-5.7c1.5-1.5,3.6-2.2,6.1-2.2c2.4,0,4.3,0.6,5.7,1.9s2.1,2.9,2.1,5
		c0,2.5-1.6,5.5-4.8,9l-6.9,7.5H18L18,159.1L18,159.1z"/>
	<path d="M17.3,220.8c0,3.8-0.6,6.7-2,8.5s-3.3,2.8-6.1,2.8s-4.8-0.9-6.1-2.7c-1.3-1.8-2-4.5-2-8.1v-4.4c0-3.8,0.6-6.6,2-8.4
		c1.3-1.8,3.4-2.8,6.1-2.8s4.8,0.9,6.1,2.7s2,4.5,2,8.2L17.3,220.8L17.3,220.8z M14,216.3c0-2.8-0.4-4.8-1.2-6
		c-0.8-1.3-2-1.9-3.7-1.9s-2.9,0.6-3.7,1.9s-1.2,3.2-1.2,5.8v5.2c0,2.8,0.4,4.8,1.2,6.1s2,2,3.7,2s2.8-0.6,3.6-1.9s1.2-3.2,1.2-5.9
		L14,216.3L14,216.3z"/>
</g>
</svg>
