<?xml version="1.0" encoding="UTF-8"?><svg id="Layer_2" xmlns="http://www.w3.org/2000/svg" viewBox="0 0 501.11 421.73"><defs><style>.cls-1{fill:#ff9600;}.cls-2{fill:#e6e6e6;}.cls-2,.cls-3,.cls-4,.cls-5{stroke:#000;stroke-miterlimit:10;}.cls-3{fill:#ccc;}.cls-4{fill:#a9ddf3;}.cls-5{fill:none;}</style></defs><g id="Layer_1-2"><polygon class="cls-1" points="307.53 145.56 314.02 145.56 314.11 143.69 458.19 143.69 458.28 145.56 464.77 145.56 464.77 380.28 307.53 380.28 307.53 145.56"/><polyline class="cls-3" points="310.94 410.9 307.31 421.23 299.72 421.23 296.09 410.9"/><polyline class="cls-3" points="477.93 410.9 474.3 421.23 466.71 421.23 463.08 410.9"/><polyline class="cls-3" points="316.3 397.49 312.66 410.9 293.85 410.9 290.22 397.49"/><polyline class="cls-3" points="483.29 397.49 479.66 410.9 460.84 410.9 457.21 397.49"/><path class="cls-3" d="M500.61,387.97s-8.08,0-12.27,9.52h-202.87c-4.19-9.52-12.27-9.52-12.27-9.52"/><rect class="cls-2" x="292.74" y="170.39" width="14.79" height="209.89"/><rect class="cls-2" x="292.74" y="147.44" width="14.79" height="6.18"/><rect class="cls-2" x="464.77" y="170.39" width="14.79" height="209.89" transform="translate(944.32 550.67) rotate(-180)"/><rect class="cls-2" x="464.77" y="157.37" width="14.79" height="9.28" transform="translate(944.32 324.02) rotate(-180)"/><rect class="cls-2" x="464.77" y="147.44" width="14.79" height="6.18" transform="translate(944.32 301.06) rotate(-180)"/><path class="cls-2" d="M479.56,143.69s8.3-43.78-43.49-60.14c0,0,1.7-17.72-8.01-28.79-9.71-11.07-18-12.77-24.85-19.77-7.33-7.5-14.17-19.75-17.06-32.7-2.9,12.95-9.74,25.2-17.06,32.7-6.85,7-15.14,8.7-24.85,19.77s-8.01,28.79-8.01,28.79c-51.79,16.35-43.49,60.14-43.49,60.14"/><path class="cls-5" d="M460.04,145.56h-1.76s8.45-40.72-38.4-49.23c0,0,7.84-16.7-4.6-30.32-12.44-13.63-20.61-10.73-29.13-26.75-8.52,16.01-16.7,13.12-29.13,26.75-12.44,13.63-4.6,30.32-4.6,30.32-46.85,8.52-38.4,49.23-38.4,49.23h-1.76"/><path class="cls-5" d="M386.15,39.26s-.44,12.84-15.93,22.1c-15.49,9.26-18.19,22.4-16.17,40.08,0,0-38.63,2.85-40.03,44.12"/><path class="cls-5" d="M386.15,39.26s.44,12.84,15.93,22.1c15.49,9.26,18.19,22.4,16.17,40.08,0,0,38.63,2.85,40.03,44.12"/><path class="cls-4" d="M386.54,64.33c4.67,0,8.45,3.78,8.45,8.45,0,3.13-1.7,5.86-4.22,7.32l-.05,.02c-.59,.37-.98,1.03-.98,1.78,0,1.16,.94,2.11,2.11,2.11,.69,0,1.31-.35,1.69-.86h0c1.52-2.21,4.07-3.66,6.96-3.66,4.67,0,8.45,3.78,8.45,8.45,0,4.67-3.78,8.45-8.45,8.45-3.05,0-5.73-1.62-7.22-4.05h0c-.38-.57-1.04-.93-1.77-.93-1.16,0-2.11,.94-2.11,2.11,0,.78,.43,1.46,1.06,1.83h0c2.63,1.43,4.42,4.22,4.42,7.43,0,6.61-8.16,14.1-8.45,14.39-.3-.3-8.45-7.78-8.45-14.39,0-3.21,1.79-6,4.42-7.43h0c.63-.36,1.06-1.05,1.06-1.83,0-1.16-.94-2.11-2.11-2.11-.73,0-1.39,.36-1.77,.93h0c-1.49,2.43-4.16,4.05-7.22,4.05-4.67,0-8.45-3.78-8.45-8.45s3.78-8.45,8.45-8.45c2.89,0,5.44,1.45,6.96,3.66h0c.38,.51,1,.86,1.69,.86,1.16,0,2.11-.94,2.11-2.11,0-.75-.39-1.41-.98-1.78l-.05-.02c-2.52-1.46-4.22-4.19-4.22-7.32,0-4.67,3.78-8.45,8.45-8.45h.22Z"/><path class="cls-4" d="M326.94,143.53c0-5.75,4.66-10.41,10.41-10.41,3.56,0,6.7,1.78,8.57,4.5h0c.47,.63,1.24,1.06,2.08,1.06,1.43,0,2.59-1.16,2.59-2.59,0-.92-.48-1.73-1.21-2.19l-.06-.03c-3.11-1.8-5.2-5.16-5.2-9.02,0-5.75,4.66-10.41,10.41-10.41h.26c5.75,0,10.41,4.66,10.41,10.41,0,3.85-2.09,7.22-5.2,9.02l-.06,.03c-.73,.46-1.21,1.27-1.21,2.19,0,1.43,1.16,2.59,2.59,2.59,.85,0,1.61-.43,2.08-1.06h0c1.88-2.72,5.02-4.5,8.57-4.5,5.75,0,10.41,4.66,10.41,10.41"/><path class="cls-4" d="M363.92,77.81s2.76-6.01,9.85-10.78c0,0-2.07,5.39,0,8.84,0,0-6.45-1.3-9.85,1.94Z"/><path class="cls-4" d="M408.95,77.81s-2.76-6.01-9.85-10.78c0,0,2.07,5.39,0,8.84,0,0,6.45-1.3,9.85,1.94Z"/><path class="cls-4" d="M329.61,130.12s2.76-6.01,9.85-10.78c0,0-2.07,5.39,0,8.84,0,0-6.45-1.3-9.85,1.94Z"/><path class="cls-4" d="M379.56,130.12s-2.76-6.01-9.85-10.78c0,0,2.07,5.39,0,8.84,0,0,6.45-1.3,9.85,1.94Z"/><path class="cls-4" d="M394.48,143.53c0-5.75,4.66-10.41,10.41-10.41,3.56,0,6.7,1.78,8.57,4.5h0c.47,.63,1.24,1.06,2.08,1.06,1.43,0,2.59-1.16,2.59-2.59,0-.92-.48-1.73-1.21-2.19l-.06-.03c-3.11-1.8-5.2-5.16-5.2-9.02,0-5.75,4.66-10.41,10.41-10.41h.26c5.75,0,10.41,4.66,10.41,10.41,0,3.85-2.09,7.22-5.2,9.02l-.06,.03c-.73,.46-1.21,1.27-1.21,2.19,0,1.43,1.16,2.59,2.59,2.59,.85,0,1.61-.43,2.08-1.06h0c1.88-2.72,5.02-4.5,8.57-4.5,5.75,0,10.41,4.66,10.41,10.41"/><path class="cls-4" d="M397.16,130.12s2.76-6.01,9.85-10.78c0,0-2.07,5.39,0,8.84,0,0-6.45-1.3-9.85,1.94Z"/><path class="cls-4" d="M447.1,130.12s-2.76-6.01-9.85-10.78c0,0,2.07,5.39,0,8.84,0,0,6.45-1.3,9.85,1.94Z"/><path class="cls-4" d="M363.92,98.77s2.76,6.01,9.85,10.78c0,0-2.07-5.39,0-8.84,0,0-6.45,1.3-9.85-1.94Z"/><path class="cls-4" d="M408.95,98.77s-2.76,6.01-9.85,10.78c0,0,2.07-5.39,0-8.84,0,0,6.45,1.3,9.85-1.94Z"/><line class="cls-5" x1="314.11" y1="143.69" x2="458.19" y2="143.69"/><polyline class="cls-5" points="307.53 149.95 311.05 149.95 312.26 152.19 460.04 152.19 461.25 149.95 464.77 149.95"/><line class="cls-5" x1="311.05" y1="149.95" x2="461.25" y2="149.95"/><rect class="cls-5" x="316.3" y="155.5" width="68.41" height="218.13"/><g><rect class="cls-5" x="323.31" y="163.28" width="54.75" height="97.01"/><rect class="cls-5" x="326.84" y="166.65" width="47.69" height="90.56"/><polyline class="cls-5" points="373.21 166.65 374.53 179.54 326.94 179.54 328.27 166.65"/><polyline class="cls-5" points="373.21 179.54 374.53 192.44 326.94 192.44 328.27 179.54"/><polyline class="cls-5" points="373.21 192.44 374.53 205.34 326.94 205.34 328.27 192.44"/><polyline class="cls-5" points="373.21 205.34 374.53 218.24 326.94 218.24 328.27 205.34"/><polyline class="cls-5" points="373.21 218.24 374.53 231.14 326.94 231.14 328.27 218.24"/><polyline class="cls-5" points="373.21 231.14 374.53 244.03 326.94 244.03 328.27 231.14"/><polyline class="cls-5" points="373.21 244.31 374.53 257.21 326.94 257.21 328.27 244.31"/></g><g><rect class="cls-5" x="323.31" y="267.91" width="54.75" height="97.01"/><rect class="cls-5" x="326.84" y="271.28" width="47.69" height="90.56"/><polyline class="cls-5" points="373.21 271.28 374.53 284.17 326.94 284.17 328.27 271.28"/><polyline class="cls-5" points="373.21 284.17 374.53 297.07 326.94 297.07 328.27 284.17"/><polyline class="cls-5" points="373.21 297.07 374.53 309.97 326.94 309.97 328.27 297.07"/><polyline class="cls-5" points="373.21 309.97 374.53 322.87 326.94 322.87 328.27 309.97"/><polyline class="cls-5" points="373.21 322.87 374.53 335.77 326.94 335.77 328.27 322.87"/><polyline class="cls-5" points="373.21 335.77 374.53 348.66 326.94 348.66 328.27 335.77"/><polyline class="cls-5" points="373.21 348.94 374.53 361.84 326.94 361.84 328.27 348.94"/></g><g><rect class="cls-5" x="395.19" y="267.91" width="54.75" height="97.01"/><rect class="cls-5" x="398.72" y="271.28" width="47.69" height="90.56"/><polyline class="cls-5" points="445.08 271.28 446.41 284.17 398.81 284.17 400.14 271.28"/><polyline class="cls-5" points="445.08 284.17 446.41 297.07 398.81 297.07 400.14 284.17"/><polyline class="cls-5" points="445.08 297.07 446.41 309.97 398.81 309.97 400.14 297.07"/><polyline class="cls-5" points="445.08 309.97 446.41 322.87 398.81 322.87 400.14 309.97"/><polyline class="cls-5" points="445.08 322.87 446.41 335.77 398.81 335.77 400.14 322.87"/><polyline class="cls-5" points="445.08 335.77 446.41 348.66 398.81 348.66 400.14 335.77"/><polyline class="cls-5" points="445.08 348.94 446.41 361.84 398.81 361.84 400.14 348.94"/></g><rect class="cls-5" x="388.17" y="155.5" width="68.41" height="218.13"/><g><rect class="cls-5" x="395.19" y="163.28" width="54.75" height="97.01"/><rect class="cls-5" x="398.72" y="166.65" width="47.69" height="90.56"/><polyline class="cls-5" points="445.08 166.65 446.41 179.54 398.81 179.54 400.14 166.65"/><polyline class="cls-5" points="445.08 179.54 446.41 192.44 398.81 192.44 400.14 179.54"/><polyline class="cls-5" points="445.08 192.44 446.41 205.34 398.81 205.34 400.14 192.44"/><polyline class="cls-5" points="445.08 205.34 446.41 218.24 398.81 218.24 400.14 205.34"/><polyline class="cls-5" points="445.08 218.24 446.41 231.14 398.81 231.14 400.14 218.24"/><polyline class="cls-5" points="445.08 231.14 446.41 244.03 398.81 244.03 400.14 231.14"/><polyline class="cls-5" points="445.08 244.31 446.41 257.21 398.81 257.21 400.14 244.31"/></g><polygon class="cls-3" points="312.26 170.39 288.02 170.39 288.02 168.52 289.65 166.65 310.62 166.65 312.26 168.52 312.26 170.39"/><polygon class="cls-3" points="312.26 157.37 288.02 157.37 288.02 155.5 289.65 153.62 310.62 153.62 312.26 155.5 312.26 157.37"/><rect class="cls-2" x="292.74" y="157.37" width="14.79" height="9.28"/><polygon class="cls-3" points="460.04 170.39 484.28 170.39 484.28 168.52 482.64 166.65 461.68 166.65 460.04 168.52 460.04 170.39"/><polygon class="cls-3" points="460.04 157.37 484.28 157.37 484.28 155.5 482.64 153.62 461.68 153.62 460.04 155.5 460.04 157.37"/><polygon class="cls-3" points="312.26 147.44 288.02 147.44 288.02 145.56 289.65 143.69 310.62 143.69 312.26 145.56 312.26 147.44"/><polygon class="cls-3" points="460.04 147.44 484.28 147.44 484.28 145.56 482.64 143.69 461.68 143.69 460.04 145.56 460.04 147.44"/><rect class="cls-3" x="273.2" y="380.28" width="227.41" height="7.69"/><polygon class="cls-1" points="34.83 145.56 41.32 145.56 41.41 143.69 185.49 143.69 185.58 145.56 192.07 145.56 192.07 380.28 34.83 380.28 34.83 145.56"/><polyline class="cls-3" points="38.24 410.9 34.61 421.23 27.02 421.23 23.38 410.9"/><polyline class="cls-3" points="205.23 410.9 201.6 421.23 194.01 421.23 190.38 410.9"/><polyline class="cls-3" points="43.59 397.49 39.96 410.9 21.15 410.9 17.52 397.49"/><polyline class="cls-3" points="210.59 397.49 206.95 410.9 188.14 410.9 184.51 397.49"/><path class="cls-3" d="M227.91,387.97s-8.08,0-12.27,9.52H12.77c-4.19-9.52-12.27-9.52-12.27-9.52"/><rect class="cls-2" x="20.04" y="170.39" width="14.79" height="209.89"/><rect class="cls-2" x="20.04" y="147.44" width="14.79" height="6.18"/><rect class="cls-2" x="192.07" y="170.39" width="14.79" height="209.89" transform="translate(398.92 550.67) rotate(-180)"/><rect class="cls-2" x="192.07" y="157.37" width="14.79" height="9.28" transform="translate(398.92 324.02) rotate(-180)"/><rect class="cls-2" x="192.07" y="147.44" width="14.79" height="6.18" transform="translate(398.92 301.06) rotate(-180)"/><path class="cls-2" d="M206.85,143.69s8.3-43.78-43.49-60.14c0,0,1.7-17.72-8.01-28.79-9.71-11.07-18-12.77-24.85-19.77-7.33-7.5-14.17-19.75-17.06-32.7-2.9,12.95-9.74,25.2-17.06,32.7-6.85,7-15.14,8.7-24.85,19.77-9.71,11.07-8.01,28.79-8.01,28.79-51.79,16.35-43.49,60.14-43.49,60.14"/><path class="cls-5" d="M187.34,145.56h-1.76s8.45-40.72-38.4-49.23c0,0,7.84-16.7-4.6-30.32-12.44-13.63-20.61-10.73-29.13-26.75-8.52,16.01-16.7,13.12-29.13,26.75-12.44,13.63-4.6,30.32-4.6,30.32-46.85,8.52-38.4,49.23-38.4,49.23h-1.76"/><path class="cls-5" d="M113.45,39.26s-.44,12.84-15.93,22.1c-15.49,9.26-18.19,22.4-16.17,40.08,0,0-38.63,2.85-40.03,44.12"/><path class="cls-5" d="M113.45,39.26s.44,12.84,15.93,22.1c15.49,9.26,18.19,22.4,16.17,40.08,0,0,38.63,2.85,40.03,44.12"/><path class="cls-4" d="M113.84,64.33c4.67,0,8.45,3.78,8.45,8.45,0,3.13-1.7,5.86-4.22,7.32l-.05,.02c-.59,.37-.98,1.03-.98,1.78,0,1.16,.94,2.11,2.11,2.11,.69,0,1.31-.35,1.69-.86h0c1.52-2.21,4.07-3.66,6.96-3.66,4.67,0,8.45,3.78,8.45,8.45s-3.78,8.45-8.45,8.45c-3.05,0-5.73-1.62-7.22-4.05h0c-.38-.57-1.04-.93-1.77-.93-1.16,0-2.11,.94-2.11,2.11,0,.78,.43,1.46,1.06,1.83h0c2.63,1.43,4.42,4.22,4.42,7.43,0,6.61-8.16,14.1-8.45,14.39-.3-.3-8.45-7.78-8.45-14.39,0-3.21,1.79-6,4.42-7.43h0c.63-.36,1.06-1.05,1.06-1.83,0-1.16-.94-2.11-2.11-2.11-.73,0-1.39,.36-1.77,.93h0c-1.49,2.43-4.16,4.05-7.22,4.05-4.67,0-8.45-3.78-8.45-8.45s3.78-8.45,8.45-8.45c2.89,0,5.44,1.45,6.96,3.66h0c.38,.51,1,.86,1.69,.86,1.16,0,2.11-.94,2.11-2.11,0-.75-.39-1.41-.98-1.78l-.05-.02c-2.52-1.46-4.22-4.19-4.22-7.32,0-4.67,3.78-8.45,8.45-8.45h.22Z"/><path class="cls-4" d="M54.24,143.53c0-5.75,4.66-10.41,10.41-10.41,3.56,0,6.7,1.78,8.57,4.5h0c.47,.63,1.24,1.06,2.08,1.06,1.43,0,2.59-1.16,2.59-2.59,0-.92-.48-1.73-1.21-2.19l-.06-.03c-3.11-1.8-5.2-5.16-5.2-9.02,0-5.75,4.66-10.41,10.41-10.41h.26c5.75,0,10.41,4.66,10.41,10.41,0,3.85-2.09,7.22-5.2,9.02l-.06,.03c-.73,.46-1.21,1.27-1.21,2.19,0,1.43,1.16,2.59,2.59,2.59,.85,0,1.61-.43,2.08-1.06h0c1.88-2.72,5.02-4.5,8.57-4.5,5.75,0,10.41,4.66,10.41,10.41"/><path class="cls-4" d="M91.22,77.81s2.76-6.01,9.85-10.78c0,0-2.07,5.39,0,8.84,0,0-6.45-1.3-9.85,1.94Z"/><path class="cls-4" d="M136.24,77.81s-2.76-6.01-9.85-10.78c0,0,2.07,5.39,0,8.84,0,0,6.45-1.3,9.85,1.94Z"/><path class="cls-4" d="M56.91,130.12s2.76-6.01,9.85-10.78c0,0-2.07,5.39,0,8.84,0,0-6.45-1.3-9.85,1.94Z"/><path class="cls-4" d="M106.86,130.12s-2.76-6.01-9.85-10.78c0,0,2.07,5.39,0,8.84,0,0,6.45-1.3,9.85,1.94Z"/><path class="cls-4" d="M121.78,143.53c0-5.75,4.66-10.41,10.41-10.41,3.56,0,6.7,1.78,8.57,4.5h0c.47,.63,1.24,1.06,2.08,1.06,1.43,0,2.59-1.16,2.59-2.59,0-.92-.48-1.73-1.21-2.19l-.06-.03c-3.11-1.8-5.2-5.16-5.2-9.02,0-5.75,4.66-10.41,10.41-10.41h.26c5.75,0,10.41,4.66,10.41,10.41,0,3.85-2.09,7.22-5.2,9.02l-.06,.03c-.73,.46-1.21,1.27-1.21,2.19,0,1.43,1.16,2.59,2.59,2.59,.85,0,1.61-.43,2.08-1.06h0c1.88-2.72,5.02-4.5,8.57-4.5,5.75,0,10.41,4.66,10.41,10.41"/><path class="cls-4" d="M124.45,130.12s2.76-6.01,9.85-10.78c0,0-2.07,5.39,0,8.84,0,0-6.45-1.3-9.85,1.94Z"/><path class="cls-4" d="M174.4,130.12s-2.76-6.01-9.85-10.78c0,0,2.07,5.39,0,8.84,0,0,6.45-1.3,9.85,1.94Z"/><path class="cls-4" d="M91.22,98.77s2.76,6.01,9.85,10.78c0,0-2.07-5.39,0-8.84,0,0-6.45,1.3-9.85-1.94Z"/><path class="cls-4" d="M136.24,98.77s-2.76,6.01-9.85,10.78c0,0,2.07-5.39,0-8.84,0,0,6.45,1.3,9.85-1.94Z"/><line class="cls-5" x1="41.41" y1="143.69" x2="185.49" y2="143.69"/><polyline class="cls-5" points="34.83 149.95 38.34 149.95 39.55 152.19 187.34 152.19 188.55 149.95 192.07 149.95"/><line class="cls-5" x1="38.34" y1="149.95" x2="188.55" y2="149.95"/><rect class="cls-5" x="43.59" y="155.5" width="68.41" height="218.13"/><g><rect class="cls-5" x="50.61" y="163.28" width="54.75" height="97.01"/><rect class="cls-5" x="54.14" y="166.65" width="47.69" height="90.56"/><polyline class="cls-5" points="100.51 166.65 101.83 179.54 54.24 179.54 55.56 166.65"/><polyline class="cls-5" points="100.51 179.54 101.83 192.44 54.24 192.44 55.56 179.54"/><polyline class="cls-5" points="100.51 192.44 101.83 205.34 54.24 205.34 55.56 192.44"/><polyline class="cls-5" points="100.51 205.34 101.83 218.24 54.24 218.24 55.56 205.34"/><polyline class="cls-5" points="100.51 218.24 101.83 231.14 54.24 231.14 55.56 218.24"/><polyline class="cls-5" points="100.51 231.14 101.83 244.03 54.24 244.03 55.56 231.14"/><polyline class="cls-5" points="100.51 244.31 101.83 257.21 54.24 257.21 55.56 244.31"/></g><g><rect class="cls-5" x="50.61" y="267.91" width="54.75" height="97.01"/><rect class="cls-5" x="54.14" y="271.28" width="47.69" height="90.56"/><polyline class="cls-5" points="100.51 271.28 101.83 284.17 54.24 284.17 55.56 271.28"/><polyline class="cls-5" points="100.51 284.17 101.83 297.07 54.24 297.07 55.56 284.17"/><polyline class="cls-5" points="100.51 297.07 101.83 309.97 54.24 309.97 55.56 297.07"/><polyline class="cls-5" points="100.51 309.97 101.83 322.87 54.24 322.87 55.56 309.97"/><polyline class="cls-5" points="100.51 322.87 101.83 335.77 54.24 335.77 55.56 322.87"/><polyline class="cls-5" points="100.51 335.77 101.83 348.66 54.24 348.66 55.56 335.77"/><polyline class="cls-5" points="100.51 348.94 101.83 361.84 54.24 361.84 55.56 348.94"/></g><g><rect class="cls-5" x="122.48" y="267.91" width="54.75" height="97.01"/><rect class="cls-5" x="126.01" y="271.28" width="47.69" height="90.56"/><polyline class="cls-5" points="172.38 271.28 173.71 284.17 126.11 284.17 127.44 271.28"/><polyline class="cls-5" points="172.38 284.17 173.71 297.07 126.11 297.07 127.44 284.17"/><polyline class="cls-5" points="172.38 297.07 173.71 309.97 126.11 309.97 127.44 297.07"/><polyline class="cls-5" points="172.38 309.97 173.71 322.87 126.11 322.87 127.44 309.97"/><polyline class="cls-5" points="172.38 322.87 173.71 335.77 126.11 335.77 127.44 322.87"/><polyline class="cls-5" points="172.38 335.77 173.71 348.66 126.11 348.66 127.44 335.77"/><polyline class="cls-5" points="172.38 348.94 173.71 361.84 126.11 361.84 127.44 348.94"/></g><rect class="cls-5" x="115.47" y="155.5" width="68.41" height="218.13"/><g><rect class="cls-5" x="122.48" y="163.28" width="54.75" height="97.01"/><rect class="cls-5" x="126.01" y="166.65" width="47.69" height="90.56"/><polyline class="cls-5" points="172.38 166.65 173.71 179.54 126.11 179.54 127.44 166.65"/><polyline class="cls-5" points="172.38 179.54 173.71 192.44 126.11 192.44 127.44 179.54"/><polyline class="cls-5" points="172.38 192.44 173.71 205.34 126.11 205.34 127.44 192.44"/><polyline class="cls-5" points="172.38 205.34 173.71 218.24 126.11 218.24 127.44 205.34"/><polyline class="cls-5" points="172.38 218.24 173.71 231.14 126.11 231.14 127.44 218.24"/><polyline class="cls-5" points="172.38 231.14 173.71 244.03 126.11 244.03 127.44 231.14"/><polyline class="cls-5" points="172.38 244.31 173.71 257.21 126.11 257.21 127.44 244.31"/></g><polygon class="cls-3" points="39.55 170.39 15.32 170.39 15.32 168.52 16.95 166.65 37.92 166.65 39.55 168.52 39.55 170.39"/><polygon class="cls-3" points="39.55 157.37 15.32 157.37 15.32 155.5 16.95 153.62 37.92 153.62 39.55 155.5 39.55 157.37"/><rect class="cls-2" x="20.04" y="157.37" width="14.79" height="9.28"/><polygon class="cls-3" points="187.34 170.39 211.58 170.39 211.58 168.52 209.94 166.65 188.98 166.65 187.34 168.52 187.34 170.39"/><polygon class="cls-3" points="187.34 157.37 211.58 157.37 211.58 155.5 209.94 153.62 188.98 153.62 187.34 155.5 187.34 157.37"/><polygon class="cls-3" points="39.55 147.44 15.32 147.44 15.32 145.56 16.95 143.69 37.92 143.69 39.55 145.56 39.55 147.44"/><polygon class="cls-3" points="187.34 147.44 211.58 147.44 211.58 145.56 209.94 143.69 188.98 143.69 187.34 145.56 187.34 147.44"/><rect class="cls-3" x=".5" y="380.28" width="227.41" height="7.69"/></g></svg>